<svg xmlns="http://www.w3.org/2000/svg" xmlns:xlink="http://www.w3.org/1999/xlink" width="416" height="318.232" viewBox="0 0 416 318.232">
  <defs>
    <clipPath id="clip-path">
      <rect id="Rectángulo_455185" data-name="Rectángulo 455185" width="400" height="253.034" fill="none"/>
    </clipPath>
    <clipPath id="clip-path-3">
      <rect id="Rectángulo_455172" data-name="Rectángulo 455172" width="400" height="15.637" fill="none"/>
    </clipPath>
    <clipPath id="clip-path-4">
      <rect id="Rectángulo_455173" data-name="Rectángulo 455173" width="8.829" height="4.743" fill="none"/>
    </clipPath>
    <clipPath id="clip-path-5">
      <rect id="Rectángulo_455174" data-name="Rectángulo 455174" width="2.942" height="1.133" fill="none"/>
    </clipPath>
    <clipPath id="clip-path-6">
      <rect id="Rectángulo_455175" data-name="Rectángulo 455175" width="32.003" height="22.419" fill="none"/>
    </clipPath>
    <clipPath id="clip-path-7">
      <rect id="Rectángulo_455180" data-name="Rectángulo 455180" width="10.71" height="5.091" fill="none"/>
    </clipPath>
    <clipPath id="clip-path-8">
      <rect id="Rectángulo_455181" data-name="Rectángulo 455181" width="6.653" height="1.677" fill="none"/>
    </clipPath>
    <clipPath id="clip-path-9">
      <rect id="Rectángulo_455182" data-name="Rectángulo 455182" width="5.321" height="1.715" fill="none"/>
    </clipPath>
    <clipPath id="clip-path-10">
      <rect id="Rectángulo_455183" data-name="Rectángulo 455183" width="5.492" height="1.715" fill="none"/>
    </clipPath>
  </defs>
  <g id="Grupo_1177895" data-name="Grupo 1177895" transform="translate(-498.371 -8877.84)">
    <g id="Grupo_1177784" data-name="Grupo 1177784">
      <rect id="Rectángulo_454990" data-name="Rectángulo 454990" width="416" height="318.232" transform="translate(498.371 8877.84)" fill="#dda499"/>
      <g id="Grupo_1177783" data-name="Grupo 1177783" transform="translate(514 8943.038)">
        <g id="Grupo_1177782" data-name="Grupo 1177782" clip-path="url(#clip-path)">
          <g id="Grupo_1177781" data-name="Grupo 1177781">
            <g id="Grupo_1177780" data-name="Grupo 1177780" clip-path="url(#clip-path)">
              <path id="Trazado_999702" data-name="Trazado 999702" d="M110.3,16.705l.554-2.121a6.382,6.382,0,0,0-3.061-7.2C102.086,4.223,94.43,2.656,89.062,1.9a6.871,6.871,0,0,0-7.7,5.436l-.007.038A49.029,49.029,0,0,1,92.969,8.718,45.264,45.264,0,0,1,110.3,16.705" transform="translate(60.296 1.358)" fill="#f7cc63"/>
              <path id="Trazado_999703" data-name="Trazado 999703" d="M128.188,31.046c-.8,3.392-3.16,6.183-6.585,8.21-2.18-.9-4.106-1.969-4.252-5.311-2.164-9.4-11.382-12.78-11.382-12.78-19.348-6.975-23.448,7.48-23.584,8,.113,2.265.289,5.227.555,8.385-10.012-5.2-16-13.233-14.276-20.537C70.4,9.631,79.526,5.1,90.981,5.016a49.111,49.111,0,0,1,11.614,1.342,45.17,45.17,0,0,1,17.332,7.99c6.27,4.886,9.6,11.013,8.262,16.7" transform="translate(50.673 3.716)" fill="#dbab23"/>
              <path id="Trazado_999704" data-name="Trazado 999704" d="M76.419,23.417s.8,13.353,1.981,18.636S77.006,59.226,92.734,60.5c10.565.857,20.377-3.406,25.679-6.3A5.428,5.428,0,0,0,120.9,47.49L113.422,28s-5.739-13.59-23.969-15.164c-12.7-1.1-13.034,10.581-13.034,10.581" transform="translate(56.639 9.46)" fill="#84462a"/>
              <path id="Trazado_999705" data-name="Trazado 999705" d="M78.336,20.751S82.663,47.112,86.215,49,113.3,46.558,113.3,46.558s-9.38-13.686-10.511-21.66Z" transform="translate(58.059 15.38)" fill="#632e19"/>
              <path id="Trazado_999706" data-name="Trazado 999706" d="M131.374,97.3c.268,2.422-3.374,5.871-3.291,9.5.064,2.871,3.9,6.01,3.836,9.259-.059,3.042-4.008,6.023-4.191,9.11-.188,3.178,3.376,6.632,3.047,9.561-.381,3.4-4.635,5.9-5.22,8.519-1.031,4.621-.31,9.994-2.042,10.186s-2.133-5.2-4.059-9.519c-1.088-2.443-5.749-4.036-6.8-7.28-.9-2.793,1.9-6.879,1.086-9.945-.794-2.976-5.258-5.091-5.93-8.048-.719-3.157,2.4-7,1.874-9.818-.665-3.555-4.947-6.145-5.215-8.56-.225-2.049,3.458-4.55,3.4-6.895-.047-2.163-3.853-4.449-3.754-6.7.1-2.234,4.088-4.175,4.332-6.34.259-2.307-3.181-5.133-2.76-7.179.5-2.432,4.769-3.495,5.5-5.269,1.144-2.765.585-7.179,2.284-7.365s2.154,4.25,3.914,6.684c1.128,1.562,5.53,1.609,6.587,3.862.89,1.9-1.8,5.453-1.01,7.644.738,2.058,5.07,3.037,5.68,5.2.613,2.176-2.57,5.274-2.129,7.4.479,2.307,4.626,3.938,4.853,5.993" transform="translate(77.169 44.852)" fill="#f2a120"/>
              <path id="Trazado_999707" data-name="Trazado 999707" d="M122.561,99.955c.925,2.173-1.2,6.27-.153,9.644.829,2.664,4.912,4.68,5.7,7.738.74,2.862-1.847,6.6-1.229,9.536.639,3.028,4.513,5.434,4.931,8.265.488,3.289-2.565,6.632-2.511,9.24.094,4.443,1.807,9.1.084,9.829s-3.818-3.742-6.878-6.952c-1.79-1.88-6.3-2.089-8.267-4.755-1.691-2.291-.632-6.717-2.311-9.3-1.628-2.507-6.092-3.312-7.588-5.847-1.6-2.708-.138-7.013-1.443-9.467-1.651-3.1-6.054-4.433-6.975-6.6-.79-1.854,1.628-5.093.947-7.29-.625-2.023-4.454-3.275-4.943-5.427-.484-2.136,2.425-4.917,2.117-7.031-.327-2.25-3.9-4.135-3.98-6.183-.091-2.424,3.36-4.405,3.7-6.265.5-2.742-.815-6.562.843-7.268s3.536,2.889,5.89,4.4c1.6,1.027,5.408-.141,7.125,1.583,1.454,1.459.4,5.366,1.828,7.149,1.341,1.675,5.366,1.457,6.6,3.28s-.467,5.49.576,7.342c1.133,2.018,5.15,2.512,5.943,4.376" transform="translate(66.75 53.164)" fill="#7f7f18"/>
              <path id="Trazado_999708" data-name="Trazado 999708" d="M124.438,122.041c.2,1.776-3.113,4.288-3.193,6.994-.063,2.126,3.158,4.665,2.927,7.064-.214,2.244-3.853,4.123-4.214,6.385-.373,2.333,2.485,5.29,1.959,7.407-.609,2.46-4.5,3.6-5.316,5.427-1.254,2.814-1.017,7.019-2.744,7.208s-2.345-3.949-4.1-6.453c-1.137-1.621-5.166-1.985-6.225-4.269-.911-1.962,1.341-5.392.535-7.6-.778-2.133-4.7-3.263-5.345-5.408-.684-2.29,1.981-5.4,1.5-7.454-.611-2.612-4.362-4.362-4.557-6.131-.171-1.558,3.145-3.409,3.207-5.213.059-1.649-3.146-3.663-2.9-5.373.244-1.691,3.883-2.718,4.3-4.337.442-1.713-2.211-4.43-1.584-5.911.726-1.717,4.436-1.5,5.4-2.676,1.224-1.5,1.139-5.211,2.714-5.385s2.333,3.475,3.89,4.661c1.217.93,4.785-.148,5.9,1.355.97,1.3-.954,4.579-.113,6.148.8,1.485,4.581,1.631,5.218,3.228.646,1.618-2,4.332-1.56,5.932.481,1.757,4.128,2.831,4.3,4.4" transform="translate(70.897 71.383)" fill="#7f7f18"/>
              <path id="Trazado_999709" data-name="Trazado 999709" d="M113.932,110.89c1.405,2.4.108,7.231,1.9,10.975,1.414,2.963,5.972,4.842,7.435,8.255,1.37,3.193-.4,7.781.864,11.077,1.306,3.4,5.7,5.636,6.752,8.836,1.217,3.712-1.045,8.072-.392,11.074,1.158,5.333,3.738,10.262,2.072,11.239s-4.633-3.717-8.641-7.416c-2.248-2.074-7.144-2.324-9.721-5.243-2.222-2.516-1.924-7.433-4.186-10.266-2.2-2.749-7.046-3.522-9.111-6.3-2.2-2.97-1.536-7.847-3.388-10.548-2.337-3.406-7.163-4.661-8.565-7.059-1.187-2.03.6-5.883-.552-8.295-1.062-2.225-5.182-3.212-6.138-5.593s1.339-5.925.566-8.284c-.827-2.514-4.781-4.071-5.321-6.39-.644-2.758,2.276-5.775,2.168-7.959-.171-3.458-2.119-7.365-.474-8.328s4.134,2.641,7.1,4.447c1.875,1.142,5.929.023,8.049,1.908,1.786,1.588,1.268,5.81,3.085,7.743,1.708,1.816,5.936,1.52,7.557,3.5,1.635,1.992.519,6.082,1.955,8.095,1.56,2.183,5.8,2.5,6.993,4.539" transform="translate(57.372 59.665)" fill="#acaf1c"/>
              <path id="Trazado_999710" data-name="Trazado 999710" d="M142.769,125.263c-.933,2.3-5.4,3.846-7.113,7.141-1.355,2.6.054,7.046-1.611,9.919-1.56,2.688-6.106,3.67-7.806,6.333-1.753,2.742-.754,7.3-2.516,9.74-2.048,2.833-6.667,3.235-8.526,5.257-3.211,3.489-5.366,8.149-7.121,7.438s0-5.519.219-10.247c.129-2.728-2.836-6.282-2.265-9.719.491-2.955,4.43-5.441,5.14-8.6.688-3.068-1.825-6.972-1.024-9.963.853-3.2,4.988-5.328,5.861-8.119,1.1-3.529-1-7.743-.071-10.04.794-1.961,4.837-2.641,5.951-4.778,1.026-1.969-.768-5.641.446-7.609s5.29-1.994,6.6-3.806c1.4-1.929.205-5.852,1.633-7.454,1.692-1.9,5.64-1.033,7.228-2.21,2.394-1.776,4.208-5.486,5.91-4.8s.449,4.638.98,7.583c.353,1.955,3.827,4.033,3.761,6.585-.056,2.154-3.611,4.207-3.916,6.578-.287,2.229,2.655,5.069,2.187,7.325-.472,2.274-4.3,3.712-4.921,5.852-.674,2.326,1.769,5.627.972,7.595" transform="translate(78.531 62.006)" fill="#8e6d0e"/>
              <path id="Trazado_999711" data-name="Trazado 999711" d="M44.258,147.027s62.114-33.643,105.95-20.056S271.97,146.884,271.97,146.884Z" transform="translate(32.802 91.71)" fill="#6d390f"/>
              <g id="Grupo_1177758" data-name="Grupo 1177758" transform="translate(0 237.397)" opacity="0.4">
                <g id="Grupo_1177757" data-name="Grupo 1177757">
                  <g id="Grupo_1177756" data-name="Grupo 1177756" clip-path="url(#clip-path-3)">
                    <path id="Trazado_999712" data-name="Trazado 999712" d="M199.932,136.551c110.457-.984,200.031,1.628,200.068,5.831s-89.475,8.408-199.932,9.392S.037,150.146,0,145.943s89.475-8.408,199.932-9.392" transform="translate(0 -136.344)" fill="#6d390f"/>
                  </g>
                </g>
              </g>
              <path id="Trazado_999713" data-name="Trazado 999713" d="M97.2,36.074,80.537,72.2,60.043,52.843l-4.276,3.113L74.911,79.638a6.608,6.608,0,0,0,10.941-.989l12.171-22.3Z" transform="translate(41.332 26.737)" fill="#99c"/>
              <path id="Trazado_999714" data-name="Trazado 999714" d="M59.188,101.087c.268,2.422-3.374,5.871-3.291,9.5.064,2.871,3.9,6.01,3.836,9.259-.059,3.042-4.008,6.023-4.191,9.11-.188,3.178,3.376,6.632,3.047,9.561-.381,3.4-4.635,5.9-5.22,8.52-1.031,4.621-.31,9.994-2.042,10.186s-2.133-5.2-4.059-9.519c-1.088-2.443-5.749-4.036-6.8-7.28-.9-2.793,1.9-6.879,1.086-9.946-.794-2.976-5.258-5.091-5.93-8.048-.719-3.157,2.4-7,1.873-9.818-.665-3.555-4.947-6.145-5.215-8.56-.225-2.049,3.458-4.55,3.4-6.895-.047-2.163-3.853-4.449-3.754-6.7.1-2.234,4.088-4.175,4.332-6.34.259-2.307-3.181-5.133-2.76-7.179.5-2.432,4.769-3.495,5.5-5.269,1.144-2.765.585-7.179,2.284-7.365s2.154,4.25,3.914,6.684c1.128,1.562,5.53,1.609,6.587,3.862.89,1.9-1.8,5.453-1.01,7.644.738,2.058,5.072,3.037,5.68,5.2.613,2.176-2.57,5.274-2.129,7.4.479,2.307,4.626,3.939,4.853,5.993" transform="translate(23.668 47.66)" fill="#f2a120"/>
              <path id="Trazado_999715" data-name="Trazado 999715" d="M50.376,103.744c.923,2.173-1.2,6.27-.155,9.644.829,2.664,4.912,4.68,5.7,7.738.74,2.862-1.847,6.6-1.229,9.536.639,3.028,4.513,5.434,4.931,8.265.488,3.289-2.565,6.632-2.511,9.24.094,4.443,1.807,9.1.084,9.829s-3.818-3.742-6.878-6.952c-1.79-1.88-6.3-2.089-8.267-4.755-1.689-2.291-.632-6.717-2.311-9.3-1.628-2.507-6.091-3.312-7.588-5.847-1.6-2.707-.138-7.013-1.443-9.467-1.651-3.1-6.054-4.433-6.973-6.6-.792-1.854,1.626-5.093.945-7.29-.625-2.023-4.452-3.275-4.941-5.427-.484-2.136,2.424-4.917,2.116-7.031-.327-2.25-3.9-4.135-3.979-6.183-.091-2.425,3.36-4.405,3.695-6.265.5-2.742-.815-6.562.844-7.268s3.535,2.889,5.89,4.4c1.6,1.027,5.408-.141,7.123,1.583,1.454,1.459.4,5.366,1.828,7.149,1.341,1.675,5.366,1.457,6.6,3.28,1.241,1.839-.467,5.492.576,7.344,1.133,2.016,5.15,2.511,5.944,4.374" transform="translate(13.25 55.973)" fill="#7f7f18"/>
              <path id="Trazado_999716" data-name="Trazado 999716" d="M52.253,125.829c.2,1.776-3.113,4.288-3.193,6.994-.063,2.126,3.158,4.665,2.927,7.064-.214,2.244-3.853,4.123-4.214,6.385-.373,2.333,2.485,5.29,1.961,7.407-.611,2.46-4.5,3.6-5.318,5.427-1.254,2.814-1.017,7.019-2.742,7.208s-2.347-3.949-4.1-6.453c-1.137-1.621-5.166-1.985-6.225-4.269-.909-1.962,1.341-5.392.536-7.6-.78-2.133-4.7-3.263-5.347-5.408-.684-2.29,1.983-5.4,1.5-7.454-.611-2.612-4.362-4.362-4.557-6.129-.172-1.558,3.145-3.411,3.207-5.215.059-1.649-3.146-3.662-2.9-5.373.244-1.691,3.883-2.716,4.3-4.336.442-1.715-2.211-4.431-1.584-5.913.726-1.717,4.436-1.5,5.4-2.676,1.224-1.5,1.139-5.211,2.714-5.385s2.333,3.475,3.89,4.663c1.217.93,4.785-.15,5.9,1.353.97,1.3-.954,4.579-.113,6.148.8,1.485,4.581,1.633,5.218,3.228.646,1.618-2,4.332-1.56,5.932.481,1.757,4.128,2.831,4.3,4.4" transform="translate(17.397 74.19)" fill="#7f7f18"/>
              <path id="Trazado_999717" data-name="Trazado 999717" d="M41.747,114.679c1.407,2.4.108,7.231,1.9,10.975,1.414,2.962,5.972,4.842,7.435,8.253,1.37,3.2-.4,7.783.864,11.079,1.306,3.4,5.7,5.636,6.752,8.836,1.217,3.712-1.045,8.072-.392,11.072,1.158,5.335,3.738,10.264,2.072,11.239s-4.633-3.716-8.641-7.414c-2.248-2.074-7.144-2.324-9.721-5.244-2.222-2.514-1.924-7.431-4.186-10.264-2.2-2.751-7.046-3.522-9.111-6.3-2.2-2.972-1.536-7.849-3.388-10.548-2.337-3.407-7.163-4.663-8.565-7.06-1.187-2.028.6-5.882-.55-8.295-1.064-2.225-5.182-3.211-6.139-5.593-.951-2.366,1.341-5.923.566-8.284-.825-2.514-4.779-4.069-5.321-6.39-.644-2.756,2.276-5.775,2.168-7.959-.171-3.458-2.119-7.365-.474-8.326s4.134,2.64,7.1,4.445c1.873,1.142,5.927.023,8.048,1.908,1.786,1.59,1.269,5.81,3.087,7.745,1.706,1.814,5.934,1.518,7.557,3.495,1.633,1.992.517,6.082,1.955,8.095,1.558,2.185,5.8,2.506,6.991,4.541" transform="translate(3.872 62.473)" fill="#acaf1c"/>
              <path id="Trazado_999718" data-name="Trazado 999718" d="M70.584,129.051c-.933,2.3-5.4,3.846-7.113,7.14-1.355,2.6.054,7.046-1.611,9.919-1.56,2.688-6.106,3.67-7.806,6.333-1.753,2.742-.754,7.3-2.516,9.74-2.048,2.833-6.667,3.235-8.526,5.257-3.211,3.489-5.366,8.149-7.121,7.438s0-5.519.219-10.247c.129-2.728-2.836-6.282-2.265-9.717.491-2.956,4.43-5.443,5.14-8.6.688-3.07-1.825-6.972-1.024-9.965.853-3.193,4.988-5.328,5.861-8.119,1.1-3.528-1-7.743-.07-10.04.794-1.961,4.835-2.641,5.95-4.778,1.027-1.969-.768-5.64.447-7.607s5.288-2,6.6-3.806c1.4-1.931.207-5.854,1.633-7.456,1.692-1.9,5.64-1.033,7.228-2.21,2.4-1.776,4.208-5.486,5.91-4.8s.449,4.638.98,7.584c.353,1.955,3.829,4.031,3.763,6.583-.057,2.156-3.611,4.207-3.918,6.578-.286,2.229,2.655,5.07,2.187,7.325-.472,2.276-4.3,3.712-4.919,5.852-.674,2.326,1.767,5.627.97,7.595" transform="translate(25.03 64.813)" fill="#8e6d0e"/>
              <path id="Trazado_999719" data-name="Trazado 999719" d="M98.1,42.118l.689,8.07-4.043.442c-1.665-.035-3.225-.122-4.649-.237.689-2.546-.449-5.5-.829-6.378-12.69-4.457-10.938-23.835-10.938-23.835.35-13.168,23.22-2.845,23.22-2.845,3.207,14.753-.044,21.611-3.451,24.782" transform="translate(57.991 9.996)" fill="#66361d"/>
              <path id="Trazado_999720" data-name="Trazado 999720" d="M92.494,37.575A13.161,13.161,0,0,1,90.3,45a12.845,12.845,0,0,0-1.036-4.248C78.295,36.9,78.115,21.894,78.27,17.9c5.176,4.193,14.452,12.7,14.224,19.679" transform="translate(57.991 13.264)" fill="#562a17"/>
              <path id="Trazado_999721" data-name="Trazado 999721" d="M94.715,38.44,90.1,38.7l-4.927.542a5.552,5.552,0,0,0,.279-.78c.691-2.546-.447-5.5-.827-6.376-.071-.165-.115-.256-.115-.256L93.4,29.584l.05.6Z" transform="translate(62.634 21.926)" fill="#f9b5a5"/>
              <g id="Grupo_1177761" data-name="Grupo 1177761" transform="translate(147.255 52.115)" opacity="0.2">
                <g id="Grupo_1177760" data-name="Grupo 1177760">
                  <g id="Grupo_1177759" data-name="Grupo 1177759" clip-path="url(#clip-path-4)">
                    <path id="Trazado_999722" data-name="Trazado 999722" d="M93.4,29.931s-1.276,6.347-8.048,4.356c0,0-.4-1.407-.782-2.448Z" transform="translate(-84.573 -29.931)" fill="#223243"/>
                  </g>
                </g>
              </g>
              <path id="Trazado_999723" data-name="Trazado 999723" d="M98.083,42.394a8.45,8.45,0,0,1-5.262,2.418,15.8,15.8,0,0,1-3.555-.8c-12.691-4.457-10.94-23.835-10.94-23.835.35-13.17,23.22-2.845,23.22-2.845,3.817,14.852-.056,21.886-3.463,25.057" transform="translate(57.991 9.996)" fill="#f9b5a5"/>
              <path id="Trazado_999724" data-name="Trazado 999724" d="M87.72,21.2c.129,1.59.857,2.828,1.624,2.765s1.283-1.4,1.149-2.993-.857-2.828-1.624-2.765-1.281,1.4-1.149,2.993" transform="translate(64.999 13.493)" fill="#223243"/>
              <path id="Trazado_999725" data-name="Trazado 999725" d="M80.661,21.524c.131,1.59.858,2.828,1.624,2.765s1.283-1.4,1.151-2.993-.858-2.828-1.625-2.765-1.281,1.4-1.151,2.993" transform="translate(59.767 13.733)" fill="#223243"/>
              <g id="Grupo_1177764" data-name="Grupo 1177764" transform="translate(145.429 40.562)" opacity="0.63">
                <g id="Grupo_1177763" data-name="Grupo 1177763">
                  <g id="Grupo_1177762" data-name="Grupo 1177762" clip-path="url(#clip-path-5)">
                    <path id="Trazado_999726" data-name="Trazado 999726" d="M86.466,24.363s-2.659-1.813-2.925-.714,2.925.714,2.925.714" transform="translate(-83.524 -23.296)" fill="#223243"/>
                  </g>
                </g>
              </g>
              <path id="Trazado_999727" data-name="Trazado 999727" d="M83.84,24.6a1.905,1.905,0,1,1-2.055-1.743A1.906,1.906,0,0,1,83.84,24.6" transform="translate(59.32 16.937)" fill="#f49889"/>
              <path id="Trazado_999728" data-name="Trazado 999728" d="M91.718,23.952a1.906,1.906,0,1,1-2.055-1.743,1.907,1.907,0,0,1,2.055,1.743" transform="translate(65.157 16.455)" fill="#f49889"/>
              <path id="Trazado_999729" data-name="Trazado 999729" d="M84.718,18.61a.244.244,0,0,1-.174-.075c-1.395-1.492-4.161-.538-4.189-.528a.238.238,0,1,1-.158-.449c.124-.044,3.087-1.069,4.7.651a.238.238,0,0,1-.174.4" transform="translate(59.32 12.759)" fill="#223243"/>
              <path id="Trazado_999730" data-name="Trazado 999730" d="M91.745,17.031a.228.228,0,0,1-.188.016c-1.94-.644-3.914,1.515-3.935,1.536a.237.237,0,0,1-.353-.317c.089-.1,2.2-2.413,4.438-1.67a.239.239,0,0,1,.038.435" transform="translate(64.634 12.191)" fill="#223243"/>
              <path id="Trazado_999731" data-name="Trazado 999731" d="M107.421,80.635l.7,4.489-24.6.9-5.4-.139a74.236,74.236,0,0,0,2.133-14.711l-.312-5.7-.009-.016s-8.619-5.476-4.466-14.056a.8.8,0,0,1,.061-.122,126.606,126.606,0,0,1,8.648-15.2,1.48,1.48,0,0,1,1.177-.653l1.6-.059,3.54-.131,11.506-.423.111-.261,3.618-.287h.019l1.713.256,3.078,24.836-2.678,4.285-.251.428c-.261,4.527-.895,5.558-.895,5.558Z" transform="translate(55.099 25.4)" fill="#99c"/>
              <path id="Trazado_999732" data-name="Trazado 999732" d="M93.178,34.737s8.937-1.9,10.564,2.683l9.326,34.616s2.175,5.483-2.734,7.174C103.693,81.5,98.462,48.64,98.462,48.64L96.585,59.355Z" transform="translate(69.06 25.455)" fill="#99c"/>
              <path id="Trazado_999733" data-name="Trazado 999733" d="M82.419,26.259l10.954-.623-10.954.623a11.681,11.681,0,0,0,1.889,3.061l.994-.3a5.4,5.4,0,0,0,5.566-.289l1.116-.063a6.3,6.3,0,0,0,1.388-3.028c-6.428,4.578-10.954.623-10.954.623" transform="translate(61.086 19)" fill="#e2675a"/>
              <path id="Trazado_999734" data-name="Trazado 999734" d="M83.535,27.785a4.894,4.894,0,0,0,1.287,1.026,5.258,5.258,0,0,1-1.287-1.026" transform="translate(61.913 20.593)" fill="#e2675a"/>
              <path id="Trazado_999735" data-name="Trazado 999735" d="M84.479,28.473c-.054-.026-.108-.05-.162-.078.054.026.108.054.162.078" transform="translate(62.492 21.045)" fill="#e2675a"/>
              <path id="Trazado_999736" data-name="Trazado 999736" d="M93.374,25.636h0l-10.954.623s4.525,3.954,10.954-.623" transform="translate(61.086 19)" fill="#fff"/>
              <path id="Trazado_999737" data-name="Trazado 999737" d="M84.5,27.727l-.994.3,0,0c.017.021.037.037.057.057a5.263,5.263,0,0,0,1.288,1.024c.024.014.049.024.073.037q.081.042.162.078c3.1,1.463,6.1-1.854,6.1-1.854l-1.116.063a5.4,5.4,0,0,1-5.566.289" transform="translate(61.888 20.289)" fill="#fff"/>
              <path id="Trazado_999738" data-name="Trazado 999738" d="M109.786,137.439s7.915-27.7,5.044-37.712A66.886,66.886,0,0,0,110.338,88.3l-2.42-7.659-.7-10.98c-5.126-3.044-3.409-18.61-3.409-18.61l2.864-16.781h-3.928l-4.13,16.867-13.475.54L91,35.205l-3.488.005-.052-.143L78.9,50.691H76.03c-.023,0-.042.376-.059.418-4.154,8.582,4.466,14.206,4.466,14.206a.682.682,0,0,0,.009.089l.2,5.737c-.1,3.343-1.416,10.652-3.113,17.168v0c-1.133,4.753-5.8,5.589-2.955,28.407l.689,20.875v12.106l2.756,46.177,14.02-.232-2.732-47.107.374-6.444L94.516,114.3V159.55L98,195.794l14.083-.153-6.27-36.087Z" transform="translate(54.602 25.4)" fill="#12223f"/>
              <path id="Trazado_999739" data-name="Trazado 999739" d="M100.407,152.258,66.5,156.78s-.312-4.922.312-5.9c1.785-2.8,8.023-5.006,12.439-6.263a5.533,5.533,0,0,0,3.977-6.054l-3.014-22.454,7.241-.373,10.863-.559Z" transform="translate(49.228 85.368)" fill="#785f44"/>
              <path id="Trazado_999740" data-name="Trazado 999740" d="M66.455,138.973s21.119-.472,25.778-2.18c1.139-.416,8.145-.507,8.145-.507l.118,3.571H92.55l-.155-1.066a19.209,19.209,0,0,0-6.1,1.562l-19.841.785Z" transform="translate(49.254 101.01)" fill="#49331d"/>
              <path id="Trazado_999741" data-name="Trazado 999741" d="M83.25,146.725c-6.557.7-16.605,3.921-16.605,3.921,1.783-2.8,8.023-5.006,12.437-6.263a5.532,5.532,0,0,0,3.977-6.054l-3.012-22.454,7.241-.373s2.514,30.524-4.038,31.222" transform="translate(49.395 85.606)" fill="#b57d4b"/>
              <path id="Trazado_999742" data-name="Trazado 999742" d="M111.373,152.258,77.464,156.78s-.312-4.922.312-5.9c1.785-2.8,8.023-5.006,12.439-6.263a5.533,5.533,0,0,0,3.977-6.054l-3.014-22.454,7.241-.373,10.863-.559Z" transform="translate(57.356 85.368)" fill="#785f44"/>
              <path id="Trazado_999743" data-name="Trazado 999743" d="M77.187,138.973s21.322-.472,25.982-2.18c1.139-.416,8.246-.507,8.246-.507l.219,3.571h-7.947l-.155-1.066a19.784,19.784,0,0,0-6.3,1.562l-20.044.785Z" transform="translate(57.208 101.01)" fill="#49331d"/>
              <path id="Trazado_999744" data-name="Trazado 999744" d="M94.215,146.725c-6.557.7-16.605,3.921-16.605,3.921,1.783-2.8,8.023-5.006,12.437-6.263a5.532,5.532,0,0,0,3.977-6.054l-3.012-22.454,7.241-.373s2.514,30.524-4.038,31.222" transform="translate(57.521 85.606)" fill="#b57d4b"/>
              <g id="Grupo_1177767" data-name="Grupo 1177767" transform="translate(135.039 75.072)" opacity="0.2">
                <g id="Grupo_1177766" data-name="Grupo 1177766">
                  <g id="Grupo_1177765" data-name="Grupo 1177765" clip-path="url(#clip-path-6)">
                    <path id="Trazado_999745" data-name="Trazado 999745" d="M77.557,58.887s22.583,6.989,28.158-8.45l3.844-7.322s-4.9,19.489-9.1,21.462-21.717,1.275-22.9-5.69" transform="translate(-77.557 -43.116)" fill="#5a7791"/>
                  </g>
                </g>
              </g>
              <path id="Trazado_999746" data-name="Trazado 999746" d="M119.3,86.3v33.052c0,1.658-6.928,3.212-15.738,3.212s-15.972-1.557-15.972-3.212V86.3Z" transform="translate(64.92 63.965)" fill="#32bfce"/>
              <path id="Trazado_999747" data-name="Trazado 999747" d="M119.724,88.231c0,1.658-7.193,3-16.066,3s-16.066-1.344-16.066-3,7.194-3,16.066-3,16.066,1.342,16.066,3" transform="translate(64.92 63.168)" fill="#268b9b"/>
              <path id="Trazado_999748" data-name="Trazado 999748" d="M118.563,96.56a.931.931,0,0,1-.932-.932V90.859a13.763,13.763,0,0,0-13.748-13.748h-.493A13.765,13.765,0,0,0,89.64,90.859v4.769a.931.931,0,1,1-1.861,0V90.859a15.628,15.628,0,0,1,15.609-15.611h.493a15.629,15.629,0,0,1,15.611,15.611v4.769a.928.928,0,0,1-.93.932" transform="translate(65.058 55.771)" fill="#147484"/>
              <path id="Trazado_999749" data-name="Trazado 999749" d="M109.232,87.686c0,.97-4.288,1.755-9.578,1.755s-9.578-.785-9.578-1.755,4.288-1.755,9.578-1.755,9.578.785,9.578,1.755" transform="translate(66.761 63.689)" fill="#1a7584"/>
              <path id="Trazado_999750" data-name="Trazado 999750" d="M119.3,115.236V118.3c0,1.658-6.928,3.212-15.738,3.212s-15.972-1.555-15.972-3.212V87.729c1.7,5.37,9.061,22.451,31.71,27.507" transform="translate(64.92 65.021)" fill="#32acb2"/>
              <path id="Trazado_999751" data-name="Trazado 999751" d="M100.464,109.1h0a1.758,1.758,0,0,1-2.432.488L76.446,95.217A1.755,1.755,0,0,1,78.391,92.3l21.585,14.372a1.76,1.76,0,0,1,.488,2.432" transform="translate(56.08 68.189)" fill="#279cb7"/>
              <path id="Trazado_999752" data-name="Trazado 999752" d="M79.331,87.638a7.085,7.085,0,1,1-7.853,11.795c-.1-.068-.2-.134-.3-.2h0l-.294-.2,0,0c-.629-1.17.131-3.961,2.168-7.02s4.49-5.095,5.64-4.7h0l.294.2,0,0c.1.064.247.063.348.131" transform="translate(52.372 64.675)" fill="#1d8b9e"/>
              <path id="Trazado_999753" data-name="Trazado 999753" d="M78.9,87.421c.033.023.054.063.084.084l0,0c1.024.681.042,3.925-2.063,7.087s-4.548,5.06-5.744,4.64v0c-.031-.021-.078-.023-.111-.045-.066-.044-.12-.106-.185-.15l0,0c-.629-1.17.131-3.961,2.168-7.02s4.492-5.095,5.64-4.7h0c.063.044.143.068.209.111" transform="translate(52.372 64.675)" fill="#14727c"/>
              <path id="Trazado_999754" data-name="Trazado 999754" d="M72.039,91.758c.071.047.009.268-.141.493s-.327.366-.4.319-.009-.268.139-.493.329-.366.4-.319" transform="translate(52.97 68.001)" fill="#115154"/>
              <path id="Trazado_999755" data-name="Trazado 999755" d="M71.592,92.914c.071.047.009.268-.141.493s-.327.366-.4.319-.009-.268.139-.493.329-.367.4-.319" transform="translate(52.638 68.857)" fill="#115154"/>
              <path id="Trazado_999756" data-name="Trazado 999756" d="M72.6,92.615c.071.047.009.268-.141.493s-.327.366-.4.319-.009-.268.139-.493.329-.366.4-.319" transform="translate(53.384 68.636)" fill="#115154"/>
              <path id="Trazado_999757" data-name="Trazado 999757" d="M72.784,91.609c.071.047.009.268-.141.493s-.327.366-.4.319-.009-.268.139-.493.329-.366.4-.319" transform="translate(53.522 67.89)" fill="#115154"/>
              <path id="Trazado_999758" data-name="Trazado 999758" d="M72.6,90.677c.071.047.009.268-.141.493s-.327.366-.4.319-.009-.268.139-.493.329-.367.4-.319" transform="translate(53.383 67.199)" fill="#115154"/>
              <path id="Trazado_999759" data-name="Trazado 999759" d="M73.268,90.155c.071.047.009.268-.141.493s-.327.366-.4.319-.009-.268.139-.493.329-.366.4-.319" transform="translate(53.881 66.812)" fill="#115154"/>
              <path id="Trazado_999760" data-name="Trazado 999760" d="M74.349,90.713c.071.047.009.268-.141.493s-.327.366-.4.319-.009-.268.139-.493.329-.366.4-.319" transform="translate(54.682 67.226)" fill="#115154"/>
              <path id="Trazado_999761" data-name="Trazado 999761" d="M73.566,90.677c.071.047.009.268-.141.493s-.327.366-.4.319-.009-.268.139-.493.329-.367.4-.319" transform="translate(54.101 67.199)" fill="#115154"/>
              <path id="Trazado_999762" data-name="Trazado 999762" d="M73.753,91.608c.071.047.009.268-.141.493s-.327.366-.4.319-.009-.268.139-.493.329-.367.4-.319" transform="translate(54.24 67.889)" fill="#115154"/>
              <path id="Trazado_999763" data-name="Trazado 999763" d="M73.994,89.064c.071.047.251-.1.4-.319s.211-.446.139-.493-.251.1-.4.319-.212.444-.141.493" transform="translate(54.819 65.403)" fill="#115154"/>
              <path id="Trazado_999764" data-name="Trazado 999764" d="M74.888,88.207c.071.047.251-.1.4-.319s.211-.446.139-.493-.251.1-.4.319-.212.446-.141.493" transform="translate(55.482 64.768)" fill="#115154"/>
              <path id="Trazado_999765" data-name="Trazado 999765" d="M75,89.25c.071.047.251-.1.4-.319s.211-.446.139-.493-.251.1-.4.319-.212.446-.141.493" transform="translate(55.565 65.541)" fill="#115154"/>
              <path id="Trazado_999766" data-name="Trazado 999766" d="M74.143,89.81c.071.047.251-.1.4-.319s.212-.446.141-.493-.251.1-.4.319-.212.444-.141.493" transform="translate(54.93 65.956)" fill="#115154"/>
              <path id="Trazado_999767" data-name="Trazado 999767" d="M73.212,90c.07.047.249-.1.4-.319s.211-.446.139-.493-.251.1-.4.319-.211.446-.139.493" transform="translate(54.239 66.094)" fill="#115154"/>
              <path id="Trazado_999768" data-name="Trazado 999768" d="M72.429,90.444c.071.047.251-.1.4-.319s.211-.446.139-.493-.251.1-.4.319-.212.446-.141.493" transform="translate(53.659 66.426)" fill="#115154"/>
              <path id="Trazado_999769" data-name="Trazado 999769" d="M73.734,90.667c.071.047.251-.1.4-.319s.212-.446.139-.493-.251.1-.4.319-.212.446-.141.493" transform="translate(54.626 66.591)" fill="#115154"/>
              <path id="Trazado_999770" data-name="Trazado 999770" d="M74.517,90.7c.07.047.249-.1.4-.319s.211-.446.139-.493-.251.1-.4.319-.211.446-.139.493" transform="translate(55.207 66.618)" fill="#115154"/>
              <path id="Trazado_999771" data-name="Trazado 999771" d="M94.509,93.924,81.816,98.571a1.046,1.046,0,1,1-.719-1.964L93.79,91.96a1.046,1.046,0,0,1,.719,1.964" transform="translate(59.597 68.11)" fill="#1f899b"/>
              <path id="Trazado_999772" data-name="Trazado 999772" d="M100.612,58.835,99.242,88.62l5.525,1.628s6.176-24.643,4.351-31.412-8.345-3.5-8.506,0" transform="translate(73.554 40.684)" fill="#99c"/>
              <path id="Trazado_999773" data-name="Trazado 999773" d="M100.989,74.263l-4.1,5.587,1.365,3.259,3.474.667a3.485,3.485,0,0,0,4.109-2.948l.679-4.936Z" transform="translate(71.809 55.041)" fill="#f9b5a5"/>
              <rect id="Rectángulo_455176" data-name="Rectángulo 455176" width="4.339" height="114.008" transform="translate(90.606 102.553)" fill="#4f2a09"/>
              <path id="Trazado_999774" data-name="Trazado 999774" d="M61.433,155.829H58.516a14.258,14.258,0,0,1-14.258-14.257V116.8H75.689v24.771a14.257,14.257,0,0,1-14.257,14.257" transform="translate(32.802 86.568)" fill="#f9c73a"/>
              <rect id="Rectángulo_455177" data-name="Rectángulo 455177" width="10.842" height="5.232" transform="translate(87.356 99.936)" fill="#a86935"/>
              <path id="Trazado_999775" data-name="Trazado 999775" d="M72.69,66.648H46.649a1.981,1.981,0,0,1-1.981-1.981V50.227a1.983,1.983,0,0,1,1.981-1.981H72.69a1.981,1.981,0,0,1,1.981,1.981V64.667a1.98,1.98,0,0,1-1.981,1.981M48.633,62.685H70.709V52.211H48.633Z" transform="translate(33.106 35.758)" fill="#d6a221"/>
              <path id="Trazado_999776" data-name="Trazado 999776" d="M50.918,116.548l4.12,23.506,4.233-23.506Z" transform="translate(37.739 86.381)" fill="#b58e1f"/>
              <path id="Trazado_999777" data-name="Trazado 999777" d="M63.338,45.771s-8.607.689-10.727,2.768c-.982.963-1.32,2.692-1.4,4.271a3.306,3.306,0,0,0,3.313,3.454h3.026a3.318,3.318,0,0,0,2.591-1.247l3.2-4Z" transform="translate(37.954 33.924)" fill="#f9b5a5"/>
              <path id="Trazado_999778" data-name="Trazado 999778" d="M21.673,142.4a5.187,5.187,0,0,1,1.835-1.06c3.73-1.234,16.8-5.666,24.239-9.559,8.734-4.576,10.09-9.791,41.776,14.612l33,4.008H12.71Z" transform="translate(9.42 94.807)" fill="#4f2a09"/>
              <path id="Trazado_999779" data-name="Trazado 999779" d="M38.554,131.066l7.63,10.868s11.875-1.513,18.018,1.774c0,0-14.123-15.965-25.647-12.643" transform="translate(28.575 96.803)" fill="#6d390f"/>
              <rect id="Rectángulo_455178" data-name="Rectángulo 455178" width="6.512" height="11.183" transform="translate(89.506 192.125)" fill="#f9c73a"/>
              <path id="Trazado_999780" data-name="Trazado 999780" d="M78.244,17.919s7.489,2.427,12.136,0c0,0-3.324-1.907-2.925-3.879l13,4.419s-1.334,6.608,3.792,10.8l-1.121-11.295s-18.357-11.6-24.881-.04" transform="translate(57.991 9.48)" fill="#84462a"/>
              <path id="Trazado_999781" data-name="Trazado 999781" d="M92.379,22.716s1.964-4.013,3.286-1.936.023,6.35-3.28,6.911Z" transform="translate(68.468 14.959)" fill="#f9b5a5"/>
              <path id="Trazado_999782" data-name="Trazado 999782" d="M198.613,64.22l3.865,1.181-3.6,7.181-1.417-.434Z" transform="translate(146.35 47.597)" fill="#b28318"/>
              <path id="Trazado_999783" data-name="Trazado 999783" d="M197.86,80.849l-.848-.259a4.328,4.328,0,0,1-2.875-5.4l2.2-7.193,9.127,2.788-2.2,7.193a4.329,4.329,0,0,1-5.4,2.875" transform="translate(143.746 50.394)" fill="#eaad26"/>
              <path id="Trazado_999784" data-name="Trazado 999784" d="M199.4,72.748h0a2.408,2.408,0,0,1-1.595-3l3.122-10.219a2.4,2.4,0,0,1,4.591,1.4l-3.122,10.217a2.408,2.408,0,0,1-3,1.595" transform="translate(146.524 42.865)" fill="#4f2a09"/>
              <path id="Trazado_999785" data-name="Trazado 999785" d="M195.319,67.994l6.93,9.98,2.2-7.193Z" transform="translate(144.763 50.394)" fill="#f9c04e"/>
              <path id="Trazado_999786" data-name="Trazado 999786" d="M161.967,104.632,146.488,76.025l3.677-20.473,3.345-19.478L157.243,74.7,170,103.06Z" transform="translate(108.571 26.737)" fill="#7474a8"/>
              <path id="Trazado_999787" data-name="Trazado 999787" d="M155.378,76.118l3.663,9.575,11.836-1.074-2.149-5.556-5.318-4.517Z" transform="translate(115.16 55.251)" fill="#cc745c"/>
              <path id="Trazado_999788" data-name="Trazado 999788" d="M184.381,146.032a1.991,1.991,0,0,1-.2-.009l-10.98-.851a2.633,2.633,0,0,1-2.429-2.6l-.345-32.673a2.732,2.732,0,0,1,2.6-2.786h.03a2.744,2.744,0,0,1,2.631,2.73l.32,30.2,6.744.554,14.523-31.712a2.635,2.635,0,0,1,4.788,2.2l-15.289,33.4a2.631,2.631,0,0,1-2.392,1.539" transform="translate(126.311 79.391)" fill="#a07712"/>
              <path id="Trazado_999789" data-name="Trazado 999789" d="M249.188,166.5a2.536,2.536,0,0,1-1.877-.825L218.766,134.6l-23.419-.542a2.55,2.55,0,0,1-2.312-1.618l-19.7-50.144H157.3a2.548,2.548,0,1,1,0-5.1h17.77a2.549,2.549,0,0,1,2.371,1.616L197.158,129l22.809.528a2.552,2.552,0,0,1,1.818.824l29.278,31.874a2.547,2.547,0,0,1-1.875,4.271" transform="translate(114.694 57.216)" fill="#c49718"/>
              <path id="Trazado_999790" data-name="Trazado 999790" d="M174.057,144.716q-.081,0-.162-.005l-13.811-.851a2.635,2.635,0,0,1-2.453-2.93l3.618-31.337a2.632,2.632,0,0,1,5.229.6l-3.3,28.579,9.441.583,18.43-30.815a2.632,2.632,0,1,1,4.518,2.7l-19.252,32.189a2.63,2.63,0,0,1-2.258,1.281" transform="translate(116.817 79.498)" fill="#f4c01e"/>
              <path id="Trazado_999791" data-name="Trazado 999791" d="M123.958,44.4c-1.264-6.507,2.305-12.754,8.932-12.754l29.676.117a8.19,8.19,0,0,1,8.288,8.765l-4.379,62.408,0-.033-.073.329L135.455,104.4H135.3Z" transform="translate(91.686 23.454)" fill="#8787af"/>
              <path id="Trazado_999792" data-name="Trazado 999792" d="M126.668,71.175s9.108-3.742,5.105-39.178l5.352-.381,2.633,24.077H157.11l-2.678-24.348h4.318s2.929,24.4,8.344,31.362l.063,43.4-37.167,2.864Z" transform="translate(93.881 23.231)" fill="#001c33"/>
              <rect id="Rectángulo_455179" data-name="Rectángulo 455179" width="10.71" height="8.382" transform="translate(232.029 46.834)" fill="#e89579"/>
              <g id="Grupo_1177770" data-name="Grupo 1177770" transform="translate(232.029 46.834)" opacity="0.5">
                <g id="Grupo_1177769" data-name="Grupo 1177769">
                  <g id="Grupo_1177768" data-name="Grupo 1177768" clip-path="url(#clip-path-7)">
                    <path id="Trazado_999793" data-name="Trazado 999793" d="M133.26,26.9v2.286a18.555,18.555,0,0,0,10.71,2.8V26.9Z" transform="translate(-133.262 -26.898)" fill="#a1b3c4"/>
                  </g>
                </g>
              </g>
              <path id="Trazado_999794" data-name="Trazado 999794" d="M144.465,43.186h-4.882a10.656,10.656,0,0,1-10.626-10.625v-15.6A10.656,10.656,0,0,1,139.582,6.34h4.882a10.656,10.656,0,0,1,10.623,10.625v15.6a10.656,10.656,0,0,1-10.623,10.625" transform="translate(95.577 4.699)" fill="#e89579"/>
              <path id="Trazado_999795" data-name="Trazado 999795" d="M129.988,14.121c1.833,0,3.32,1.884,3.32,4.208s-1.487,4.208-3.32,4.208-3.32-1.884-3.32-4.208,1.487-4.208,3.32-4.208" transform="translate(93.881 10.466)" fill="#e89579"/>
              <path id="Trazado_999796" data-name="Trazado 999796" d="M133.738,12.805c.75,0,1.36,1.264,1.36,2.822s-.609,2.821-1.36,2.821-1.36-1.264-1.36-2.821.609-2.822,1.36-2.822" transform="translate(98.113 9.491)" fill="#223243"/>
              <path id="Trazado_999797" data-name="Trazado 999797" d="M139.249,15.627c0,1.558.609,2.821,1.36,2.821s1.36-1.262,1.36-2.821-.608-2.822-1.36-2.822-1.36,1.264-1.36,2.822" transform="translate(103.206 9.491)" fill="#223243"/>
              <g id="Grupo_1177773" data-name="Grupo 1177773" transform="translate(235.817 33.385)" opacity="0.51">
                <g id="Grupo_1177772" data-name="Grupo 1177772">
                  <g id="Grupo_1177771" data-name="Grupo 1177771" clip-path="url(#clip-path-8)">
                    <path id="Trazado_999798" data-name="Trazado 999798" d="M135.437,19.174h6.655s-1.584,3.775-6.655,0" transform="translate(-135.437 -19.174)" fill="#223243"/>
                  </g>
                </g>
              </g>
              <g id="Grupo_1177776" data-name="Grupo 1177776" transform="translate(230.979 19.485)" opacity="0.87">
                <g id="Grupo_1177775" data-name="Grupo 1177775">
                  <g id="Grupo_1177774" data-name="Grupo 1177774" clip-path="url(#clip-path-9)">
                    <path id="Trazado_999799" data-name="Trazado 999799" d="M137.121,12.906h-3.6a.858.858,0,1,1,0-1.715h3.6a.858.858,0,1,1,0,1.715" transform="translate(-132.658 -11.191)" fill="#223243"/>
                  </g>
                </g>
              </g>
              <g id="Grupo_1177779" data-name="Grupo 1177779" transform="translate(242.82 19.485)" opacity="0.87">
                <g id="Grupo_1177778" data-name="Grupo 1177778">
                  <g id="Grupo_1177777" data-name="Grupo 1177777" clip-path="url(#clip-path-10)">
                    <path id="Trazado_999800" data-name="Trazado 999800" d="M144.092,12.906h-3.775a.858.858,0,1,1,0-1.715h3.775a.858.858,0,1,1,0,1.715" transform="translate(-139.459 -11.191)" fill="#223243"/>
                  </g>
                </g>
              </g>
              <path id="Trazado_999801" data-name="Trazado 999801" d="M128.961,11.27V30.355h2.121V7.912Z" transform="translate(95.58 5.864)" fill="#49260d"/>
              <path id="Trazado_999802" data-name="Trazado 999802" d="M143.4,7.861V30.3l1.44.475-.066-21.059Z" transform="translate(106.284 5.827)" fill="#49260d"/>
              <path id="Trazado_999803" data-name="Trazado 999803" d="M128.957,20.751H155.52s1.187,11.483-10.342,12.484c-12.237,1.064-16.221-2.53-16.221-12.484" transform="translate(95.578 15.38)" fill="#49260d"/>
              <path id="Trazado_999804" data-name="Trazado 999804" d="M133.533,21.638h12.383s-6.672,10.125-12.383,0" transform="translate(98.969 16.037)" fill="#fff"/>
              <path id="Trazado_999805" data-name="Trazado 999805" d="M156.993,16.964s7.588-11.318,2.9-12.773-2.765-7.114-14.23-2.264c-4.773,2.02-10.033,2.981-10.224,2.587-.86-1.779-12.249,6.6-7.076,19.952l2.9.322-.771-6.97s23.607.277,26.5-.855" transform="translate(94.14 0)" fill="#49260d"/>
              <path id="Trazado_999806" data-name="Trazado 999806" d="M129.011,13.469s6.515,1.133,11.669-2.387,17.293-9.622,16.026-4.367-2.714,6.928-2.714,6.928-15.9,1.729-24.98-.174" transform="translate(95.618 3.458)" fill="#351c0b"/>
              <path id="Trazado_999807" data-name="Trazado 999807" d="M139.179,152.258l33.909,4.522s.312-4.922-.312-5.9c-1.785-2.8-8.023-5.006-12.439-6.263a5.533,5.533,0,0,1-3.977-6.054l3.014-22.454-7.241-.373-10.863-.559Z" transform="translate(103.154 85.368)" fill="#785f44"/>
              <path id="Trazado_999808" data-name="Trazado 999808" d="M172.849,138.973s-20.965-.472-25.625-2.18c-1.139-.416-8.069-.507-8.069-.507l-.042,3.571h7.947l.155-1.066a18.807,18.807,0,0,1,5.946,1.562l19.687.785Z" transform="translate(103.106 101.01)" fill="#49331d"/>
              <path id="Trazado_999809" data-name="Trazado 999809" d="M150.859,146.725c6.557.7,16.605,3.921,16.605,3.921-1.783-2.8-8.023-5.006-12.437-6.263a5.532,5.532,0,0,1-3.977-6.054l3.012-22.454-7.241-.373s-2.514,30.524,4.038,31.222" transform="translate(108.466 85.606)" fill="#b57d4b"/>
              <path id="Trazado_999810" data-name="Trazado 999810" d="M125.807,152.258l33.909,4.522s.312-4.922-.312-5.9c-1.785-2.8-8.023-5.006-12.439-6.263a5.533,5.533,0,0,1-3.977-6.054L146,116.114l-7.242-.373-10.863-.559Z" transform="translate(93.243 85.368)" fill="#785f44"/>
              <path id="Trazado_999811" data-name="Trazado 999811" d="M159.544,138.973s-21-.472-25.659-2.18c-1.139-.416-8.086-.507-8.086-.507l-.057,3.571h7.947l.155-1.066a18.891,18.891,0,0,1,5.979,1.562l19.722.785Z" transform="translate(93.194 101.01)" fill="#49331d"/>
              <path id="Trazado_999812" data-name="Trazado 999812" d="M137.487,146.725c6.557.7,16.605,3.921,16.605,3.921-1.783-2.8-8.023-5.006-12.437-6.263a5.532,5.532,0,0,1-3.977-6.054l3.012-22.454-7.241-.373s-2.514,30.524,4.038,31.222" transform="translate(98.555 85.606)" fill="#b57d4b"/>
              <path id="Trazado_999813" data-name="Trazado 999813" d="M166.9,72.759s6.5,31.179,4.335,42.975-4.607,31.729-4.607,31.729l-16.341-.839s7.6-30.268,5.741-38.34-5.277-18.937-5.277-18.937-4.851,5.828-6.3,20.765-2.539,37.351-2.539,37.351l-14.9-.839,2.728-68.266Z" transform="translate(94.133 53.926)" fill="#001c33"/>
              <path id="Trazado_999814" data-name="Trazado 999814" d="M135.216,48.164H151.98V60.913a8.206,8.206,0,0,1-8.206,8.206h-.352a8.206,8.206,0,0,1-8.206-8.206Z" transform="translate(100.217 35.697)" fill="#032e4c"/>
              <path id="Trazado_999815" data-name="Trazado 999815" d="M124.462,39.574l-3.683,34.682,25.52,36.6,7.786-5.116-22.9-35.1,4.952-38.654s-9.172-3.912-11.676,7.583" transform="translate(89.516 23.235)" fill="#99c"/>
              <path id="Trazado_999816" data-name="Trazado 999816" d="M189.171,115.053v.005l.057-.005Z" transform="translate(140.206 85.273)" fill="#2d220b"/>
              <path id="Trazado_999817" data-name="Trazado 999817" d="M187.388,131.591a22.46,22.46,0,1,1,16.7,27.021,22.46,22.46,0,0,1-16.7-27.021" transform="translate(138.435 84.705)" fill="#2d220b"/>
              <path id="Trazado_999818" data-name="Trazado 999818" d="M184.136,131.591a22.459,22.459,0,1,1,16.7,27.021,22.457,22.457,0,0,1-16.7-27.021" transform="translate(136.025 84.705)" fill="#443715"/>
              <path id="Trazado_999819" data-name="Trazado 999819" d="M201.456,120.668a11.464,11.464,0,1,0,11.979,11.452,11.724,11.724,0,0,0-11.979-11.452m0,19.894A8.366,8.366,0,1,1,210.2,132.2a8.556,8.556,0,0,1-8.742,8.358" transform="translate(140.433 89.434)" fill="#685325"/>
              <path id="Trazado_999820" data-name="Trazado 999820" d="M200.078,122.494a8.366,8.366,0,1,1-8.742,8.358,8.556,8.556,0,0,1,8.742-8.358" transform="translate(141.81 90.788)" fill="#d89e2a"/>
              <path id="Trazado_999821" data-name="Trazado 999821" d="M242.936,167.938a2.539,2.539,0,0,1-1.785-.731l-33.989-33.385H181.414a2.548,2.548,0,0,1-2.314-1.48L156.021,82.3H136.485a2.548,2.548,0,1,1,0-5.1h21.167a2.549,2.549,0,0,1,2.314,1.48l23.077,50.046H208.2a2.549,2.549,0,0,1,1.786.731l34.731,34.116a2.547,2.547,0,0,1-1.785,4.365" transform="translate(99.268 57.217)" fill="#f4c01e"/>
              <path id="Trazado_999822" data-name="Trazado 999822" d="M237.062,123.953H184.413l-12.2-38.979h90.042Z" transform="translate(127.634 62.979)" fill="#b58e1f"/>
              <path id="Trazado_999823" data-name="Trazado 999823" d="M214.064,123.953H169.375L151.588,84.973H241.63Z" transform="translate(112.35 62.979)" fill="#dbab23"/>
              <path id="Trazado_999824" data-name="Trazado 999824" d="M198.085,128.352a1.175,1.175,0,1,1-1.172-1.252,1.214,1.214,0,0,1,1.172,1.252" transform="translate(145.075 94.201)" fill="#594002"/>
              <path id="Trazado_999825" data-name="Trazado 999825" d="M135.866,78.447l2.829,7.395a3.48,3.48,0,0,0,3.167,2.234l5.446.125a2.915,2.915,0,0,0,2.852-3.78l-.944-3.03-7.334-6.93Z" transform="translate(100.698 55.187)" fill="#e89579"/>
              <path id="Trazado_999826" data-name="Trazado 999826" d="M168.729,79.063l2.737,2.251s-1.7,2.434-6.371-1.059c0,0-7.121.663-9.717-4.137l8.034-1.574Z" transform="translate(115.16 55.25)" fill="#e89579"/>
              <path id="Trazado_999827" data-name="Trazado 999827" d="M167.42,83.864H159.18a2.479,2.479,0,1,1,0-4.957h8.239a2.479,2.479,0,0,1,0,4.957" transform="translate(116.14 58.483)" fill="#e89579"/>
              <path id="Trazado_999828" data-name="Trazado 999828" d="M158.163,91.179s27.376-14.121,41.532-9.975c0,0,21.406-13.532,39.441-6.152s26.33,16.127,26.33,16.127Z" transform="translate(117.224 53.993)" fill="#4f2a09"/>
              <path id="Trazado_999829" data-name="Trazado 999829" d="M192.771,76.706s17.284.32,19.757,9.724l16.82.674s-16.529-18.815-36.577-10.4" transform="translate(142.874 55.245)" fill="#6d390f"/>
              <path id="Trazado_999830" data-name="Trazado 999830" d="M178.245,78.146a1.442,1.442,0,1,1-1.757,1.407,1.612,1.612,0,0,1,1.757-1.407" transform="translate(130.806 57.919)" fill="#6d390f"/>
              <path id="Trazado_999831" data-name="Trazado 999831" d="M193.529,76.845a1.443,1.443,0,1,1-1.757,1.409,1.613,1.613,0,0,1,1.757-1.409" transform="translate(142.134 56.954)" fill="#6d390f"/>
              <path id="Trazado_999832" data-name="Trazado 999832" d="M173.041,78.8a1.442,1.442,0,1,1-1.757,1.407,1.612,1.612,0,0,1,1.757-1.407" transform="translate(126.949 58.401)" fill="#6d390f"/>
              <path id="Trazado_999833" data-name="Trazado 999833" d="M281.773,89.431h-129.4a2.911,2.911,0,0,1-2.9-2.9V86.08a2.911,2.911,0,0,1,2.9-2.9h129.4a2.911,2.911,0,0,1,2.9,2.9v.449a2.913,2.913,0,0,1-2.9,2.9" transform="translate(110.78 61.647)" fill="#f4c95d"/>
            </g>
          </g>
        </g>
      </g>
    </g>
  </g>
</svg>
