<svg xmlns="http://www.w3.org/2000/svg" xmlns:xlink="http://www.w3.org/1999/xlink" width="84" height="84" viewBox="0 0 84 84">
  <defs>
    <clipPath id="clip-path">
      <rect id="Rectángulo_455194" data-name="Rectángulo 455194" width="52.489" height="55.223" fill="none"/>
    </clipPath>
  </defs>
  <g id="Grupo_1177882" data-name="Grupo 1177882" transform="translate(-705.629 -1254.629)">
    <g id="Grupo_1177831" data-name="Grupo 1177831">
      <path id="Rectángulo_402006" data-name="Rectángulo 402006" d="M5,0H59A25,25,0,0,1,84,25V79a5,5,0,0,1-5,5H5a5,5,0,0,1-5-5V5A5,5,0,0,1,5,0Z" transform="translate(705.629 1254.629)" fill="#ffd98a"/>
      <g id="Grupo_1177799" data-name="Grupo 1177799" transform="translate(721.665 1268.826)">
        <g id="Grupo_1177798" data-name="Grupo 1177798" clip-path="url(#clip-path)">
          <path id="Trazado_999900" data-name="Trazado 999900" d="M1.205,54.019H15.864a36.786,36.786,0,0,1,3.28-6c-4-4.449-10.028-6.781-17.938-6.944ZM18.268,20.037V17.448c-1.534-.435-2.664-2.513-2.664-5.085,0-2.9,1.435-5.168,3.267-5.168s3.267,2.271,3.267,5.168c0,2.572-1.13,4.65-2.664,5.085v2.589h5.844V9.378a.6.6,0,0,1,.128-.372l4.292-5.483a.6.6,0,0,1,.215-.172L36.821.06a.6.6,0,0,1,.52,0L44.21,3.351a.564.564,0,0,1,.215.172l4.292,5.483a.6.6,0,0,1,.128.372V20.037h3.041a.6.6,0,0,1,.6.6V54.62a.6.6,0,0,1-.6.6H.6a.6.6,0,0,1-.6-.6V20.64a.6.6,0,0,1,.6-.6h6.71V16.064c-2.1-.459-3.671-3.294-3.671-6.831,0-3.867,1.878-6.9,4.273-6.9s4.273,3.03,4.273,6.9c0,3.537-1.571,6.372-3.671,6.831v3.973Zm0-3.908V12.363a.6.6,0,1,1,1.205,0v3.766a4.583,4.583,0,0,0,1.457-3.766c0-2.334-1.086-3.962-2.06-3.962s-2.062,1.628-2.062,3.962a4.586,4.586,0,0,0,1.459,3.766M7.312,14.807V9.233a.6.6,0,0,1,1.205,0v5.574c1.386-.536,2.465-2.872,2.465-5.574,0-3.085-1.4-5.691-3.068-5.691S4.847,6.148,4.847,9.233c0,2.7,1.079,5.039,2.465,5.574m26.461,4.319,2.478-2.62-2.478-2.62Zm3.309-3.5,2.51-2.652H34.572Zm3.891-3.859a.6.6,0,0,1,.622.6v7.662h6.045V9.585L43.561,4.378l-6.48-3.1-6.48,3.1L26.524,9.585V20.037h6.045V12.376a.6.6,0,0,1,.625-.6Zm-.584,2.117-2.478,2.618,2.478,2.618Zm-3.307,3.5-2.51,2.653h5.019Zm0-12.064A1.516,1.516,0,1,0,38.6,6.836,1.517,1.517,0,0,0,37.081,5.32m0,4.235A2.721,2.721,0,1,1,39.8,6.835a2.724,2.724,0,0,1-2.722,2.72M1.205,21.243v8.288a38.961,38.961,0,0,1,14.759,3.106,33.209,33.209,0,0,1,4.788,2.543,32.961,32.961,0,0,1,13.26-8.746,65.88,65.88,0,0,1,17.27-3.83V21.241q-25.037,0-50.076,0M33.543,32.3l-1.695-1.174a.6.6,0,1,1,.686-.99l1.009.7v-.462a.6.6,0,0,1,1.205,0v.462l1.009-.7a.6.6,0,0,1,.686.99L34.749,32.3v2.07a.6.6,0,0,1-1.205,0Zm14.444.065a.6.6,0,0,1-.6-.6V30.422A2.913,2.913,0,0,1,46.09,27.74c0-1.582.832-2.822,1.9-2.822s1.9,1.239,1.9,2.822a2.916,2.916,0,0,1-1.295,2.682v1.343a.6.6,0,0,1-.6.6m0-6.242c-.246,0-.692.612-.692,1.617s.446,1.617.692,1.617.692-.612.692-1.617-.45-1.617-.692-1.617M7.8,36.137,6.1,34.963a.6.6,0,0,1,.687-.992l1.008.7v-.461a.6.6,0,1,1,1.205,0v.461l1.009-.7a.6.6,0,1,1,.686.992L9,36.137V38.2a.6.6,0,1,1-1.205,0ZM40.875,39.15,39.18,37.977a.6.6,0,0,1,.687-.99l1.009.7v-.461a.6.6,0,0,1,1.205,0v.461l1.009-.7a.6.6,0,1,1,.686.99L42.082,39.15v2.07a.6.6,0,0,1-1.205,0ZM26.862,47.681,25.113,46.15a.6.6,0,1,1,.792-.907l.955.837v-.708a.6.6,0,1,1,1.205,0v.708l.955-.836a.6.6,0,1,1,.8.907l-1.749,1.531v2.741a.6.6,0,0,1-1.205,0Zm16.131,1.059-1.749-1.531a.6.6,0,0,1,.794-.907l.957.837v-.708a.6.6,0,1,1,1.205,0v.708l.955-.837a.6.6,0,0,1,.794.907L44.2,48.739V51.48a.6.6,0,1,1-1.205,0Zm-37.118,4a.6.6,0,0,1-.6-.6v-1.9c-1-.4-1.711-1.757-1.711-3.419,0-1.984,1.016-3.535,2.314-3.535s2.315,1.553,2.315,3.535c0,1.663-.714,3.023-1.712,3.419v1.9a.6.6,0,0,1-.6.6m0-8.25c-.523,0-1.108,1-1.108,2.33s.585,2.33,1.108,2.33,1.108-1,1.108-2.33-.585-2.33-1.108-2.33M11.525,29.6a.6.6,0,0,1-.6-.6V27.606A2.972,2.972,0,0,1,9.591,24.86c0-1.617.85-2.883,1.934-2.883s1.933,1.268,1.933,2.883a2.971,2.971,0,0,1-1.33,2.746v1.389a.6.6,0,0,1-.6.6m0-6.416c-.29,0-.729.67-.729,1.677s.438,1.677.729,1.677.727-.67.727-1.677-.438-1.677-.727-1.677m7.848,8.7a.6.6,0,0,1-.6-.6v-1.9c-1-.4-1.711-1.757-1.711-3.42,0-1.982,1.016-3.535,2.314-3.535s2.314,1.553,2.314,3.535c0,1.663-.714,3.023-1.711,3.42v1.9a.6.6,0,0,1-.6.6m0-8.248c-.523,0-1.108,1-1.108,2.33s.584,2.331,1.108,2.331,1.108-1,1.108-2.331-.587-2.33-1.108-2.33m31.909.187c-9.647.944-22.267,3.822-29.52,12.042a28.318,28.318,0,0,1,4.909,4.321q1.232-.9,2.558-1.685c5.869-3.473,13.285-5.338,22.052-5.546ZM25.71,40.912c-5.581-6.2-14.653-9.964-24.506-10.174v9.132c8.151.161,14.419,2.561,18.649,7.139a31.578,31.578,0,0,1,5.857-6.1M17.182,54.019h11.2c3.846-7.422,11.747-11.809,22.9-12.71V34.156c-16.874.407-28.339,7.086-34.1,19.863m12.571,0h21.53v-11.5c-10.38.861-17.791,4.823-21.53,11.5" transform="translate(0 0)" fill-rule="evenodd"/>
          <path id="Trazado_999901" data-name="Trazado 999901" d="M208.12,266.655c-10.38.861-17.791,4.823-21.53,11.5h21.53Zm-8.288,6.222-1.749-1.531a.6.6,0,0,1,.794-.907l.957.837v-.708a.6.6,0,0,1,1.205,0v.708l.955-.837a.6.6,0,0,1,.794.907l-1.749,1.531v2.741a.6.6,0,0,1-1.205,0Z" transform="translate(-156.838 -224.137)" fill="#44ac47" fill-rule="evenodd"/>
          <path id="Trazado_999902" data-name="Trazado 999902" d="M25.488,264.549c-4-4.449-10.028-6.781-17.938-6.944v12.944H22.208a36.774,36.774,0,0,1,3.28-6m-12.663,2.215v1.9a.6.6,0,1,1-1.205,0v-1.9c-1-.4-1.711-1.757-1.711-3.419,0-1.984,1.016-3.535,2.314-3.535s2.315,1.553,2.315,3.535c0,1.663-.716,3.023-1.712,3.419" transform="translate(-6.346 -216.53)" fill="#a3c0aa" fill-rule="evenodd"/>
          <path id="Trazado_999903" data-name="Trazado 999903" d="M141.86,214.205c-16.876.408-28.34,7.087-34.1,19.863h11.2c3.846-7.422,11.747-11.809,22.9-12.71Zm-10.407,5-1.695-1.174a.6.6,0,0,1,.687-.99l1.009.7v-.461a.6.6,0,1,1,1.205,0v.461l1.009-.7a.6.6,0,1,1,.686.99L132.66,219.2v2.07a.6.6,0,1,1-1.205,0Zm-12.807,6.22v.708l.955-.836a.6.6,0,0,1,.8.907l-1.749,1.531v2.741a.6.6,0,0,1-1.205,0v-2.741l-1.749-1.531a.6.6,0,1,1,.792-.907l.955.837v-.708a.6.6,0,0,1,1.205,0" transform="translate(-90.578 -180.05)" fill="#a3c0aa" fill-rule="evenodd"/>
          <path id="Trazado_999904" data-name="Trazado 999904" d="M32.056,202.949c-5.581-6.2-14.653-9.964-24.506-10.174v9.132c8.151.161,14.419,2.561,18.649,7.139a31.579,31.579,0,0,1,5.857-6.1M15.35,198.174v2.068a.6.6,0,0,1-1.205,0v-2.07L12.45,197a.6.6,0,0,1,.687-.992l1.008.7v-.461a.6.6,0,0,1,1.205,0v.461l1.009-.7a.6.6,0,0,1,.686.992Z" transform="translate(-6.346 -162.037)" fill="#44ac47" fill-rule="evenodd"/>
          <path id="Trazado_999905" data-name="Trazado 999905" d="M166,149.365c-9.647.944-22.267,3.822-29.52,12.042a28.319,28.319,0,0,1,4.909,4.321q1.232-.9,2.558-1.685c5.869-3.473,13.285-5.338,22.052-5.546Zm-17.739,8.486-1.695-1.174a.6.6,0,1,1,.686-.99l1.009.7v-.462a.6.6,0,1,1,1.205,0v.462l1.009-.7a.6.6,0,0,1,.686.99l-1.695,1.174v2.07a.6.6,0,1,1-1.205,0Zm14.444.065a.6.6,0,0,1-.6-.6v-1.343a2.913,2.913,0,0,1-1.295-2.682c0-1.582.832-2.822,1.9-2.822s1.9,1.239,1.9,2.822a2.916,2.916,0,0,1-1.295,2.682v1.343a.6.6,0,0,1-.6.6" transform="translate(-114.718 -125.549)" fill="#44ac47" fill-rule="evenodd"/>
          <path id="Trazado_999906" data-name="Trazado 999906" d="M40.358,138.408a65.88,65.88,0,0,1,17.27-3.83v-1.363H7.55V141.5a38.961,38.961,0,0,1,14.759,3.106,33.208,33.208,0,0,1,4.788,2.543,33.009,33.009,0,0,1,13.261-8.744m-12.325-.475c0,1.663-.714,3.023-1.711,3.42v1.9a.6.6,0,0,1-1.205,0v-1.9c-1-.4-1.711-1.757-1.711-3.42,0-1.982,1.016-3.535,2.314-3.535s2.314,1.553,2.314,3.535m-9.559,1.647v1.389a.6.6,0,1,1-1.205,0V139.58a2.972,2.972,0,0,1-1.331-2.746c0-1.617.85-2.883,1.934-2.883s1.933,1.268,1.933,2.883a2.973,2.973,0,0,1-1.33,2.746" transform="translate(-6.346 -111.974)" fill="#a3c0aa" fill-rule="evenodd"/>
          <path id="Trazado_999907" data-name="Trazado 999907" d="M32.116,281.325c0-1.333-.585-2.33-1.108-2.33s-1.108,1-1.108,2.33.585,2.33,1.108,2.33,1.108-.995,1.108-2.33" transform="translate(-25.132 -234.51)" fill="#44ac47" fill-rule="evenodd"/>
          <path id="Trazado_999908" data-name="Trazado 999908" d="M67.71,147.072c0,1.008.438,1.677.729,1.677s.727-.67.727-1.677-.438-1.677-.727-1.677-.729.668-.729,1.677" transform="translate(-56.914 -122.212)" fill="#44ac47" fill-rule="evenodd"/>
          <path id="Trazado_999909" data-name="Trazado 999909" d="M115.658,148.2c-.523,0-1.108,1-1.108,2.33s.584,2.331,1.108,2.331,1.108-1,1.108-2.331-.587-2.33-1.108-2.33" transform="translate(-96.285 -124.566)" fill="#44ac47" fill-rule="evenodd"/>
          <path id="Trazado_999910" data-name="Trazado 999910" d="M108.084,56.647v3.766a4.583,4.583,0,0,0,1.457-3.766c0-2.334-1.086-3.962-2.06-3.962s-2.062,1.628-2.062,3.962a4.583,4.583,0,0,0,1.459,3.766V56.647a.6.6,0,1,1,1.205,0" transform="translate(-88.611 -44.284)" fill="#44ac47" fill-rule="evenodd"/>
          <path id="Trazado_999911" data-name="Trazado 999911" d="M36.536,27.906c0-3.085-1.4-5.691-3.068-5.691S30.4,24.82,30.4,27.906c0,2.7,1.079,5.039,2.465,5.574V27.906a.6.6,0,0,1,1.205,0V33.48c1.386-.536,2.465-2.872,2.465-5.574" transform="translate(-25.553 -18.673)" fill="#44ac47" fill-rule="evenodd"/>
          <path id="Trazado_999912" data-name="Trazado 999912" d="M166.34,16.3V26.749h6.045V19.087a.6.6,0,0,1,.625-.6h7.781a.6.6,0,0,1,.622.6v7.662h6.045V16.3l-4.077-5.208-6.48-3.1-6.48,3.1Zm10.559-.03a2.721,2.721,0,1,1,2.722-2.72,2.724,2.724,0,0,1-2.722,2.72" transform="translate(-139.817 -6.712)" fill="#ff9e43" fill-rule="evenodd"/>
          <path id="Trazado_999913" data-name="Trazado 999913" d="M223.06,34.871a1.516,1.516,0,1,0,1.515-1.516,1.516,1.516,0,0,0-1.515,1.516" transform="translate(-187.493 -28.037)" fill="#fba75e" fill-rule="evenodd"/>
          <path id="Trazado_999914" data-name="Trazado 999914" d="M221.831,81.395H216.81l2.511,2.652Z" transform="translate(-182.24 -68.417)" fill="#ffd180" fill-rule="evenodd"/>
          <path id="Trazado_999915" data-name="Trazado 999915" d="M240.238,87.1l-2.478,2.618,2.478,2.618Z" transform="translate(-199.849 -73.216)" fill="#ffd180" fill-rule="evenodd"/>
          <path id="Trazado_999916" data-name="Trazado 999916" d="M214.288,89.723l-2.478-2.618v5.238Z" transform="translate(-178.037 -73.216)" fill="#ffd180" fill-rule="evenodd"/>
          <path id="Trazado_999917" data-name="Trazado 999917" d="M219.321,109.025l-2.511,2.653h5.021Z" transform="translate(-182.24 -91.641)" fill="#ffd180" fill-rule="evenodd"/>
          <path id="Trazado_999918" data-name="Trazado 999918" d="M297.312,163.845c-.246,0-.692.612-.692,1.617s.446,1.617.692,1.617.692-.612.692-1.617-.45-1.617-.692-1.617" transform="translate(-249.324 -137.72)" fill="#44ac47" fill-rule="evenodd"/>
        </g>
      </g>
    </g>
  </g>
</svg>
