<svg xmlns="http://www.w3.org/2000/svg" xmlns:xlink="http://www.w3.org/1999/xlink" width="107" height="107" viewBox="0 0 107 107">
  <defs>
    <clipPath id="clip-path">
      <rect id="Rectángulo_455204" data-name="Rectángulo 455204" width="60" height="57" transform="translate(0 0)" fill="#ffd98a"/>
    </clipPath>
  </defs>
  <g id="Grupo_1177920" data-name="Grupo 1177920" transform="translate(-244 -7009.127)">
    <g id="Grupo_1177821" data-name="Grupo 1177821" transform="translate(-46)">
      <g id="Grupo_156312" data-name="Grupo 156312" transform="translate(1.332 2560.69)">
        <path id="Elipse_5845" data-name="Elipse 5845" d="M53.5,0A53.5,53.5,0,1,1,0,53.5,53.5,53.5,0,0,1,53.5,0Z" transform="translate(288.668 4448.437)" fill="#19632c"/>
      </g>
      <g id="Grupo_1177820" data-name="Grupo 1177820" transform="translate(311 7035.875)">
        <g id="Grupo_1177819" data-name="Grupo 1177819" transform="translate(0 0.124)" clip-path="url(#clip-path)">
          <path id="Trazado_999995" data-name="Trazado 999995" d="M150.517,45.037a6.518,6.518,0,1,1,6.518-6.518,6.518,6.518,0,0,1-6.518,6.518m0-10.429a3.911,3.911,0,1,0,3.911,3.911,3.911,3.911,0,0,0-3.911-3.911" transform="translate(-120.533 -26.904)" fill="#ffd98a"/>
          <path id="Trazado_999996" data-name="Trazado 999996" d="M119.642,157.773h-5.215a5.22,5.22,0,0,1-5.215-5.215v-14.34H105.3a1.3,1.3,0,0,1-1.291-1.486l1.455-10.344a6.888,6.888,0,0,1,7.17-6.422h8.8a6.886,6.886,0,0,1,7.169,6.422l1.455,10.344a1.3,1.3,0,0,1-1.291,1.486h-3.911v14.34a5.22,5.22,0,0,1-5.215,5.215M106.8,135.61h3.715a1.3,1.3,0,0,1,1.3,1.3h0v15.644a2.61,2.61,0,0,0,2.607,2.607h5.215a2.611,2.611,0,0,0,2.607-2.607V136.914a1.3,1.3,0,0,1,1.3-1.3h3.716l-1.258-8.944a1.257,1.257,0,0,1-.013-.182,4.28,4.28,0,0,0-4.563-3.911h-8.8a4.28,4.28,0,0,0-4.563,3.911,1.359,1.359,0,0,1-.013.182Z" transform="translate(-87.051 -100.53)" fill="#ffd98a"/>
          <path id="Trazado_999997" data-name="Trazado 999997" d="M46.517,13.037a6.518,6.518,0,1,1,6.518-6.518,6.518,6.518,0,0,1-6.518,6.518m0-10.429a3.911,3.911,0,1,0,3.911,3.911,3.911,3.911,0,0,0-3.911-3.911" transform="translate(-33.481 -0.118)" fill="#ffd98a"/>
          <path id="Trazado_999998" data-name="Trazado 999998" d="M15.644,125.773H10.429a5.22,5.22,0,0,1-5.215-5.215v-14.34H1.3a1.3,1.3,0,0,1-1.291-1.484L1.461,94.388a6.888,6.888,0,0,1,7.17-6.422h8.812a6.887,6.887,0,0,1,7.17,6.427l.041.309a1.3,1.3,0,0,1-2.584.346l-.052-.391a1.308,1.308,0,0,1-.012-.173,4.28,4.28,0,0,0-4.563-3.911H8.63a4.28,4.28,0,0,0-4.563,3.911,1.34,1.34,0,0,1-.013.181L2.8,103.61H6.518a1.3,1.3,0,0,1,1.3,1.3h0v15.644a2.61,2.61,0,0,0,2.607,2.607h5.215a2.61,2.61,0,0,0,2.607-2.607V110.129a1.3,1.3,0,1,1,2.607,0v10.429a5.22,5.22,0,0,1-5.215,5.215" transform="translate(0 -73.745)" fill="#ffd98a"/>
          <path id="Trazado_999999" data-name="Trazado 999999" d="M254.517,13.037a6.518,6.518,0,1,1,6.518-6.518,6.518,6.518,0,0,1-6.518,6.518m0-10.429a3.911,3.911,0,1,0,3.911,3.911,3.911,3.911,0,0,0-3.911-3.911" transform="translate(-207.585 -0.118)" fill="#ffd98a"/>
          <path id="Trazado_1000000" data-name="Trazado 1000000" d="M230.873,125.773h-5.215a5.22,5.22,0,0,1-5.215-5.215V110.129a1.3,1.3,0,1,1,2.607,0v10.429a2.611,2.611,0,0,0,2.607,2.607h5.215a2.611,2.611,0,0,0,2.607-2.607V104.914a1.3,1.3,0,0,1,1.3-1.3H238.5l-1.253-8.945a1.241,1.241,0,0,1-.013-.181,4.28,4.28,0,0,0-4.563-3.911h-8.812a4.28,4.28,0,0,0-4.563,3.911,1.337,1.337,0,0,1-.011.173l-.052.391a1.3,1.3,0,1,1-2.585-.341V94.7l.042-.309a6.886,6.886,0,0,1,7.169-6.427h8.812a6.886,6.886,0,0,1,7.169,6.422l1.449,10.345A1.3,1.3,0,0,1,240,106.218h-3.911v14.34a5.22,5.22,0,0,1-5.215,5.215" transform="translate(-181.334 -73.744)" fill="#ffd98a"/>
        </g>
      </g>
    </g>
  </g>
</svg>
