<svg xmlns="http://www.w3.org/2000/svg" xmlns:xlink="http://www.w3.org/1999/xlink" width="108.599" height="95.987" viewBox="0 0 108.599 95.987">
  <defs>
    <clipPath id="clip-path">
      <rect id="Rectángulo_455198" data-name="Rectángulo 455198" width="108.599" height="95.987" fill="none"/>
    </clipPath>
  </defs>
  <g id="Grupo_1177924" data-name="Grupo 1177924" transform="translate(-403 -7624.854)">
    <g id="Grupo_1177807" data-name="Grupo 1177807" transform="translate(403 7624.854)">
      <g id="Grupo_1177806" data-name="Grupo 1177806" transform="translate(0 0)" clip-path="url(#clip-path)">
        <path id="Trazado_999955" data-name="Trazado 999955" d="M.248,12.088,12.074,7.739l10.143,28.1L11.511,39.629.248,12.088" transform="translate(1.723 53.683)" fill="#dda499"/>
        <path id="Trazado_999956" data-name="Trazado 999956" d="M2.145,16.114C8.3,8.613,15.987,4.748,26.9,8.534l13.5,2.9,16.612,2.222c3.318,2.445,3.222,5.389.667,8.707L60.917,23.7,85.33,17.011l6.032,2.341-.556,4.9-9.707,5.8L54.67,40.313l-5.9-1.222L20.32,36.416,8.5,36.527,2.145,16.114" transform="translate(14.879 48.982)" fill="#ffead2"/>
        <path id="Trazado_999957" data-name="Trazado 999957" d="M3.86,1.542,6.3,8.828l-.587,7.445.286,7.476L7.686,35.464c2.857,6.421,7.389,10.1,15.675,7.588,4.984-3.579,6.254-7.961,6.349-12.6,5.294,1.849,8.389.937,10.342-1.413-3.492-3.476-4.23-7.254.619-11.651C36.29,2.273,22.94-1.68,3.86,1.542" transform="translate(26.776 3.456)" fill="#3c9a54"/>
        <path id="Trazado_999958" data-name="Trazado 999958" d="M12.184,18.526l-1.873-1.135L8.176,14.828l.159-3.1,1.873-3.3L14.9,3.542,20.756,1.97l5.3,1.071,5.587,3.1,7.619,5.127L33.653,16.09l-3.214,6.143L25.074,29.59l-3.881,2.143-4.659-.341-3.556-2.365-1.444-5.119Z" transform="translate(56.718 13.665)" fill="#a3c0aa"/>
        <path id="Trazado_999959" data-name="Trazado 999959" d="M12.694,95.988a2.224,2.224,0,0,1-2-1.437L.146,66.638A2.221,2.221,0,0,1,1.44,63.764L13.257,59.3a2.231,2.231,0,0,1,2.881,1.3l.421,1.111.048-.063c7.826-7.437,17.032-9.834,28.628-5.421a31.521,31.521,0,0,0,11.6,2.206l1.143.016.024-3.8c-.056-1.952-.175-3.9-.381-5.849l-.881-5.643L56,44.454a16.488,16.488,0,0,1-4.5,4.4,12.572,12.572,0,0,1-6.056,2.048,9.681,9.681,0,0,1-1.357,0c-3.183-.183-6.492-1.691-9.556-4.968-4.873-5.3-4.881-15.088-5.1-22.3-.286-8.961-.683-15.389-3.976-18.413a2.242,2.242,0,0,1,1.143-3.857c9.461-1.6,18.659-2.135,26.461.278A26.406,26.406,0,0,1,69.529,15.977l.548,1.206,1.214-.77c7.088-3.635,18.175-2.921,29.858,7.016a2.24,2.24,0,0,1-.381,3.675c-4.294,2.325-8.54,4.611-12.143,12.85l-.913,2.056A11.485,11.485,0,0,1,77.148,48a10.3,10.3,0,0,1-2.024-.3,10.612,10.612,0,0,1-7.532-7.1l-.413-1.484-.087.119A54.217,54.217,0,0,0,62.6,47.764a1.929,1.929,0,0,1-.357.571l-.159.143.246,2.865q.155,2.345.175,4.675l-.032,2.548,2.024.1a29.1,29.1,0,0,1,6.341,1.024,9.084,9.084,0,0,1,4.714,3.032,7.809,7.809,0,0,1,1.325,5.738,4.27,4.27,0,0,1-.683,1.889l-.087.111,13.818-4.691c2.945-.984,6.421-2.167,9.484-2.238a8.778,8.778,0,0,1,8.437,4.818,5.9,5.9,0,0,1-.738,6.826,14.042,14.042,0,0,1-6.254,3.675l-1.071.333L73.458,90.107l-.167.056a15.815,15.815,0,0,1-5.119.794,22.127,22.127,0,0,1-4.587-.516l-1.46-.349L39.282,87.527a57.131,57.131,0,0,0-11.215.175l-1.587.254.206.548a2.212,2.212,0,0,1-1.3,2.873L13.567,95.845a2.242,2.242,0,0,1-.873.143m1.381-5.1L21.726,88l-.175-.452-.3-.6-.016-.27-7.7-20.35-.1-.222-.016-.063-.675-1.786L5.1,67.145l8.976,23.739m53.549-4.4a12.121,12.121,0,0,0,3.445-.317l.786-.222L98.173,75.027a1.849,1.849,0,0,1,.222-.087c3.048-.9,4.643-1.881,5.326-2.683a1.451,1.451,0,0,0,.175-1.849,4.319,4.319,0,0,0-4.389-2.421c-2.214.048-4.937.921-8.159,2.008L75.64,75.328l-.6.31a9.273,9.273,0,0,1-7.183.373l-9.167-2.96-2.183-.4a43.262,43.262,0,0,0-12.278-.214,2.226,2.226,0,1,1-.651-4.4,47.672,47.672,0,0,1,13.635.206l2.333.437,2.508.238a40.622,40.622,0,0,0,6.619.071,12.034,12.034,0,0,0,2.9-.571,2.572,2.572,0,0,0,.865-.452l.048-.476a3.032,3.032,0,0,0-.492-2.079,4.767,4.767,0,0,0-2.476-1.46c-2.738-.849-6.945-1-12.7-1.048a35.736,35.736,0,0,1-13.191-2.516c-10.532-4-18.31-1.54-25.318,5.889l-.016.016,6.58,17.429.167-.04A58.469,58.469,0,0,1,39.766,83.1l22.969,2.564c.111.016.222.04.333.063a19.944,19.944,0,0,0,4.556.754M45.243,46.431A8.055,8.055,0,0,0,49.068,45.1a13.151,13.151,0,0,0,5.58-9.08l.016-.286-.524-1.452A58.172,58.172,0,0,0,40.5,14.2a2.236,2.236,0,0,1,3.151-3.175A63.038,63.038,0,0,1,58,31.875l.262.706,1.627.738a8.021,8.021,0,0,0,5.786-.754l.476-.246-.31-.373a9.162,9.162,0,0,1-.325-10.175l1.032-1.444-.341-.849C62.957,11.85,57.918,7.826,51.735,5.913c-5.08-1.564-11.04-1.738-17.62-1.064l-3.167.381.516,1.064c2.2,5.056,2.254,11.842,2.429,17.2.278,8.881.587,15.778,3.913,19.405,2.579,2.754,5.135,3.7,7.437,3.532m32.152-2.873a7.325,7.325,0,0,0,7.064-5.214l.071-.175c3.135-7.183,6.873-10.6,10.516-12.937l.659-.389-1.389-1c-9-6.056-16.564-5.714-20.985-3.445-4.175,2.151-5.834,6.024-3.762,9.016l.016.016,3-2.4a30.147,30.147,0,0,1,15.461-5.333,2.24,2.24,0,0,1,.325,4.468,25.525,25.525,0,0,0-15.659,6.453l-1.365,1.31-.119,1.325c-.056,5.572,2.952,8.183,6.167,8.31m-16.54-2.532,1.191-2.119.587-.921-1.524.056-1.056-.151.294.984Z" transform="translate(-0.003 -0.002)"/>
      </g>
    </g>
  </g>
</svg>
