<svg xmlns="http://www.w3.org/2000/svg" xmlns:xlink="http://www.w3.org/1999/xlink" width="89.257" height="88.302" viewBox="0 0 89.257 88.302">
  <defs>
    <clipPath id="clip-path">
      <rect id="Rectángulo_455213" data-name="Rectángulo 455213" width="89.257" height="88.302" fill="none"/>
    </clipPath>
  </defs>
  <g id="Grupo_1177928" data-name="Grupo 1177928" transform="translate(-1790.7 4071.969)">
    <g id="Grupo_1177838" data-name="Grupo 1177838" transform="translate(1790.7 -4071.969)">
      <rect id="Rectángulo_455212" data-name="Rectángulo 455212" width="89.035" height="15.158" transform="translate(0.219 71.486)" fill="#ebb044"/>
      <g id="Grupo_1177837" data-name="Grupo 1177837" transform="translate(0 0)">
        <g id="Grupo_1177836" data-name="Grupo 1177836" clip-path="url(#clip-path)">
          <path id="Trazado_1000016" data-name="Trazado 1000016" d="M87.6,66.257H24.159V52.233c3.117.078,9.447-.331,14.395-4.285,3.779-3.039,5.96-7.5,6.467-13.265a1.641,1.641,0,0,0-1.11-1.714c-.156-.058-12.077-3.954-19.751,4.753V31.137c2.123-1.4,7.5-5.61,8.006-11.882.409-5.123-2.493-10.207-8.61-15.154l-.117-.058c-.1-.058-.195-.1-.292-.156a1.714,1.714,0,0,0-.292-.1,1.782,1.782,0,0,0-.312-.019h-.312a1.714,1.714,0,0,0-.292.1.937.937,0,0,0-.312.156c-.039.019-.078.019-.117.039-6.7,5.045-9.876,10.187-9.428,15.33.565,6.311,6.467,10.421,8.765,11.8v6.525c-7.675-8.707-19.6-4.811-19.732-4.753a1.632,1.632,0,0,0-1.11,1.695c.487,6.175,2.746,10.85,6.7,13.888C11.6,52.33,17.77,52.505,20.848,52.311V66.257H1.875a1.656,1.656,0,0,0,0,3.311H87.6a1.656,1.656,0,1,0,0-3.311M20.848,48.98c-2.513.175-8.006.136-12.135-3.078C5.83,43.682,4.057,40.273,3.453,35.754c3.389-.74,12.681-1.753,17.394,8.006ZM41.553,35.754a14.54,14.54,0,0,1-5.064,9.583c-4.149,3.35-9.72,3.642-12.33,3.584V43.759c4.714-9.739,13.986-8.765,17.394-8.006M22.5,17.736a1.654,1.654,0,0,0-1.656,1.656v7.83c-2.182-1.617-5.142-4.441-5.454-8.123-.331-3.662,2.065-7.558,7.071-11.551,4.519,3.9,6.7,7.752,6.408,11.414-.292,3.526-2.746,6.311-4.714,8.006V19.392A1.654,1.654,0,0,0,22.5,17.736" transform="translate(0 3.574)"/>
          <path id="Trazado_1000017" data-name="Trazado 1000017" d="M29.8,20.408a14.54,14.54,0,0,1-5.064,9.583c-4.149,3.35-9.72,3.642-12.33,3.584V28.414c4.714-9.739,13.986-8.765,17.394-8.006" transform="translate(11.756 18.919)" fill="#3c9a54"/>
          <path id="Trazado_1000018" data-name="Trazado 1000018" d="M19.167,28.412v5.22c-2.513.175-8.006.136-12.135-3.078-2.883-2.221-4.655-5.629-5.259-10.148,3.389-.74,12.681-1.753,17.394,8.006" transform="translate(1.681 18.922)" fill="#3c9a54"/>
          <path id="Trazado_1000019" data-name="Trazado 1000019" d="M21.4,17.124c-.294,3.526-2.748,6.311-4.714,8.006V17.553a1.656,1.656,0,1,0-3.311,0v7.83c-2.182-1.617-5.142-4.441-5.454-8.123C7.587,13.6,9.98,9.7,14.988,5.71c4.517,3.9,6.7,7.752,6.408,11.414" transform="translate(7.476 5.413)" fill="#a3c0aa"/>
          <path id="Trazado_1000020" data-name="Trazado 1000020" d="M57.078,43.051a1.656,1.656,0,1,0,0-3.311H25.628a1.656,1.656,0,1,0,0,3.311Z" transform="translate(22.722 37.668)"/>
          <path id="Trazado_1000021" data-name="Trazado 1000021" d="M31.548,43.051a1.656,1.656,0,1,0,0-3.311H5.1a1.656,1.656,0,1,0,0,3.311Z" transform="translate(3.266 37.668)"/>
          <path id="Trazado_1000022" data-name="Trazado 1000022" d="M87.493,43.633H1.764a1.656,1.656,0,0,0,0,3.311H87.493a1.656,1.656,0,1,0,0-3.311" transform="translate(0.104 41.358)"/>
          <path id="Trazado_1000023" data-name="Trazado 1000023" d="M49.626,38.49V9.194a9.194,9.194,0,1,0-18.388,0v29.3a15,15,0,1,0,18.388,0M40.432,62.02a11.686,11.686,0,0,1-6.6-21.329,1.591,1.591,0,0,0,.721-1.363V9.194a5.883,5.883,0,1,1,11.765,0V39.327a1.664,1.664,0,0,0,.721,1.363,11.686,11.686,0,0,1-6.6,21.329" transform="translate(24.126 0)"/>
          <path id="Trazado_1000024" data-name="Trazado 1000024" d="M45.433,39.079a1.664,1.664,0,0,1-.721-1.363V7.583a5.883,5.883,0,1,0-11.765,0V37.716a1.591,1.591,0,0,1-.721,1.363,11.687,11.687,0,1,0,13.206,0M37.174,8.673A1.654,1.654,0,0,1,38.83,7.018h2.4a1.656,1.656,0,0,1,0,3.311h-.74v2.727h.74a1.656,1.656,0,0,1,0,3.311h-.74v3.7h.74a1.656,1.656,0,0,1,0,3.311h-.74v3.7h.74a1.656,1.656,0,0,1,0,3.311h-.74v3.7h.74a1.656,1.656,0,0,1,0,3.311h-2.4a1.654,1.654,0,0,1-1.656-1.656ZM38.83,56.688A7.986,7.986,0,1,1,46.836,48.7a8,8,0,0,1-8.006,7.986" transform="translate(25.728 1.612)" fill="#dda499"/>
          <path id="Trazado_1000025" data-name="Trazado 1000025" d="M37.029,21.73a7.986,7.986,0,1,0,8.006,7.986,8,8,0,0,0-8.006-7.986m0,12.661a4.675,4.675,0,1,1,4.694-4.675,4.689,4.689,0,0,1-4.694,4.675" transform="translate(27.529 20.597)"/>
          <path id="Trazado_1000026" data-name="Trazado 1000026" d="M40.112,28.1a4.685,4.685,0,1,1-4.694-4.675A4.693,4.693,0,0,1,40.112,28.1" transform="translate(29.14 22.209)" fill="#aa1c00"/>
          <path id="Trazado_1000027" data-name="Trazado 1000027" d="M35.6,13.78v3.7h.74a1.656,1.656,0,0,1,0,3.311H35.6v3.7h.74a1.656,1.656,0,0,1,0,3.311H35.6v3.7h.74a1.656,1.656,0,0,1,0,3.311h-2.4a1.654,1.654,0,0,1-1.656-1.656V6.086A1.654,1.654,0,0,1,33.949,4.43h2.4a1.656,1.656,0,0,1,0,3.311H35.6v2.727h.74a1.656,1.656,0,0,1,0,3.311Z" transform="translate(30.609 4.199)"/>
        </g>
      </g>
    </g>
  </g>
</svg>
