<svg xmlns="http://www.w3.org/2000/svg" xmlns:xlink="http://www.w3.org/1999/xlink" width="80.284" height="97.844" viewBox="0 0 80.284 97.844">
  <defs>
    <clipPath id="clip-path">
      <rect id="Rectángulo_455214" data-name="Rectángulo 455214" width="80.284" height="97.844" fill="none"/>
    </clipPath>
  </defs>
  <g id="Grupo_1177929" data-name="Grupo 1177929" transform="translate(-2147.611 4075.11)">
    <g id="Grupo_1177839" data-name="Grupo 1177839" transform="translate(2147.611 -4075.11)">
      <path id="Trazado_1000028" data-name="Trazado 1000028" d="M39.83,26.546H11.582v-17L2,12.578V41.937H50.926V11.827L39.83,7.867Z" transform="translate(13.679 53.692)" fill="#a3c0aa"/>
      <g id="Grupo_1177840" data-name="Grupo 1177840" transform="translate(0 0)">
        <g id="Grupo_1177839-2" data-name="Grupo 1177839" clip-path="url(#clip-path)">
          <path id="Trazado_1000029" data-name="Trazado 1000029" d="M11.12,20.726,1.331,25.085c17.058,10.642,36.918,10.767,59.775-.329l-10.924-5.18C50.089,5.992,42.522.632,29.564.4,20.4,1.954,12.442,5.577,11.12,20.726" transform="translate(9.084 2.707)" fill="#ffd98a"/>
          <path id="Trazado_1000030" data-name="Trazado 1000030" d="M2.044,97.846A2.036,2.036,0,0,1,0,95.733C.541,79,4.493,67.461,15.166,64.143c5.7-1.768,8.6-3.412,10.29-4.985a10.078,10.078,0,0,0,2.52-3.826l.477-1.244-1.158-1.1c-3.224-3.443-5.642-8.592-6.675-15.478l-.282-2.387-2.23-.845a46.385,46.385,0,0,1-9.993-5.869,2.205,2.205,0,0,1,.462-3.764L17.983,20.5l.016-.36C18.648,6.489,29.251-.139,39.666,0,49.675.151,59.871,6.63,60.919,18.97l.039.751L73.47,24.6a2.21,2.21,0,0,1,.243,4,91.727,91.727,0,0,1-9.343,4.382L60.5,34.4l-.352,2.833a27.479,27.479,0,0,1-8.326,15.924l-.321.258.18.29c.861,2.332,1.51,3.928,3.146,5.454,1.69,1.573,4.593,3.216,10.29,4.985,10.642,3.3,14.617,14.789,15.173,31.59a2.052,2.052,0,0,1-2.05,2.113ZM13.7,93.753V69.23l-1.08.7C7.7,73.51,4.97,80.9,4.227,92.838l-.039.916Zm23.131,0V88.244a2.057,2.057,0,0,1,2.05-2.05h17.63a2.05,2.05,0,0,1,2.042,2.05v5.509h3.686V67.516l-.454-.157a42.982,42.982,0,0,1-5.157-2.121l-.313-.172V80.185a2.052,2.052,0,0,1-2.05,2.05H24.635a2.045,2.045,0,0,1-2.042-2.05V65.74l-.477.219c-1.072.477-2.285.939-3.623,1.4l-.689.235V93.753Zm17.622-3.459H40.934v3.459H54.456Zm21.636,3.459-.047-.923c-.8-12.9-3.92-20.455-9.57-23.663l-.141-.07V93.753ZM52.218,78.135V62.32l-.188-.164A14.317,14.317,0,0,1,48.516,56.9l-.407-1.072-1.455.767a17.994,17.994,0,0,1-5.689,1.6,17.035,17.035,0,0,1-1.988.086,15.651,15.651,0,0,1-7.066-1.753H31.9l-.133.368a14.488,14.488,0,0,1-3.506,5.258c-.3.274-.61.54-.947.806l-.626.454V78.135ZM39.087,54.2a12.681,12.681,0,0,0,1.44-.078C46.944,53.431,53.8,47.656,55.9,37.656l.329-1.933-1.041.313A65.133,65.133,0,0,1,37.663,38.3a52.834,52.834,0,0,1-12.121-1.534L24.6,36.49C26.3,49.112,32.78,54.12,39.087,54.2ZM37.726,33.884c9.077.133,19.046-2.05,29.422-6.917l.11-.047-8.3-3.247-.2.016a2.061,2.061,0,0,1-.853-.188l-.3-.164-1.385.407a70.406,70.406,0,0,1-33.843.759l-1.667-.383L13.946,27.1l1.182.728a45.6,45.6,0,0,0,22.6,6.057m-.79-12.105a63.74,63.74,0,0,0,18.131-2.293l1.416-.415-.211-1.542C54.651,8.977,47.225,4.525,39.612,4.415,31.45,4.3,23.445,9.11,22.475,19.361l-.047.626.861.2a71.405,71.405,0,0,0,13.647,1.6" transform="translate(-0.001 -0.004)"/>
        </g>
      </g>
    </g>
  </g>
</svg>
