<svg xmlns="http://www.w3.org/2000/svg" xmlns:xlink="http://www.w3.org/1999/xlink" width="107" height="107" viewBox="0 0 107 107">
  <defs>
    <clipPath id="clip-path">
      <rect id="Rectángulo_455202" data-name="Rectángulo 455202" width="51.206" height="55.765" fill="#ffd98a"/>
    </clipPath>
  </defs>
  <g id="Grupo_1177918" data-name="Grupo 1177918" transform="translate(-267 -6667)">
    <g id="Grupo_1177823" data-name="Grupo 1177823" transform="translate(-23 2)">
      <g id="Grupo_1119617" data-name="Grupo 1119617" transform="translate(-50.5 -2028)">
        <g id="Grupo_156312" data-name="Grupo 156312" transform="translate(51.832 4244.563)">
          <path id="Elipse_5845" data-name="Elipse 5845" d="M53.5,0A53.5,53.5,0,1,1,0,53.5,53.5,53.5,0,0,1,53.5,0Z" transform="translate(288.668 4448.437)" fill="#19632c"/>
        </g>
      </g>
      <g id="Grupo_1177816" data-name="Grupo 1177816" transform="translate(316.456 6687.235)">
        <g id="Grupo_1177815" data-name="Grupo 1177815" transform="translate(0 0)" clip-path="url(#clip-path)">
          <path id="Trazado_999993" data-name="Trazado 999993" d="M19.338,11.431a30,30,0,0,0-5.009,7.458H7.671a20.817,20.817,0,0,1,11.667-7.458M13.023,22.15a30.02,30.02,0,0,0-1.494,7.916h-8.2A20.672,20.672,0,0,1,5.576,22.15ZM11.53,33.327a29.887,29.887,0,0,0,1.515,7.917H5.578a20.673,20.673,0,0,1-2.253-7.917Zm2.829,11.178A30.474,30.474,0,0,0,19.37,51.97a20.824,20.824,0,0,1-11.7-7.465Zm3.643,0H30.155a26.967,26.967,0,0,1-6.066,7.526A26.985,26.985,0,0,1,18,44.505M14.8,33.327H33.354a26.758,26.758,0,0,1-1.7,7.917H16.5a26.663,26.663,0,0,1-1.7-7.917M33.808,44.505h6.656a20.806,20.806,0,0,1-11.646,7.451,30.341,30.341,0,0,0,4.99-7.451m.613-26.859c-.967-4.624.57-9.359,2.968-13.305a33.946,33.946,0,0,1,8.784,9.143c3.082,5.188,2.355,9.339-1,13.4l-.2.24c-.82-5.463-3.06-13.064-6.857-16.271a86.041,86.041,0,0,1,3.926,16.777c-3.685-2.282-6.686-5.537-7.616-9.988M36.606,0c-3.786,5.425-6.616,11.436-5.187,18.273.9,4.322,3.522,8.265,8.084,11.367a20.6,20.6,0,0,0,4.625,2.373,16.969,16.969,0,0,0,3.429-3.206c4.134-5.048,5.033-10.527,1.252-16.889C45.861,6.956,41.254,3.282,36.606,0M30.522,8.505A24.071,24.071,0,1,0,48.106,30.5,11.8,11.8,0,0,1,44.8,33.325a20.278,20.278,0,0,1-2.241,7.921H35.116a30.025,30.025,0,0,0,1.506-7.917l6.965,0a22.173,22.173,0,0,1-11.07-8.548,26.973,26.973,0,0,1,.84,5.29H14.8a26.761,26.761,0,0,1,1.686-7.916H31.09a18.57,18.57,0,0,1-1.077-3.262H17.982a26.675,26.675,0,0,1,6.088-7.515,26.632,26.632,0,0,1,5.842,7.037,20.359,20.359,0,0,1,.61-9.906" transform="translate(0 0)" fill="#ffd98a" fill-rule="evenodd"/>
        </g>
      </g>
    </g>
  </g>
</svg>
