<svg xmlns="http://www.w3.org/2000/svg" xmlns:xlink="http://www.w3.org/1999/xlink" width="107" height="107" viewBox="0 0 107 107">
  <defs>
    <clipPath id="clip-path">
      <rect id="Rectángulo_455203" data-name="Rectángulo 455203" width="43.237" height="58.671" fill="#ffd98a"/>
    </clipPath>
  </defs>
  <g id="Grupo_1177919" data-name="Grupo 1177919" transform="translate(-244 -6820.127)">
    <g id="Grupo_1177822" data-name="Grupo 1177822" transform="translate(-46 -8)">
      <g id="Grupo_156312" data-name="Grupo 156312" transform="translate(1.332 2379.69)">
        <path id="Elipse_5845" data-name="Elipse 5845" d="M53.5,0A53.5,53.5,0,1,1,0,53.5,53.5,53.5,0,0,1,53.5,0Z" transform="translate(288.668 4448.437)" fill="#19632c"/>
      </g>
      <g id="Grupo_1177818" data-name="Grupo 1177818" transform="translate(319.734 6851.313)">
        <g id="Grupo_1177817" data-name="Grupo 1177817" transform="translate(0 0)" clip-path="url(#clip-path)">
          <path id="Trazado_999994" data-name="Trazado 999994" d="M11.516,25.019c3.9,0,7.939,1.471,10.1,4.344,3.755-4.992,12.8-5.672,18.043-2.04a7.51,7.51,0,0,1,3.573,6.106V50.321c0,9.065-16.21,11.25-21.616,4.066C16.149,61.655,0,59.265,0,50.321V33.428c0-5.33,6.093-8.409,11.516-8.409M40.4,50.506c-4.58,3.814-12.785,3.814-17.363,0,.377,7.123,16.989,7.039,17.363,0M23.033,44.959c0,4.886,9.521,7.6,15.028,3.785a4.675,4.675,0,0,0,2.346-4.009c-4.58,3.822-12.793,3.822-17.373,0Zm0-5.766c0,4.886,9.521,7.6,15.028,3.785a4.675,4.675,0,0,0,2.346-4.009c-4.58,3.819-12.793,3.819-17.373,0Zm0-5.766c0,7.372,17.336,7.229,17.376.062.015-2.9-3.592-5.64-8.69-5.64-3.829,0-8.685,2-8.685,5.578M20.2,13.783c-3.452-.365-12.226-2.2-14.971-11.443A1.409,1.409,0,0,1,6.187.591C7.012.32,18.551-3.186,22.6,10.654,27.562,2.333,36.333,5,37.048,5.233A1.409,1.409,0,0,1,38,6.983c-2.745,9.245-11.519,11.078-14.968,11.443v4.738a1.414,1.414,0,0,1-2.829,0ZM8.446,2.959c2.481,5.884,8.254,7.493,11.268,7.931C17.031,2.7,11.149,2.548,8.446,2.959M23.523,15.533c3.011-.439,8.784-2.048,11.265-7.931-2.705-.411-8.584-.256-11.265,7.931M20.2,44.735c-4.583,3.822-12.8,3.822-17.376,0,0,7.707,17.376,7.69,17.376,0M20.2,50.506c-4.578,3.814-12.783,3.814-17.363,0,.377,7.123,16.991,7.039,17.363,0M20.2,38.97c-4.583,3.819-12.8,3.819-17.376,0,0,7.707,17.376,7.69,17.376,0M2.829,33.428c0,7.436,17.519,7.185,17.376-.027-.057-2.866-3.644-5.551-8.688-5.551-3.831,0-8.688,2-8.688,5.578" transform="translate(0 0)" fill="#ffd98a"/>
        </g>
      </g>
    </g>
  </g>
</svg>
