<svg xmlns="http://www.w3.org/2000/svg" xmlns:xlink="http://www.w3.org/1999/xlink" width="416" height="318.232" viewBox="0 0 416 318.232">
  <defs>
    <clipPath id="clip-path">
      <rect id="Rectángulo_455008" data-name="Rectángulo 455008" width="416" height="318.232" transform="translate(498.371 753.735)" fill="#e7efe9"/>
    </clipPath>
    <clipPath id="clip-path-2">
      <rect id="Rectángulo_455007" data-name="Rectángulo 455007" width="325.144" height="378.365" fill="none"/>
    </clipPath>
    <clipPath id="clip-path-4">
      <rect id="Rectángulo_455005" data-name="Rectángulo 455005" width="40.973" height="12.386" fill="none"/>
    </clipPath>
  </defs>
  <g id="Grupo_1177862" data-name="Grupo 1177862" transform="translate(-478 -737.815)">
    <g id="Grupo_1177861" data-name="Grupo 1177861" transform="translate(-20.371 -15.92)">
      <rect id="Rectángulo_402012" data-name="Rectángulo 402012" width="416" height="318.232" transform="translate(498.371 753.735)" fill="#a3c0aa"/>
    </g>
    <g id="Enmascarar_grupo_1119187" data-name="Enmascarar grupo 1119187" transform="translate(-20.371 -15.92)" clip-path="url(#clip-path)">
      <g id="Grupo_1177532" data-name="Grupo 1177532" transform="translate(532.711 779.5)">
        <g id="Grupo_1177531" data-name="Grupo 1177531" clip-path="url(#clip-path-2)">
          <g id="Grupo_1177530" data-name="Grupo 1177530" transform="translate(0 0)">
            <g id="Grupo_1177529" data-name="Grupo 1177529" clip-path="url(#clip-path-2)">
              <path id="Trazado_996873" data-name="Trazado 996873" d="M464.769,1751.323l-20.911-.812s-25.89-130.86-26.589-128.654S407.119,1725.469,404.8,1736.5s-5,10.106-7.008,11.654-20.751-2.013-20.751-2.013,4.345-158.9,5.855-158.9c1.093,0,33.229-2.317,51.638-3.061,7-.284,12.011-.342,12.587.043a9.733,9.733,0,0,1,1.776,3.018c3.34,7.242,9.644,25.8,12.675,39.624q.286,1.3.53,2.535c3.37,17.072,2.9,99.849,2.664,109.491s0,12.426,0,12.426" transform="translate(-335.442 -1409.208)" fill="#ffd98a"/>
              <path id="Trazado_996874" data-name="Trazado 996874" d="M884.557,2809.438s33.316-2.378,33.807-1.941-2.2,45.051-1.548,52.4,1.535,9.356,1.06,9.782-26.186,1.419-26.642,1.3-1.953-28.95-3.04-35.139-4.259-25.626-3.638-26.394" transform="translate(-786.898 -2497.716)" fill="#7b5e3f"/>
              <path id="Trazado_996875" data-name="Trazado 996875" d="M929.059,3301.4c2.685-3.371,5.215-4.689,16.224-5.82s12.339,9.018,11.895,9.094-30.468,2.712-30.555,2.493a37.444,37.444,0,0,1,2.437-5.767" transform="translate(-824.391 -2931.925)" fill="#8e6e51"/>
              <path id="Trazado_996876" data-name="Trazado 996876" d="M921.51,3379.517s31.288-2.76,31.37-2.639.5,3.887.228,3.978-31.691,1.834-31.691,1.834-.325-2.734.092-3.173" transform="translate(-819.656 -3004.324)" fill="#5e422a"/>
              <path id="Trazado_996877" data-name="Trazado 996877" d="M482.7,744.844s-8.5-46.17-11.616-47.71a32.429,32.429,0,0,0-7.044-2.3s-14.014-3.329-21.68-1.084-10.646,4.529-10.646,4.529-14.363,12.04-14.982,13.124,2.119,33.812,2.119,33.812,45.809,12.012,63.849-.37" transform="translate(-370.677 -616.52)" fill="#fff"/>
              <path id="Trazado_996878" data-name="Trazado 996878" d="M495.817,1212.364h-66s-.284-48.183.724-49.344,18.476,1.186,35.28,1.339a190.677,190.677,0,0,0,24.854-1.48,14.1,14.1,0,0,1,3.717-.229c.849.47,1.427,49.713,1.427,49.713" transform="translate(-382.364 -1034.326)" fill="#ffd98a"/>
              <path id="Trazado_996879" data-name="Trazado 996879" d="M678.176,1251.99c-3.762-6.277-13.315-3.573-15.534-6.893-2.442-3.656-.379-21.3-.02-25.214s-4.144-1.666-15.627.065c-11.333,1.709-26.1-3.139-26.49-3.269.153.023,2.761.312,20.009-3.659.9-.209,1.766-.425,2.6-.656a40.556,40.556,0,0,0,8.028-3.061c8.87-4.649,11.155-11.587,11.446-20.15.384-11.292-2.226-26.274-2.226-26.274a14.114,14.114,0,0,1,3.716-.229c.849.47,1.427,49.713,1.427,49.713,3.339,7.242,9.644,25.8,12.675,39.624" transform="translate(-552.049 -1034.327)" fill="#603914"/>
              <path id="Trazado_996880" data-name="Trazado 996880" d="M489.213,783.016s2.305-45.693,2.538-45.984,5.381-1.723,5.73-1.259,0,48.392,0,48.392Z" transform="translate(-435.241 -654.518)" fill="#ffd98a"/>
              <path id="Trazado_996881" data-name="Trazado 996881" d="M828.8,709.849s7.046.773,7.356,2.942-.62,49.166-1.471,49.476-8.052,0-8.052,0,1.626-51.024,2.168-52.418" transform="translate(-735.431 -631.536)" fill="#ffd98a"/>
              <path id="Trazado_996882" data-name="Trazado 996882" d="M643.592,549.47a10.4,10.4,0,0,1-20.462-1.8l-.088-1.171-.621-8.287-.525-6.993-.231-3.065-.138-1.84,20.756-1.51.377,5.048.292,3.885.837,11.164.1,1.261a10.324,10.324,0,0,1-.291,3.307" transform="translate(-552.958 -466.905)" fill="#fd9d81"/>
              <path id="Trazado_996883" data-name="Trazado 996883" d="M644.9,571.915a14.771,14.771,0,0,1-8.267,3.82c-6.315.95-10.195-.538-12.479-2.221l-.621-8.287-.525-6.993-.231-3.066,21.286,5.583Z" transform="translate(-554.074 -493.919)" fill="#df7361"/>
              <path id="Trazado_996884" data-name="Trazado 996884" d="M421.934,174.54c20.3,0,36.749,7.29,36.749,16.282S442.23,207.1,421.934,207.1s-36.749-7.29-36.749-16.282,16.453-16.282,36.749-16.282" transform="translate(-342.69 -155.284)" fill="#bca17e"/>
              <path id="Trazado_996885" data-name="Trazado 996885" d="M518.1,470.645c2.548-.692,5.371,1.537,6.3,4.977s-.374,6.79-2.922,7.482-5.371-1.537-6.3-4.977.374-6.79,2.922-7.482" transform="translate(-458.075 -418.609)" fill="#fd9d81"/>
              <path id="Trazado_996886" data-name="Trazado 996886" d="M863.014,458.75c.6-3.515,3.192-6.005,5.795-5.563s4.228,3.65,3.631,7.165-3.192,6.005-5.795,5.563-4.229-3.65-3.631-7.165" transform="translate(-767.693 -403.144)" fill="#fd9d81"/>
              <path id="Trazado_996887" data-name="Trazado 996887" d="M882.24,481.849c.335-1.969,1.788-3.365,3.247-3.117s2.369,2.045,2.035,4.015-1.788,3.365-3.247,3.117-2.37-2.045-2.035-4.015" transform="translate(-784.846 -425.891)" fill="#df7361"/>
              <path id="Trazado_996888" data-name="Trazado 996888" d="M536.27,495.927c1.428-.388,3.009.861,3.533,2.789s-.21,3.8-1.637,4.192-3.009-.861-3.533-2.789.21-3.8,1.637-4.192" transform="translate(-475.499 -441.152)" fill="#df7361"/>
              <path id="Trazado_996889" data-name="Trazado 996889" d="M588.621,318.007c.734,15.162-7.531,29.5-18.555,30.029s-20.633-12.936-21.367-28.1,5.964-17.707,16.988-18.241,22.2,1.147,22.934,16.309" transform="translate(-488.117 -268.339)" fill="#fd9d81"/>
              <path id="Trazado_996890" data-name="Trazado 996890" d="M512.882,298.672s-5.527-16.28-4.94-21.128,5.96-4.724,6.9-4.441,2.719,6.386,2.886,10.978-5.029,14.828-4.851,14.592" transform="translate(-451.865 -242.873)" fill="#231f20"/>
              <path id="Trazado_996891" data-name="Trazado 996891" d="M562.578,206.308s1.716-9.064,14.236-8.356,21.07,6.867,23.973,6.507-.71,12.486-12.939,13.278-18.9-3.715-22.488-1.93-4.927-7.789-2.782-9.5" transform="translate(-499.597 -176.078)" fill="#231f20"/>
              <path id="Trazado_996892" data-name="Trazado 996892" d="M865.818,320.989s3.507,6.109.662,18.459c0,0-5.507-9.28-5.491-14.18s4.829-4.279,4.829-4.279" transform="translate(-766.001 -285.554)" fill="#231f20"/>
              <path id="Trazado_996893" data-name="Trazado 996893" d="M711.448,353s9.234,2.949,13.451,1.832,5.005-3.711,5.005-3.711" transform="translate(-632.958 -312.38)" fill="none" stroke="#231f20" stroke-miterlimit="10" stroke-width="7.768"/>
              <path id="Trazado_996894" data-name="Trazado 996894" d="M559.865,90.736a5.952,5.952,0,0,1-.444,1.736c-.985,1.842-42.588-.773-42.588-.773s4.015-14.381,6.558-16.05,16.087-.782,21.842-1.575c1.071-.148,2.168-.249,3.252-.3h0c4.731-.2,9.225.672,10.459,3.506s1.425,9.942.919,13.452" transform="translate(-459.814 -65.613)" fill="#d8bb9c"/>
              <path id="Trazado_996895" data-name="Trazado 996895" d="M673.252,90.736c-9.177,1.687-34.18-3.32-28-6.918,7.271-4.235,19.943.484,22.4.832s4.62-2.7,3.124-6.052c-1.481-3.326-8.786-4.8-8.9-4.821,4.731-.2,9.225.672,10.459,3.506s1.426,9.942.919,13.452" transform="translate(-573.2 -65.613)" fill="#bca17e"/>
              <path id="Trazado_996896" data-name="Trazado 996896" d="M388.589,197.7c6.426-4.735,18.124-7.909,31.493-7.921,14.778-.013,27.52,3.841,33.361,9.409,3.329-2.453,5.244-5.325,5.241-8.394-.008-8.992-16.468-16.267-36.764-16.249s-36.742,7.323-36.734,16.315c0,2.445,1.222,4.762,3.4,6.841" transform="translate(-342.691 -155.284)" fill="#d8bb9c"/>
              <path id="Trazado_996897" data-name="Trazado 996897" d="M605.314,1263.813l25.278.855s1.711,18.049-11.976,18.648c-12.915.565-13.3-19.5-13.3-19.5" transform="translate(-538.534 -1124.384)" fill="#603914"/>
              <path id="Trazado_996898" data-name="Trazado 996898" d="M206.05,2921.41c.208,2.919.25,5.043-.152,5.258-.966.52-15.978,1.92-16.354,1.681s-.327-2.233-.728-2.2a14.9,14.9,0,0,1-6.455,3.044c-5.061,1.266-30.472.992-30.232-3.118a13.042,13.042,0,0,0,0-1.4c-.181-3.409-1.088-6.007,8.284-7.979,10.624-2.234,12.393-11.651,12.886-24.116s-.15-22.511,1.288-23.064c0,0,33.84-2.5,34.377-1.289s-4.356,32.182-4.023,39.238c.194,4.131.822,9.831,1.114,13.952" transform="translate(-135.246 -2551.492)" fill="#7b5e3f"/>
              <path id="Trazado_996899" data-name="Trazado 996899" d="M206.921,3353.022c.208,2.919.25,5.043-.152,5.258-.966.52-15.978,1.92-16.354,1.681s-.327-2.233-.728-2.2a14.9,14.9,0,0,1-6.455,3.045c-5.061,1.265-30.472.992-30.232-3.118a13.046,13.046,0,0,0,0-1.4c2.929,1.181,8.567,2.794,17,2.5,13.052-.452,19.3-4.492,19.875-4.621s.942,1.276,1.929,1.292c.837.017,11.778-1.858,15.117-2.43" transform="translate(-136.117 -2983.104)" fill="#5e422a"/>
              <path id="Trazado_996900" data-name="Trazado 996900" d="M429.778,1038.922l3.614-4.978-2.923,13.778Z" transform="translate(-382.363 -919.875)" fill="#e0e0e0"/>
              <path id="Trazado_996901" data-name="Trazado 996901" d="M2015.019,1691.692l-20.308-.788s-25.143-127.085-25.822-124.942-9.857,100.622-12.112,111.335-4.851,9.815-6.806,11.318-20.152-1.955-20.152-1.955,4.22-154.311,5.687-154.311c1.062,0,32.271-2.25,50.148-2.972,6.794-.276,11.665-.332,12.224.042a9.45,9.45,0,0,1,1.725,2.931c3.243,7.033,9.366,25.055,12.309,38.481.185.839.356,1.662.515,2.462,3.272,16.58,2.812,96.969,2.587,106.332s.005,12.067.005,12.067" transform="translate(-1716.914 -1360.451)" fill="#ff9e43"/>
              <path id="Trazado_996902" data-name="Trazado 996902" d="M2422.7,2719.28s32.354-2.31,32.831-1.885-2.138,43.751-1.5,50.884,1.49,9.086,1.03,9.5-25.43,1.378-25.874,1.258-1.9-28.115-2.952-34.125-4.135-24.887-3.532-25.632" transform="translate(-2155.348 -2417.556)" fill="#7b5e3f"/>
              <path id="Trazado_996903" data-name="Trazado 996903" d="M2465.916,3197.055c2.607-3.273,5.065-4.554,15.756-5.652s11.983,8.758,11.551,8.831-29.589,2.634-29.674,2.421a36.346,36.346,0,0,1,2.367-5.6" transform="translate(-2191.759 -2839.24)" fill="#8e6e51"/>
              <path id="Trazado_996904" data-name="Trazado 996904" d="M2458.584,3272.914s30.385-2.68,30.465-2.563.483,3.775.222,3.862-30.776,1.782-30.776,1.782-.315-2.655.09-3.081" transform="translate(-2187.16 -2909.55)" fill="#5e422a"/>
              <path id="Trazado_996905" data-name="Trazado 996905" d="M2032.435,714.251s-8.259-44.838-11.281-46.334a31.49,31.49,0,0,0-6.841-2.235s-13.61-3.233-21.054-1.053-10.339,4.4-10.339,4.4-13.949,11.693-14.55,12.745,2.057,32.836,2.057,32.836,44.487,11.666,62.007-.359" transform="translate(-1751.134 -590.633)" fill="#fff"/>
              <path id="Trazado_996906" data-name="Trazado 996906" d="M2045.172,1168.282h-64.1s-.276-46.793.7-47.92,17.943,1.152,34.262,1.3a185.139,185.139,0,0,0,24.137-1.437,13.715,13.715,0,0,1,3.609-.222c.825.456,1.386,48.279,1.386,48.279" transform="translate(-1762.484 -996.385)" fill="#ff9e43"/>
              <path id="Trazado_996907" data-name="Trazado 996907" d="M2222.269,1206.763c-3.653-6.1-12.931-3.47-15.086-6.694-2.372-3.551-.678-11.775-.678-11.775s-3.553,2.679-6.169-3.241,6.479-5.669,6.828-9.471-4.024-1.618-15.176.064c-11.006,1.659-25.345-3.048-25.726-3.175.149.022,2.682.3,19.432-3.553.874-.2,1.715-.412,2.521-.637a39.379,39.379,0,0,0,7.8-2.972c8.615-4.514,10.833-11.252,11.116-19.569.373-10.967-2.162-25.516-2.162-25.516a13.715,13.715,0,0,1,3.609-.222c.825.456,1.386,48.279,1.386,48.279,3.244,7.033,9.366,25.055,12.31,38.481" transform="translate(-1927.271 -996.385)" fill="#ffd98a"/>
              <path id="Trazado_996908" data-name="Trazado 996908" d="M1604.01,1153.309l6.945,30.512-12.54,4.09-14.8-42.416Z" transform="translate(-1408.906 -1019.119)" fill="#fd9d81"/>
              <path id="Trazado_996909" data-name="Trazado 996909" d="M1660.6,728.425s-7.063,1.971-18.878,9.947-28.185,26.573-30.481,31.3,19.177,11.022,20.951,10.843,19.046-14.956,21.73-20.937c.184-3.444,3.417-8.358,4.885-14.693a86.465,86.465,0,0,0,1.794-16.457" transform="translate(-1433.327 -648.062)" fill="#fff"/>
              <path id="Trazado_996910" data-name="Trazado 996910" d="M1591.983,1072.185s-20.025-16.069-21.827-15.9-4.468,4.312-4.633,5.046-1.986,1.634-1.855,4.477,23.254,14.136,24.447,13.634-2.191-5.792.2-5.889,3.6.463,3.665-1.372" transform="translate(-1391.151 -939.754)" fill="#e0e0e0"/>
              <path id="Trazado_996911" data-name="Trazado 996911" d="M2686.369,1128.441l-6.945,30.512,12.54,4.091,14.8-42.416Z" transform="translate(-2383.82 -996.995)" fill="#fd9d81"/>
              <path id="Trazado_996912" data-name="Trazado 996912" d="M2450.81,703.558s7.063,1.971,18.878,9.947,28.185,26.573,30.481,31.3-19.177,11.022-20.951,10.843-19.046-14.956-21.73-20.937c-.184-3.444-3.417-8.358-4.885-14.693a86.463,86.463,0,0,1-1.793-16.457" transform="translate(-2180.427 -625.939)" fill="#fff"/>
              <path id="Trazado_996913" data-name="Trazado 996913" d="M2690.457,1047.318s20.025-16.069,21.827-15.9,4.468,4.313,4.633,5.046,1.986,1.634,1.855,4.477-23.254,14.136-24.446,13.634,2.191-5.792-.2-5.889-3.6.463-3.665-1.372" transform="translate(-2393.636 -917.63)" fill="#e0e0e0"/>
              <path id="Trazado_996914" data-name="Trazado 996914" d="M2151.51,1218.247l24.548.831s1.662,17.529-11.63,18.11c-12.542.549-12.918-18.941-12.918-18.941" transform="translate(-1914.147 -1083.845)" fill="#ffd98a"/>
              <path id="Trazado_996915" data-name="Trazado 996915" d="M1763.766,2828.023c.2,2.835.243,4.9-.148,5.107-.938.5-15.517,1.865-15.882,1.632s-.317-2.169-.708-2.14a14.477,14.477,0,0,1-6.269,2.957c-4.915,1.229-29.592.963-29.36-3.028a12.61,12.61,0,0,0,0-1.363c-.175-3.311-1.057-5.834,8.045-7.748,10.318-2.17,12.035-11.315,12.514-23.42s-.146-21.861,1.25-22.4c0,0,32.864-2.43,33.385-1.251s-4.23,31.254-3.907,38.105c.189,4.012.8,9.548,1.082,13.55" transform="translate(-1522.495 -2469.781)" fill="#7b5e3f"/>
              <path id="Trazado_996916" data-name="Trazado 996916" d="M1764.613,3247.183c.2,2.835.243,4.9-.148,5.106-.938.5-15.517,1.865-15.882,1.633s-.318-2.169-.708-2.14a14.471,14.471,0,0,1-6.269,2.957c-4.915,1.229-29.592.963-29.36-3.028a12.606,12.606,0,0,0,0-1.363c2.844,1.147,8.32,2.713,16.514,2.429,12.676-.439,18.745-4.363,19.3-4.488s.915,1.239,1.874,1.255c.813.016,11.438-1.8,14.68-2.36" transform="translate(-1523.342 -2888.941)" fill="#5e422a"/>
              <path id="Trazado_996917" data-name="Trazado 996917" d="M1981.038,999.843l3.51-4.835-2.839,13.381Z" transform="translate(-1762.483 -885.235)" fill="#e0e0e0"/>
              <path id="Trazado_996918" data-name="Trazado 996918" d="M1990.224,113.89c22.954,0,41.563,8.245,41.563,18.415s-18.608,18.415-41.562,18.415-41.563-8.245-41.563-18.415,18.608-18.415,41.563-18.415" transform="translate(-1733.678 -101.325)" fill="#bca17e"/>
              <path id="Trazado_996919" data-name="Trazado 996919" d="M2186.69,568.153l15.9.019.017-4.436.022-7.009-13.89-1.61-.927,5.879Z" transform="translate(-1945.447 -493.875)" fill="#fd9d81"/>
              <path id="Trazado_996920" data-name="Trazado 996920" d="M2336.933,428.709a11.3,11.3,0,1,1,0,15.978,11.3,11.3,0,0,1,0-15.978" transform="translate(-2076.17 -378.468)" fill="#5b2918"/>
              <path id="Trazado_996921" data-name="Trazado 996921" d="M2344.255,433.088a11.3,11.3,0,0,0,16.366,11.413,11.3,11.3,0,1,1-11.1-19.658,11.273,11.273,0,0,0-5.267,8.245" transform="translate(-2084.843 -377.972)" fill="#4c2014"/>
              <path id="Trazado_996922" data-name="Trazado 996922" d="M2399.319,449.518a9.2,9.2,0,0,0-13.377-9.213,9.2,9.2,0,1,1,9.129,15.95,9.179,9.179,0,0,0,4.248-6.737" transform="translate(-2122.716 -390.474)" fill="#4c2014"/>
              <path id="Trazado_996923" data-name="Trazado 996923" d="M2417.708,448.121a11.3,11.3,0,0,0-15.551-12.5,11.3,11.3,0,1,1,9.734,20.369,11.275,11.275,0,0,0,5.816-7.867" transform="translate(-2137.142 -386.39)" fill="#5b2918"/>
              <path id="Trazado_996924" data-name="Trazado 996924" d="M2342.11,468.62a11.3,11.3,0,0,0,16.366,11.413,11.3,11.3,0,1,1-11.1-19.659,11.273,11.273,0,0,0-5.267,8.245" transform="translate(-2082.935 -409.584)" fill="#5b2918"/>
              <path id="Trazado_996925" data-name="Trazado 996925" d="M2378.969,449.482a11.29,11.29,0,0,0-14.034,10.055,11.3,11.3,0,1,1,22.548.388,11.3,11.3,0,0,0-8.514-10.443" transform="translate(-2104.016 -398.333)" fill="#5b2918"/>
              <path id="Trazado_996926" data-name="Trazado 996926" d="M2138.428,658.12s-9.276,9.718-22.246,9.7c-9.754-.011-12.888-2.893-14.876-7.756-.657-1.6-.128-2.578.034-2.68.428-.268,7.516-2.522,7.572-2.549a7.126,7.126,0,0,0,2.635-2.807l13.935.016,2.621,1.23,6.108,2.3Z" transform="translate(-1869.196 -580.095)" fill="#fd9d81"/>
              <path id="Trazado_996927" data-name="Trazado 996927" d="M2196.9,561a14.327,14.327,0,0,0,7.344,3.637,14.1,14.1,0,0,0,7.451-.9l.023-7.009-13.89-1.61Z" transform="translate(-1954.532 -493.874)" fill="#df7361"/>
              <path id="Trazado_996928" data-name="Trazado 996928" d="M2417.6,399.657c1.324-3.323,4.393-5.221,6.853-4.24s3.382,4.47,2.057,7.792-4.393,5.221-6.854,4.24-3.382-4.47-2.057-7.792" transform="translate(-2150.346 -351.563)" fill="#fd9d81"/>
              <path id="Trazado_996929" data-name="Trazado 996929" d="M2079.427,336.753c2.645-.143,4.946,2.636,5.14,6.207s-1.794,6.583-4.439,6.726-4.946-2.636-5.139-6.207,1.794-6.583,4.439-6.726" transform="translate(-1846.056 -299.596)" fill="#fd9d81"/>
              <path id="Trazado_996930" data-name="Trazado 996930" d="M2096.605,362.557c1.482-.08,2.771,1.477,2.88,3.478s-1,3.689-2.487,3.769-2.771-1.477-2.88-3.478,1.005-3.689,2.487-3.769" transform="translate(-1863.081 -322.556)" fill="#df7361"/>
              <path id="Trazado_996931" data-name="Trazado 996931" d="M2437.5,422.683c.742-1.862,2.462-2.925,3.84-2.376s1.9,2.5,1.153,4.366-2.461,2.925-3.84,2.376-1.9-2.5-1.153-4.366" transform="translate(-2168.288 -373.809)" fill="#df7361"/>
              <path id="Trazado_996932" data-name="Trazado 996932" d="M2117.143,218.118c-2.466,15.03,4.132,30.264,15.06,32.057,6.729,1.1,13.53-3.145,18.339-10.081a36.9,36.9,0,0,0,4.1-7.812q.66-1.72,1.166-3.532h0a.012.012,0,0,1,0-.007,38.935,38.935,0,0,0,.862-3.851c.017-.093.032-.186.048-.28a35,35,0,0,0,.524-6.244c-.077-4.369-1.312-7.3-3.477-9.344-2.682-2.536-6.792-3.7-11.894-4.539-10.929-1.792-22.262-1.4-24.727,13.634" transform="translate(-1883.113 -181.266)" fill="#fd9d81"/>
              <path id="Trazado_996933" data-name="Trazado 996933" d="M2471.742,430.342l0,.005h0c0,.008.005.005,0-.006" transform="translate(-2199.047 -382.865)" fill="#231f20"/>
              <path id="Trazado_996934" data-name="Trazado 996934" d="M2107.122,111.86s-3.854,10.176-7.5,9.48c0,0,.777-4.416.133-4.8a7.271,7.271,0,0,1-1.581,4.524c-1.727,2.214-3.815,3.25-3.792,7.232s1.568,6.82.354,8.74-3.853,6.307-3.9,8.906.509,3.423.509,3.423-2.824-3.995-.6-7.808,3.516-5.785,2.558-7.6-1.846-8.438-.687-13.825.01-11.67,4.719-17.553c2.167-2.707,5.7-5.739,9.977-5.307,3.787-3.023,10.605-2.877,16.212-.716,10.387,4,13.347,13.523,13.047,22.183s-1.613,10.843-1.613,10.843a26.824,26.824,0,0,1-12.736-3.992c-5.85-3.858-9.473-11.527-11.474-13.343s-3.621-.387-3.621-.387" transform="translate(-1859.32 -84.488)" fill="#67321b"/>
              <path id="Trazado_996935" data-name="Trazado 996935" d="M2245.08,227.442s4.682.98,7.508,8.04,12.545,11.262,19.7,10.194,8.231-3.038,8.231-3.038-11.494,1.458-17.25-1.64-10.818-13.019-15.06-15.394-3.133,1.837-3.133,1.837" transform="translate(-1997.278 -200.069)" fill="#67321b"/>
              <path id="Trazado_996936" data-name="Trazado 996936" d="M2263.362,241.335c-5.756-3.1-10.818-13.019-15.06-15.394-2.192-1.227-2.955-.7-3.18.1.109-.96.756-1.834,3.245-.441,4.242,2.374,9.3,12.3,15.061,15.394s17.25,1.64,17.25,1.64a1.656,1.656,0,0,1-.325.367c-1.734.193-11.744,1.153-16.989-1.67" transform="translate(-1997.431 -200.069)" fill="#894933"/>
              <path id="Trazado_996937" data-name="Trazado 996937" d="M2419.537,407.33a23.966,23.966,0,0,0-1.384,5.73,20.978,20.978,0,0,1-2.493,7.587c-1.181,2.11-.152,6.035.938,7.87,0,0-.674-5.368.243-6.994,1.771-3.141,3.828-6.182,3.978-8s1.884-5.426,1.624-5.615a21.611,21.611,0,0,0-2.9-.577" transform="translate(-2148.688 -362.392)" fill="#67321b"/>
              <path id="Trazado_996938" data-name="Trazado 996938" d="M2293.3,171.775s7.878.274,9.4,4.746,4.308,11.113,9.006,12.428,5.725.249,5.725.249a10.626,10.626,0,0,1-7.792-2.386c-3.752-3.041-4.6-10.776-7.745-13.293a10.838,10.838,0,0,0-8.59-1.744" transform="translate(-2040.291 -152.596)" fill="#562717"/>
              <path id="Trazado_996939" data-name="Trazado 996939" d="M2146.315,19.22a6.74,6.74,0,0,1-.5,1.963c-1.115,2.082-48.166-.918-48.166-.918S2102.2,4,2105.078,2.12s18.195-.868,24.7-1.759c1.212-.166,2.452-.28,3.679-.332h0C2138.815-.2,2143.9.8,2145.29,4s1.6,11.246,1.025,15.216" transform="translate(-1866.225 0.002)" fill="#d8bb9c"/>
              <path id="Trazado_996940" data-name="Trazado 996940" d="M2274.607,19.22c-10.38,1.9-38.653-3.789-31.663-7.852,8.228-4.783,22.555.568,25.334.964s5.229-3.047,3.539-6.842c-1.672-3.763-9.932-5.435-10.06-5.461C2267.107-.2,2272.19.8,2273.582,4s1.6,11.245,1.025,15.215" transform="translate(-1994.517 0.001)" fill="#bca17e"/>
              <path id="Trazado_996941" data-name="Trazado 996941" d="M1952.507,140.044c7.272-5.349,20.506-8.927,35.626-8.927,16.714,0,31.121,4.372,37.721,10.675,3.768-2.771,5.936-6.017,5.936-9.488,0-10.17-18.608-18.415-41.562-18.415s-41.562,8.245-41.562,18.415c0,2.765,1.378,5.387,3.842,7.74" transform="translate(-1733.681 -101.324)" fill="#d8bb9c"/>
              <path id="Trazado_996942" data-name="Trazado 996942" d="M2038.759,742.5s2.239-44.375,2.465-44.657,6.179-2.8,6.517-2.351-.953,48.125-.953,48.125Z" transform="translate(-1813.836 -618.714)" fill="#ff9e43"/>
              <path id="Trazado_996943" data-name="Trazado 996943" d="M2380.151,683.175s6.707,1.01,7.008,3.116-.6,47.748-1.429,48.049-7.82,0-7.82,0,1.715-49.811,2.241-51.165" transform="translate(-2115.57 -607.804)" fill="#ff9e43"/>
              <path id="Trazado_996944" data-name="Trazado 996944" d="M1820.685,1666.161l-.178-2a30.813,30.813,0,1,1,61.385-5.453l.178,2Z" transform="translate(-1619.552 -1450.72)" fill="#398451" fill-rule="evenodd"/>
              <path id="Trazado_996945" data-name="Trazado 996945" d="M1860.141,1668.835l-.193-2.17c-1.632-18.371,8.924-34.318,23.576-35.62s27.854,12.535,29.486,30.906l.193,2.17Z" transform="translate(-1654.604 -1451.026)" fill="#235b34" fill-rule="evenodd"/>
              <path id="Trazado_996946" data-name="Trazado 996946" d="M1909.432,1668.6l-.193-2.17c-1.632-18.371,6.472-34.1,18.1-35.133s22.377,13.021,24.01,31.392l.193,2.17Z" transform="translate(-1698.419 -1451.28)" fill="#398451" fill-rule="evenodd"/>
              <path id="Trazado_996947" data-name="Trazado 996947" d="M1948.4,1668.375l-.193-2.17c-1.632-18.371,4.526-33.927,13.754-34.747s18.032,13.408,19.664,31.778l.193,2.17Z" transform="translate(-1733.036 -1451.438)" fill="#235b34" fill-rule="evenodd"/>
              <path id="Trazado_996948" data-name="Trazado 996948" d="M1998.31,1668.027l-.193-2.17c-1.632-18.371,2.01-33.7,8.134-34.248s12.411,13.907,14.043,32.278l.193,2.17Z" transform="translate(-1777.331 -1451.59)" fill="#398451" fill-rule="evenodd"/>
              <path id="Trazado_996949" data-name="Trazado 996949" d="M2061.492,1667.462l-.193-2.17c-1.632-18.371-1.386-33.4.55-33.574s4.827,14.581,6.459,32.951l.193,2.17Z" transform="translate(-1832.928 -1451.699)" fill="#235b34" fill-rule="evenodd"/>
              <path id="Trazado_996950" data-name="Trazado 996950" d="M1853.064,1847.467c16.951-1.506,31.032,1.085,31.45,5.789s-12.985,9.736-29.937,11.242-31.032-1.086-31.45-5.789,12.985-9.736,29.937-11.242" transform="translate(-1621.985 -1643.266)" fill="#d0ed80" fill-rule="evenodd"/>
              <path id="Trazado_996951" data-name="Trazado 996951" d="M1877.832,1855.508c15.261-1.356,27.937.977,28.313,5.211s-11.69,8.765-26.951,10.121-27.937-.977-28.313-5.211,11.69-8.766,26.951-10.121" transform="translate(-1646.677 -1650.458)" fill="#e15b42" fill-rule="evenodd"/>
              <path id="Trazado_996952" data-name="Trazado 996952" d="M1877.832,1855.508c15.261-1.356,27.937.977,28.313,5.211s-11.69,8.765-26.951,10.121-27.937-.977-28.313-5.211,11.69-8.766,26.951-10.121" transform="translate(-1646.677 -1650.458)" fill="#e15b42" fill-rule="evenodd"/>
              <path id="Trazado_996953" data-name="Trazado 996953" d="M1863.725,1870.906a3.457,3.457,0,0,1-1.852-2.449c-.376-4.234,11.69-8.765,26.95-10.121a86.312,86.312,0,0,1,15.374-.081c-4.094-2.617-14.481-3.826-26.461-2.762-15.26,1.356-27.327,5.887-26.95,10.121.237,2.669,5.361,4.582,12.939,5.293" transform="translate(-1646.593 -1650.444)" fill="#cc4736" fill-rule="evenodd"/>
              <g id="Grupo_1177528" data-name="Grupo 1177528" transform="translate(210.31 206.791)" opacity="0.43">
                <g id="Grupo_1177527" data-name="Grupo 1177527">
                  <g id="Grupo_1177526" data-name="Grupo 1177526" clip-path="url(#clip-path-4)">
                    <path id="Trazado_996954" data-name="Trazado 996954" d="M2173.9,1875.3a1.238,1.238,0,0,1,1-.9c.556-.049.882.234.729.634s-1.014,1.506-1.569,1.556-.314-.892-.161-1.291" transform="translate(-2144.209 -1874.398)" fill="#232322" fill-rule="evenodd"/>
                    <path id="Trazado_996955" data-name="Trazado 996955" d="M2074.82,1881.771a1.331,1.331,0,0,1,1.125-.815c.556-.049.882.234.729.634s-.663,1.069-1.219,1.118a.666.666,0,0,1-.635-.937" transform="translate(-2056.187 -1880.228)" fill="#232322" fill-rule="evenodd"/>
                    <path id="Trazado_996956" data-name="Trazado 996956" d="M2104.146,1921.489a2,2,0,0,1,1.739.065c.431.354.466.785.077.963a3.16,3.16,0,0,1-2.21.012c-.431-.354.006-.861.4-1.039" transform="translate(-2081.809 -1916.145)" fill="#232322" fill-rule="evenodd"/>
                    <path id="Trazado_996957" data-name="Trazado 996957" d="M2260.219,1915.819c.154-.4.434-.939.99-.989s.882.234.729.634-1.014,1.506-1.57,1.556-.3-.8-.149-1.2" transform="translate(-2221.002 -1910.365)" fill="#232322" fill-rule="evenodd"/>
                    <path id="Trazado_996958" data-name="Trazado 996958" d="M2152.719,1944.339a1.422,1.422,0,0,1,1.153-.866c.555-.049.882.234.729.634s-1.014,1.506-1.57,1.556-.465-.924-.312-1.324" transform="translate(-2125.429 -1935.847)" fill="#232322" fill-rule="evenodd"/>
                    <path id="Trazado_996959" data-name="Trazado 996959" d="M1958.979,1910.324a1.594,1.594,0,0,1,1.284-.812c.556-.05.882.234.729.634s-1.014,1.506-1.569,1.556-.6-.978-.443-1.377" transform="translate(-1953.098 -1905.633)" fill="#232322" fill-rule="evenodd"/>
                    <path id="Trazado_996960" data-name="Trazado 996960" d="M1957.774,1945.733a2.568,2.568,0,0,0-1.541-.375c-.517.046-.665.288-.331.541a5.271,5.271,0,0,0,2.162.845c.517-.046.043-.759-.291-1.012" transform="translate(-1950.271 -1937.523)" fill="#232322" fill-rule="evenodd"/>
                    <path id="Trazado_996961" data-name="Trazado 996961" d="M1908.346,1943.1a2.567,2.567,0,0,0-1.541-.375c-.517.046-.665.288-.331.541a5.271,5.271,0,0,0,2.162.845c.517-.046.044-.759-.29-1.012" transform="translate(-1906.297 -1935.185)" fill="#232322" fill-rule="evenodd"/>
                    <path id="Trazado_996962" data-name="Trazado 996962" d="M2031.025,1974.4a2.568,2.568,0,0,0-1.54-.375c-.517.046-.665.288-.331.541a5.271,5.271,0,0,0,2.162.845c.517-.046.044-.759-.29-1.012" transform="translate(-2015.441 -1963.023)" fill="#232322" fill-rule="evenodd"/>
                    <path id="Trazado_996963" data-name="Trazado 996963" d="M2025.713,1923.827a2.57,2.57,0,0,0-1.578.157c-.472.215-.532.493-.133.62a5.272,5.272,0,0,0,2.32.08c.472-.215-.211-.73-.609-.858" transform="translate(-2010.782 -1918.318)" fill="#232322" fill-rule="evenodd"/>
                  </g>
                </g>
              </g>
              <path id="Trazado_996964" data-name="Trazado 996964" d="M2172.193,1876.788a1.238,1.238,0,0,1,1-.9c.556-.049.882.234.729.634s-1.014,1.507-1.569,1.556-.314-.892-.161-1.292" transform="translate(-1932.383 -1668.929)" fill="#232322" fill-rule="evenodd"/>
              <path id="Trazado_996965" data-name="Trazado 996965" d="M2073.117,1883.256a1.33,1.33,0,0,1,1.125-.815c.556-.049.882.234.729.634s-.663,1.069-1.219,1.118a.666.666,0,0,1-.635-.937" transform="translate(-1844.362 -1674.758)" fill="#232322" fill-rule="evenodd"/>
              <path id="Trazado_996966" data-name="Trazado 996966" d="M2102.444,1922.975a2,2,0,0,1,1.739.065c.432.354.466.785.077.963a3.16,3.16,0,0,1-2.21.012c-.431-.354.006-.862.395-1.039" transform="translate(-1869.984 -1710.676)" fill="#232322" fill-rule="evenodd"/>
              <path id="Trazado_996967" data-name="Trazado 996967" d="M2258.517,1917.3c.153-.4.434-.939.99-.989s.882.234.729.634-1.014,1.506-1.57,1.556-.3-.8-.149-1.2" transform="translate(-2009.177 -1704.894)" fill="#232322" fill-rule="evenodd"/>
              <path id="Trazado_996968" data-name="Trazado 996968" d="M2151.016,1945.823a1.422,1.422,0,0,1,1.152-.866c.556-.049.882.234.729.634s-1.013,1.506-1.57,1.556-.465-.924-.312-1.323" transform="translate(-1913.604 -1730.377)" fill="#232322" fill-rule="evenodd"/>
              <path id="Trazado_996969" data-name="Trazado 996969" d="M1957.276,1911.81a1.6,1.6,0,0,1,1.284-.812c.556-.049.882.234.729.634s-1.014,1.506-1.57,1.556-.6-.978-.443-1.377" transform="translate(-1741.274 -1700.164)" fill="#232322" fill-rule="evenodd"/>
              <path id="Trazado_996970" data-name="Trazado 996970" d="M1956.071,1947.219a2.568,2.568,0,0,0-1.54-.375c-.517.046-.665.288-.331.541a5.272,5.272,0,0,0,2.162.845c.517-.046.044-.759-.29-1.012" transform="translate(-1738.446 -1732.054)" fill="#232322" fill-rule="evenodd"/>
              <path id="Trazado_996971" data-name="Trazado 996971" d="M1906.645,1944.589a2.567,2.567,0,0,0-1.54-.375c-.517.046-.665.288-.331.541a5.273,5.273,0,0,0,2.162.845c.517-.046.044-.759-.29-1.012" transform="translate(-1694.473 -1729.715)" fill="#232322" fill-rule="evenodd"/>
              <path id="Trazado_996972" data-name="Trazado 996972" d="M2029.321,1975.88a2.568,2.568,0,0,0-1.541-.375c-.517.046-.665.288-.331.541a5.277,5.277,0,0,0,2.162.845c.517-.046.044-.759-.29-1.012" transform="translate(-1803.615 -1757.553)" fill="#232322" fill-rule="evenodd"/>
              <path id="Trazado_996973" data-name="Trazado 996973" d="M2024.01,1925.313a2.568,2.568,0,0,0-1.578.157c-.472.215-.532.492-.133.62a5.268,5.268,0,0,0,2.32.08c.472-.215-.211-.73-.61-.858" transform="translate(-1798.957 -1712.849)" fill="#232322" fill-rule="evenodd"/>
              <path id="Trazado_996974" data-name="Trazado 996974" d="M2152.09,1624.851v.01c.044.711.118,1.423.222,2.131a9.769,9.769,0,0,0,.42,1.87,6.879,6.879,0,0,0,4.367,4.15,14.274,14.274,0,0,0,5.871.01s-.033-.065-.1-.181a9.46,9.46,0,0,0-4.771-4.072,13.459,13.459,0,0,1-6.005-3.918" transform="translate(-1914.663 -1445.591)" fill="#4f9d45"/>
              <path id="Trazado_996975" data-name="Trazado 996975" d="M2152.092,1624.946c.044.711.119,1.423.222,2.131a9.825,9.825,0,0,0,.42,1.87,6.879,6.879,0,0,0,4.367,4.15,14.278,14.278,0,0,0,5.871.01s-.033-.065-.1-.181l-.144-.062c-1.014-.455-1.994-.976-3.018-1.411-2.018-.857-4.179-1.615-5.674-3.219a10.789,10.789,0,0,1-1.941-3.287" transform="translate(-1914.665 -1445.676)" fill="#4f8945"/>
              <path id="Trazado_996976" data-name="Trazado 996976" d="M2162.972,1633.106a22.039,22.039,0,0,0-3.056-1.762c-.531-.258-1.074-.488-1.625-.7a11.575,11.575,0,0,1-1.562-.732,11.384,11.384,0,0,1-1.449-.937,11.04,11.04,0,0,1-1.3-1.134,9.506,9.506,0,0,1-1.091-1.341,8.152,8.152,0,0,1-.8-1.552,6.886,6.886,0,0,0,.618,1.658,8.228,8.228,0,0,0,1.026,1.459,10.53,10.53,0,0,0,2.787,2.217,11.344,11.344,0,0,0,1.629.737c.549.19,1.089.409,1.629.628,1.075.452,2.142.934,3.191,1.462" transform="translate(-1914.665 -1445.675)" fill="#367331"/>
              <path id="Trazado_996977" data-name="Trazado 996977" d="M2240.244,1648.169a2.708,2.708,0,0,1,.66-1.876,2.144,2.144,0,0,1,.694,1.01c.863,2.074,1.306,4.322,2.365,6.3a9.787,9.787,0,0,1,1.33,2.911c.074.461-1.693-.585-1.825-.7a8.855,8.855,0,0,1-1.8-2.166,9.7,9.7,0,0,1-1.426-5.485" transform="translate(-1993.082 -1464.668)" fill="#c25a2c"/>
              <path id="Trazado_996978" data-name="Trazado 996978" d="M2178.763,1670.2c2.27,5.967,4.523,17.97-8.962,23.1a16.059,16.059,0,0,1-2.376.693,16.284,16.284,0,0,1-8.312-.376,16.108,16.108,0,0,1-8.1-5.927,18.983,18.983,0,0,1-1.156-1.771c-.251-.437-.457-.834-.621-1.174-.228-.474-.377-.835-.456-1.034-.665-1.675-2.723-6.852-.131-10.776a6.228,6.228,0,0,1,3.055-2.69c3.054-1.062,5.609,1.55,9.811-.048a5.018,5.018,0,0,0,.467-.2c2.805-1.39,3.648-4.9,6.651-6.081l.13-.049c3.97-1.493,7.753.434,10,6.338" transform="translate(-1910.469 -1479.869)" fill="#ca441f"/>
              <path id="Trazado_996979" data-name="Trazado 996979" d="M2275.564,1678.9a15.3,15.3,0,0,1-2.741,8.921,15.7,15.7,0,0,1-8.365,5.612,19.474,19.474,0,0,1-10.688.318,16.113,16.113,0,0,0,3.358-.328,14.925,14.925,0,0,0,5.551-2.354,15.819,15.819,0,0,0,5.933-16.995,21.572,21.572,0,0,0-2.8-5.7,21.056,21.056,0,0,1-2.111-3.541,7.3,7.3,0,0,1-.283-.837,7.184,7.184,0,0,1,3.778-.35c5.353,1.051,8.5,9.056,8.366,15.254" transform="translate(-2005.126 -1480)" fill="#bc3621"/>
              <path id="Trazado_996980" data-name="Trazado 996980" d="M2196.9,1721.612a5.583,5.583,0,0,1-3.6,1.809c-2.03.167-3.906-.777-5.784-1.385a6.728,6.728,0,0,0-.89-.172c4.367-1.514,6.343,1.272,9.81-.047a5.029,5.029,0,0,0,.467-.2" transform="translate(-1945.384 -1531.488)" fill="#bc3621"/>
              <path id="Trazado_996981" data-name="Trazado 996981" d="M2287.216,1695.736a7.585,7.585,0,0,0-1.166,1.342c-.122.2-.211.486-.049.659a.6.6,0,0,0,.573.077,7.284,7.284,0,0,0,5.012-4.1c.227-.545.668-1.844-.186-2.052-.616-.15-1.44.624-1.8,1.025-.859.966-1.469,2.11-2.386,3.047" transform="translate(-2033.723 -1505.016)" fill="#fb6a3b"/>
              <path id="Trazado_996982" data-name="Trazado 996982" d="M2534.829,1541.266l-.007.008c-.452.55-.884,1.122-1.291,1.71a9.774,9.774,0,0,0-.968,1.654,6.879,6.879,0,0,0,.364,6.014,14.273,14.273,0,0,0,4.287,4.011s.02-.07.047-.2a9.458,9.458,0,0,0-.712-6.232,13.461,13.461,0,0,1-1.72-6.961" transform="translate(-2252.694 -1371.227)" fill="#4f9d45"/>
              <path id="Trazado_996983" data-name="Trazado 996983" d="M2534.822,1541.337c-.452.55-.884,1.122-1.291,1.71a9.774,9.774,0,0,0-.968,1.654,6.879,6.879,0,0,0,.364,6.014,14.281,14.281,0,0,0,4.287,4.012s.02-.07.047-.2c-.021-.047-.042-.093-.062-.143-.432-1.024-.793-2.073-1.245-3.09-.891-2-1.955-4.031-1.954-6.224a10.79,10.79,0,0,1,.822-3.728" transform="translate(-2252.694 -1371.291)" fill="#4f8945"/>
              <path id="Trazado_996984" data-name="Trazado 996984" d="M2552.2,1554.725a22.022,22.022,0,0,0-1.034-3.373c-.212-.55-.453-1.09-.709-1.622a11.62,11.62,0,0,1-.644-1.6,11.469,11.469,0,0,1-.42-1.674,11.069,11.069,0,0,1-.178-1.717,9.548,9.548,0,0,1,.117-1.725,8.147,8.147,0,0,1,.476-1.678,6.885,6.885,0,0,0-.678,1.634,8.235,8.235,0,0,0-.244,1.767,10.546,10.546,0,0,0,.526,3.522,11.365,11.365,0,0,0,.689,1.65c.272.514.518,1.042.763,1.571.478,1.063.929,2.143,1.336,3.245" transform="translate(-2267.682 -1371.29)" fill="#367331"/>
              <path id="Trazado_996985" data-name="Trazado 996985" d="M2572.193,1622.132a2.711,2.711,0,0,1,1.763-.922,2.139,2.139,0,0,1-.182,1.212c-.783,2.105-1.992,4.052-2.568,6.223a9.769,9.769,0,0,1-1.012,3.036c-.26.388-.839-1.583-.86-1.753a8.833,8.833,0,0,1,.162-2.811,9.7,9.7,0,0,1,2.7-4.984" transform="translate(-2285.831 -1442.352)" fill="#c25a2c"/>
              <path id="Trazado_996986" data-name="Trazado 996986" d="M2432.7,1653.635c-2.409,5.912-8.948,16.227-22.308,10.782a16.049,16.049,0,0,1-2.21-1.113,16.283,16.283,0,0,1-5.823-5.944,16.108,16.108,0,0,1-1.882-9.86,19.022,19.022,0,0,1,.363-2.083c.114-.49.235-.922.346-1.282.156-.5.294-.868.372-1.067.656-1.678,2.681-6.868,7.253-7.97a6.23,6.23,0,0,1,4.07.116c2.958,1.306,3.045,4.959,7.208,6.656.16.065.319.121.481.168,3,.9,6.008-1.094,9.012.089l.129.053c3.922,1.616,5.375,5.6,2.99,11.455" transform="translate(-2135.535 -1454.448)" fill="#ca441f"/>
              <path id="Trazado_996987" data-name="Trazado 996987" d="M2444.575,1720.826a15.292,15.292,0,0,1-8.088,4.655,15.7,15.7,0,0,1-9.946-1.6,19.476,19.476,0,0,1-8.034-7.057,16.111,16.111,0,0,0,2.68,2.05,14.925,14.925,0,0,0,5.665,2.065,15.82,15.82,0,0,0,15.93-8.383,21.556,21.556,0,0,0,1.84-6.078,21.073,21.073,0,0,1,.871-4.03,7.345,7.345,0,0,1,.365-.8,7.185,7.185,0,0,1,3,2.321c3.2,4.419.037,12.418-4.285,16.862" transform="translate(-2151.688 -1513.912)" fill="#bc3621"/>
              <path id="Trazado_996988" data-name="Trazado 996988" d="M2521.568,1645.333a5.584,5.584,0,0,1-3.868-1.134c-1.6-1.263-2.326-3.232-3.286-4.958a6.677,6.677,0,0,0-.534-.733c4.227,1.871,3.771,5.256,7.207,6.656a5.039,5.039,0,0,0,.481.169" transform="translate(-2236.539 -1457.741)" fill="#bc3621"/>
              <path id="Trazado_996989" data-name="Trazado 996989" d="M2574.843,1711.543a7.574,7.574,0,0,0-1.768.186c-.228.066-.486.211-.485.448,0,.2.192.345.367.447a7.285,7.285,0,0,0,6.46.421c.538-.244,1.745-.893,1.263-1.627-.348-.53-1.479-.526-2.013-.476-1.288.12-2.514.541-3.824.6" transform="translate(-2288.772 -1522.165)" fill="#fb6a3b"/>
              <path id="Trazado_996990" data-name="Trazado 996990" d="M1965.248,1614.793c-1.278,9.744.781,30.1,22.669,40.778s34.624-14.667,34.624-14.667l-1.011-1.7-.946-1.589s-10.163,8.244-23.7,5.286c-19.906-4.349-26.343-30.36-26.343-30.36l-3.1,1.32Z" transform="translate(-1748.172 -1434.64)" fill="#f4d43b"/>
              <path id="Trazado_996991" data-name="Trazado 996991" d="M1965.248,1625.436c-1.278,9.744.781,30.1,22.669,40.777s34.624-14.667,34.624-14.667l-1.011-1.7a47.669,47.669,0,0,0-3.221,3.655,28.373,28.373,0,0,1-13.178,7.763c-8.975,2.137-18.706-1.538-25.246-8.044s-10.175-15.48-11.752-24.568c-.238-1.38-.438-2.772-.7-4.149Z" transform="translate(-1748.172 -1445.283)" fill="#f4c53b"/>
              <path id="Trazado_996992" data-name="Trazado 996992" d="M1969.585,1609.193c-1.456.634-2.431,1.619-2.178,2.2s1.638.536,3.094-.1,2.431-1.619,2.179-2.2-1.638-.536-3.094.1" transform="translate(-1750.319 -1431.211)" fill="#ca7229"/>
              <path id="Trazado_996993" data-name="Trazado 996993" d="M2471.158,1795.589l5.87-3.224-2.6-5.956-5.223,5.892Z" transform="translate(-2196.789 -1589.326)" fill="#ca7229"/>
              <path id="Trazado_996994" data-name="Trazado 996994" d="M2013.543,1667.21c.08.24.123.574-.106.682-.174.082-.371-.042-.517-.166a6.407,6.407,0,0,1-2.049-3.292,2.35,2.35,0,0,1-.031-1.3.259.259,0,0,1,.083-.135.275.275,0,0,1,.223-.014c1.757.42,1.9,2.742,2.4,4.228" transform="translate(-1788.927 -1479.501)" fill="#fce360"/>
              <path id="Trazado_996995" data-name="Trazado 996995" d="M1866.1,1787.75c-2.08,41.385-29.339,45.641-70.955,42.868s-48.213-32.407-41.629-49.052c4.51-11.407,2.671-29.194,2.3-39.409-.172-4.691-.036-7.783,1.164-7.928,0,0,28.438,8.091,56.874,7.165s38.032-8.091,39.941-6.588c.6.475,2.135,4.464,3.923,10.169,3.853,12.308,8.9,32.6,8.387,42.775" transform="translate(-1558.1 -1542.902)" fill="#af896d"/>
              <path id="Trazado_996996" data-name="Trazado 996996" d="M1893.485,1744.975c-8.759,3.839-24.4,8.252-49.956,8.152-32.108-.122-46.383-7.011-51.946-10.971-.172-4.691-.036-7.783,1.164-7.928,0,0,28.438,8.091,56.874,7.165s38.032-8.091,39.941-6.588c.6.475,2.135,4.464,3.923,10.169" transform="translate(-1593.875 -1542.902)" fill="#6d4c35"/>
              <line id="Línea_3414" data-name="Línea 3414" x1="29.915" y2="41.615" transform="translate(218.465 216.134)" fill="none" stroke="#7c573d" stroke-linecap="round" stroke-miterlimit="10" stroke-width="6.156"/>
              <line id="Línea_3415" data-name="Línea 3415" x1="34.953" y2="47.619" transform="translate(225.359 218.103)" fill="none" stroke="#7c573d" stroke-linecap="round" stroke-miterlimit="10" stroke-width="6.156"/>
              <line id="Línea_3416" data-name="Línea 3416" x1="43.125" y2="57.28" transform="translate(232.331 216.134)" fill="none" stroke="#7c573d" stroke-linecap="round" stroke-miterlimit="10" stroke-width="6.156"/>
              <line id="Línea_3417" data-name="Línea 3417" x1="38.317" y2="53.303" transform="translate(244.462 221.203)" fill="none" stroke="#7c573d" stroke-linecap="round" stroke-miterlimit="10" stroke-width="6.156"/>
              <line id="Línea_3418" data-name="Línea 3418" x2="43.535" y2="27.045" transform="translate(237.163 216.942)" fill="none" stroke="#7c573d" stroke-linecap="round" stroke-miterlimit="10" stroke-width="6.156"/>
              <line id="Línea_3419" data-name="Línea 3419" x2="50.483" y2="30.672" transform="translate(226.886 223.317)" fill="none" stroke="#7c573d" stroke-linecap="round" stroke-miterlimit="10" stroke-width="6.156"/>
              <line id="Línea_3420" data-name="Línea 3420" x2="61.724" y2="36.481" transform="translate(212.137 227.277)" fill="none" stroke="#7c573d" stroke-linecap="round" stroke-miterlimit="10" stroke-width="6.156"/>
              <line id="Línea_3421" data-name="Línea 3421" x2="55.762" y2="34.641" transform="translate(207.303 234.758)" fill="none" stroke="#7c573d" stroke-linecap="round" stroke-miterlimit="10" stroke-width="6.156"/>
              <path id="Trazado_996997" data-name="Trazado 996997" d="M1885.191,1515.166c-3.586-57.716-92.833-57.716-96.42,0-.124,1.946-.962,3.611-2.015,3.625s-1.918-1.781-1.784-3.91c3.869-62.265,100.15-62.265,104.019,0,.134,2.13-.735,3.927-1.785,3.91s-1.891-1.679-2.015-3.625" transform="translate(-1588.035 -1306.206)" fill="#7c573d"/>
              <path id="Trazado_996998" data-name="Trazado 996998" d="M1791.186,1520.565c.5-5.719,2.72-5.311,3.855-10.229,1.411-4.707-.667-5.553,1.441-10.035,2.354-4.261,4.265-3.039,6.974-6.582,2.906-3.331,1.279-4.867,4.783-7.892,3.668-2.8,5.011-1.017,8.782-3.185,3.889-1.957,2.923-3.932,7.281-5.5,4.44-1.347,5.053.753,9.375-.04,4.361-.582,4.173-2.745,8.844-2.855,4.67.11,4.482,2.273,8.843,2.855,4.322.793,4.935-1.307,9.375.04,4.359,1.568,3.393,3.542,7.282,5.5,3.771,2.168,5.115.381,8.783,3.185,3.5,3.025,1.878,4.561,4.784,7.893,2.71,3.543,4.62,2.32,6.974,6.582,2.108,4.483.031,5.33,1.442,10.036,1.136,4.918,3.357,4.51,3.855,10.23" transform="translate(-1593.576 -1311.602)" fill="none" stroke="#af896d" stroke-linecap="round" stroke-miterlimit="10" stroke-width="5.488"/>
              <path id="Trazado_996999" data-name="Trazado 996999" d="M1806,1527.241c.469-5.372-1.726-5.779-.524-10.97,1.488-4.97,3.592-4.124,5.57-8.337,2.213-4,.329-5.225,3.191-8.964,3.067-3.519,4.719-1.982,8.01-4.826,3.447-2.633,2.131-4.42,6.113-6.707,4.105-2.068,5.1-.093,9.191-1.567,4.172-1.264,3.586-3.364,8.15-4.2,4.605-.616,4.82,1.547,9.208,1.441,4.387.105,4.6-2.058,9.207-1.442,4.564.836,3.979,2.936,8.151,4.2,4.094,1.474,5.086-.5,9.192,1.567,3.983,2.287,2.667,4.074,6.114,6.707,3.29,2.844,4.944,1.308,8.011,4.826,2.862,3.739.979,4.962,3.192,8.964,1.978,4.214,4.083,3.366,5.57,8.338,1.2,5.191-.993,5.6-.524,10.971" transform="translate(-1605.968 -1318.107)" fill="none" stroke="#af896d" stroke-linecap="round" stroke-miterlimit="10" stroke-width="5.488"/>
              <path id="Trazado_997000" data-name="Trazado 997000" d="M1684.851,1409.144s-16.594,4.434-16.613,5.064,4.482,10.846,4.717,11.267,1.616,11.505,3.6,14.856,8.635,3.948,9.752,3.286,4.018.422,4.878-1.19,1.323-3.088,1.884-2.64,8.046-3.781,6.637-5.543c-1.706-2.132-3.761-4.431-2.985-5.366,1.386-1.67,3.422-2.2,5.224-4.105-.319-2.119-7.313-5.694-12.765-6.3-3.226-.359-3.03-9.278-4.33-9.329" transform="translate(-1484.191 -1253.682)" fill="#ffd98a"/>
              <path id="Trazado_997001" data-name="Trazado 997001" d="M2541.932,1384.276s16.594,4.434,16.613,5.064-4.482,10.846-4.717,11.267-1.616,11.5-3.6,14.856-8.635,3.948-9.752,3.286-4.018.422-4.878-1.19-1.323-3.088-1.884-2.641-6.362-.621-6.947-2.8,3.165-4.916,2.117-5.53-3.218-3.78-5.562-5.066c.319-2.119,8.83-7.312,14.281-7.919,3.226-.359,3.03-9.277,4.33-9.329" transform="translate(-2244.938 -1231.557)" fill="#ffd98a"/>
              <path id="Trazado_997002" data-name="Trazado 997002" d="M145.386,1082.268c15.865,0,28.726,13.336,28.726,29.787s-12.861,29.786-28.726,29.786-28.726-13.336-28.726-29.786,12.861-29.787,28.726-29.787" transform="translate(-103.79 -962.868)" fill="#235b34" fill-rule="evenodd"/>
              <path id="Trazado_997003" data-name="Trazado 997003" d="M194.071,1082.268c12.531,0,22.689,13.336,22.689,29.787s-10.158,29.786-22.689,29.786-22.689-13.336-22.689-29.786,10.158-29.787,22.689-29.787" transform="translate(-152.474 -962.868)" fill="#398451" fill-rule="evenodd"/>
              <path id="Trazado_997004" data-name="Trazado 997004" d="M263.506,1082.268c7.775,0,14.078,13.336,14.078,29.787s-6.3,29.786-14.078,29.786-14.078-13.336-14.078-29.786,6.3-29.787,14.078-29.787" transform="translate(-221.91 -962.868)" fill="#235b34" fill-rule="evenodd"/>
              <path id="Trazado_997005" data-name="Trazado 997005" d="M333.74,1082.268c2.965,0,5.369,13.336,5.369,29.787s-2.4,29.786-5.369,29.786-5.369-13.336-5.369-29.786,2.4-29.787,5.369-29.787" transform="translate(-292.144 -962.868)" fill="#398451" fill-rule="evenodd"/>
              <path id="Trazado_997006" data-name="Trazado 997006" d="M899.7,1175.152c16.679,0,30.2,14.021,30.2,31.316s-13.521,31.316-30.2,31.316-30.2-14.021-30.2-31.316,13.521-31.316,30.2-31.316" transform="translate(-773.577 -1045.505)" fill="#235b34" fill-rule="evenodd"/>
              <path id="Trazado_997007" data-name="Trazado 997007" d="M950.89,1175.152c13.174,0,23.854,14.021,23.854,31.316s-10.68,31.316-23.854,31.316-23.854-14.021-23.854-31.316,10.68-31.316,23.854-31.316" transform="translate(-824.762 -1045.505)" fill="#398451" fill-rule="evenodd"/>
              <path id="Trazado_997008" data-name="Trazado 997008" d="M1023.89,1175.152c8.174,0,14.8,14.021,14.8,31.316s-6.627,31.316-14.8,31.316-14.8-14.021-14.8-31.316,6.627-31.316,14.8-31.316" transform="translate(-897.763 -1045.505)" fill="#235b34" fill-rule="evenodd"/>
              <path id="Trazado_997009" data-name="Trazado 997009" d="M1097.73,1175.152c3.117,0,5.645,14.021,5.645,31.316s-2.527,31.316-5.645,31.316-5.645-14.021-5.645-31.316,2.527-31.316,5.645-31.316" transform="translate(-971.602 -1045.505)" fill="#398451" fill-rule="evenodd"/>
              <path id="Trazado_997010" data-name="Trazado 997010" d="M41.549,1196.946l7.151,31.418-12.912,4.212L20.55,1188.9Z" transform="translate(-18.283 -1057.735)" fill="#fd9d81"/>
              <path id="Trazado_997011" data-name="Trazado 997011" d="M124.791,1460.381s-17.087,4.566-17.107,5.215,4.615,11.168,4.857,11.6,1.664,11.847,3.709,15.3,8.891,4.066,10.041,3.384,4.137.435,5.023-1.225,1.362-3.18,1.94-2.719,5.464,2.232,6.066-.012-2.172-7.934-1.092-8.566,3.842-3.866,3.514-6.048-6.879-6.7-12.493-7.322c-3.322-.369-3.12-9.553-4.459-9.606" transform="translate(-95.804 -1299.266)" fill="#ffd98a"/>
              <path id="Trazado_997012" data-name="Trazado 997012" d="M99.819,759.441s-7.273,2.029-19.439,10.243-29.022,27.362-31.387,32.227,19.747,11.349,21.574,11.166,19.611-15.4,22.376-21.559c.189-3.546,3.518-8.606,5.03-15.13a89.046,89.046,0,0,0,1.847-16.946" transform="translate(-43.43 -675.656)" fill="#fff"/>
              <path id="Trazado_997013" data-name="Trazado 997013" d="M29.164,1113.412s-20.62-16.546-22.476-16.369-4.6,4.44-4.771,5.2-2.045,1.682-1.911,4.609,23.945,14.557,25.173,14.039-2.256-5.964.21-6.063,3.706.477,3.774-1.412" transform="translate(0 -976.012)" fill="#e0e0e0"/>
              <path id="Trazado_997014" data-name="Trazado 997014" d="M1334.156,1150.733l9.047,30.925,13.329-2.606-6.676-38.267Z" transform="translate(-1186.967 -1014.929)" fill="#fd9d81"/>
              <path id="Trazado_997015" data-name="Trazado 997015" d="M1331.684,1398.81s17.148-4.329,17.482-3.772,1.4,12,1.405,12.5,4.314,11.158,4.207,15.168-5.788,7.88-7.124,7.844-3.4,2.394-4.984,1.375-2.738-2.115-3.018-1.43-3.687,4.609-5.3,2.943-1.965-7.987-3.216-8.014-5.239-1.507-6.014-3.573,2.749-9.2,7.349-12.477c2.722-1.94-1.925-9.864-.781-10.562" transform="translate(-1178.829 -1241.088)" fill="#ffd98a"/>
              <path id="Trazado_997016" data-name="Trazado 997016" d="M913.5,733.953s7.673.564,20.852,7.029,36.513,26.32,39.523,30.813-18,13.954-19.836,14.023-28.883-5.453-32.467-11.174c-1.484-7.675-8.072-40.692-8.072-40.692" transform="translate(-812.723 -652.98)" fill="#fff"/>
              <path id="Trazado_997017" data-name="Trazado 997017" d="M1262.725,1050.77s18.153-19.221,20.015-19.3,5.167,3.767,5.439,4.491,2.257,1.386,2.526,4.3-21.719,17.707-23.006,17.363,1.416-6.217-1.041-5.977-3.605.982-3.932-.881" transform="translate(-1123.416 -917.672)" fill="#e0e0e0"/>
            </g>
          </g>
        </g>
      </g>
    </g>
  </g>
</svg>
