<svg xmlns="http://www.w3.org/2000/svg" width="13.464" height="15.373" viewBox="0 0 13.464 15.373">
  <g id="Grupo_1177923" data-name="Grupo 1177923" transform="translate(-708.036 -8258)">
    <path id="Trazado_996435" data-name="Trazado 996435" d="M393.794,308.632a2.123,2.123,0,0,0,1.67,1.018q.129.012.261.012a4.271,4.271,0,0,0,2.154-.681c1.752-1.051,2.493-3.9,2.523-4.025a.35.35,0,0,0-.256-.427c-.121-.03-2.987-.718-4.739.333a4.049,4.049,0,0,0-1.727,1.817,2.467,2.467,0,0,0-.128.4v-2.569a.349.349,0,0,0-.019-.113l.035-.057a2.124,2.124,0,0,0,.113-1.953,4.049,4.049,0,0,0-1.727-1.817c-1.752-1.051-4.618-.363-4.739-.333a.351.351,0,0,0-.256.427c.031.121.771,2.974,2.523,4.025a4.27,4.27,0,0,0,2.154.681q.133,0,.261-.012a2.281,2.281,0,0,0,.953-.3v5.926a2.933,2.933,0,0,0-1.32.457,1.85,1.85,0,0,0-.786,1.019c-1.913.469-3.09,1.436-3.09,2.552a.351.351,0,0,0,.351.351H398.4a.351.351,0,0,0,.351-.351c0-1.117-1.178-2.083-3.09-2.552a1.851,1.851,0,0,0-.786-1.019,2.934,2.934,0,0,0-1.32-.457v-2.933A2.077,2.077,0,0,0,393.794,308.632Z" transform="translate(321.087 7958.014)" fill="#19632c"/>
  </g>
</svg>
