<svg xmlns="http://www.w3.org/2000/svg" xmlns:xlink="http://www.w3.org/1999/xlink" width="47.371" height="44.3" viewBox="0 0 47.371 44.3">
  <defs>
    <linearGradient id="linear-gradient" x1="0.5" x2="0.5" y2="1" gradientUnits="objectBoundingBox">
      <stop offset="0" stop-color="#19632c"/>
      <stop offset="1" stop-color="#0f3b1a"/>
    </linearGradient>
  </defs>
  <g id="Grupo_1177836" data-name="Grupo 1177836" transform="translate(-186 -8067.701)">
    <path id="Rectángulo_454906" data-name="Rectángulo 454906" d="M29,0h9a0,0,0,0,1,0,0V38a0,0,0,0,1,0,0H0a0,0,0,0,1,0,0V29A29,29,0,0,1,29,0Z" transform="translate(186 8074)" fill="url(#linear-gradient)"/>
    <g id="Grupo_1177388" data-name="Grupo 1177388" transform="translate(189 8067.289)">
      <g id="Grupo_1177386" data-name="Grupo 1177386" transform="translate(0.65 1.063)">
        <path id="Trazado_996402" data-name="Trazado 996402" d="M103.972,98.379H96.694a4.328,4.328,0,0,1-4.328-4.328V82.445H108.3V94.052A4.328,4.328,0,0,1,103.972,98.379Z" transform="translate(-85.011 -75.987)" fill="#ffb09e"/>
        <path id="Trazado_996403" data-name="Trazado 996403" d="M204.619,82.445V94.052a4.328,4.328,0,0,1-4.328,4.328h2.253a4.328,4.328,0,0,0,4.328-4.328V82.445Z" transform="translate(-183.583 -75.987)" fill="#ffa78f"/>
        <path id="Trazado_996404" data-name="Trazado 996404" d="M152.054,266.308h5.589v4.71h-5.589Z" transform="translate(-139.527 -243.916)" fill="#ffa78f"/>
        <path id="Trazado_996405" data-name="Trazado 996405" d="M190.538,266.308h2.253v4.71h-2.253Z" transform="translate(-174.675 -243.916)" fill="#f89580"/>
        <path id="Trazado_996406" data-name="Trazado 996406" d="M96,336.553l-9.511-2.284-9,2.284v-15.9H96Z" transform="translate(-71.418 -293.555)" fill="#99e6fc"/>
        <path id="Trazado_996407" data-name="Trazado 996407" d="M267.363,320.656v15.9l-2.253-.541V320.656Z" transform="translate(-242.785 -293.554)" fill="#62dbfb"/>
        <path id="Trazado_996408" data-name="Trazado 996408" d="M77.483,417.191H96v7.53H77.483Z" transform="translate(-71.418 -381.723)" fill="#6c7fd8"/>
        <g id="Grupo_1177384" data-name="Grupo 1177384" transform="translate(9.657 27.102)">
          <path id="Trazado_996409" data-name="Trazado 996409" d="M265.11,417.186h2.253v7.531H265.11Z" transform="translate(-252.442 -408.821)" fill="#4f66d0"/>
          <path id="Trazado_996410" data-name="Trazado 996410" d="M121.8,320.657H118.93v9.893a1.435,1.435,0,0,0,2.871,0Z" transform="translate(-118.93 -320.657)" fill="#4f66d0"/>
          <path id="Trazado_996411" data-name="Trazado 996411" d="M219.411,320.657H216.54v9.893a1.435,1.435,0,1,0,2.871,0v-9.893Z" transform="translate(-208.081 -320.657)" fill="#4f66d0"/>
        </g>
        <path id="Trazado_996412" data-name="Trazado 996412" d="M7.5,336.553h6.065v-15.9A6.065,6.065,0,0,0,7.5,326.722Z" transform="translate(-7.5 -293.555)" fill="#99e6fc"/>
        <path id="Trazado_996413" data-name="Trazado 996413" d="M291.111,329.023l3.5,7.53h7.043L296.136,324.1a5.388,5.388,0,0,0-5.025-3.443Z" transform="translate(-266.533 -293.555)" fill="#99e6fc"/>
        <path id="Trazado_996414" data-name="Trazado 996414" d="M296.136,324.1a5.388,5.388,0,0,0-5.025-3.443v.495a5.386,5.386,0,0,1,2.771,2.949l5.516,12.453h2.253Z" transform="translate(-266.533 -293.556)" fill="#62dbfb"/>
        <path id="Trazado_996415" data-name="Trazado 996415" d="M59.511,163.732h-.862a2.256,2.256,0,1,1,0-4.512h.862Z" transform="translate(-52.156 -146.109)" fill="#ffb09e"/>
        <path id="Trazado_996416" data-name="Trazado 996416" d="M105.554,163.012s-1.42-1.535-5.22-1.535-5.22,1.535-5.22,1.535l-2.747-3.791v6.534a3.9,3.9,0,0,0,3.9,3.9H104.4a3.9,3.9,0,0,0,3.9-3.9v-6.534Z" transform="translate(-85.012 -146.109)" fill="#b98080"/>
        <path id="Trazado_996417" data-name="Trazado 996417" d="M211.346,159.216v6.534a3.9,3.9,0,0,1-3.9,3.9H205.19a3.9,3.9,0,0,0,3.9-3.9v-3.424Z" transform="translate(-188.058 -146.105)" fill="#ae6c6c"/>
        <path id="Trazado_996418" data-name="Trazado 996418" d="M72.106,21.04l3.557-5.051a6.462,6.462,0,0,0,6.691,0,4.565,4.565,0,0,0,5.686,0v2.525l2.923-2.792a4.523,4.523,0,0,0-3.124-7.794H74.106a2,2,0,0,0-2,2,1.922,1.922,0,0,0-1.922,1.922V15.42A8.837,8.837,0,0,0,71.5,20.064Z" transform="translate(-64.752 -7.929)" fill="#b98080"/>
        <path id="Trazado_996419" data-name="Trazado 996419" d="M254.686,12.449a4.524,4.524,0,0,1-1.4,3.272l-2.923,2.791V16.36l.67-.64a4.524,4.524,0,0,0-3.124-7.794h2.253a4.523,4.523,0,0,1,4.523,4.523Z" transform="translate(-227.076 -7.926)" fill="#ae6c6c"/>
        <path id="Trazado_996420" data-name="Trazado 996420" d="M372.761,309.835l1.7-12.944-1.385-2.233-.388-1.725a1.254,1.254,0,0,1,2.273-.961l1.076,1.647,6.665-2.152a1.056,1.056,0,0,1,1.341,1.292l-.649,2.3a2.582,2.582,0,0,1-1.461,1.67L379.5,297.8l-.379,12.04h-6.36Z" transform="translate(-341.014 -266.837)" fill="#ffb09e"/>
        <g id="Grupo_1177385" data-name="Grupo 1177385" transform="translate(35.853 24.583)">
          <path id="Trazado_996421" data-name="Trazado 996421" d="M428.1,291.878a1.081,1.081,0,0,0-1.084-.235l-1.071.346a1.042,1.042,0,0,1,.186.937l-.649,2.3a2.583,2.583,0,0,1-1.461,1.67l-1.764.771a1.163,1.163,0,0,0-.7,1.029L421.208,310h2.253l.379-12.04,2.437-1.065a2.583,2.583,0,0,0,1.461-1.67l.649-2.3A1.058,1.058,0,0,0,428.1,291.878Z" transform="translate(-421.208 -291.588)" fill="#ffa78f"/>
        </g>
        <path id="Trazado_996422" data-name="Trazado 996422" d="M295.032,82.445H277.209a.98.98,0,0,0-.98.98v3.837l1.5,13.7a2.384,2.384,0,0,0,2.37,2.125h12.046a2.384,2.384,0,0,0,2.37-2.125l1.5-13.7V83.425A.98.98,0,0,0,295.032,82.445Z" transform="translate(-252.94 -75.987)" fill="#fcd18a"/>
        <path id="Trazado_996423" data-name="Trazado 996423" d="M432.565,82.445H429.7a.98.98,0,0,1,.98.98v3.837l-1.5,13.7a2.384,2.384,0,0,1-2.37,2.125h2.865a2.384,2.384,0,0,0,2.37-2.125l1.5-13.7V83.425A.98.98,0,0,0,432.565,82.445Z" transform="translate(-390.473 -75.987)" fill="#fbc56d"/>
        <path id="Trazado_996424" data-name="Trazado 996424" d="M375.75,455.946H369.2a.909.909,0,0,1-.909-.909v-2.749a.909.909,0,0,1,.909-.909h6.552a.909.909,0,0,1,.909.909v2.749A.909.909,0,0,1,375.75,455.946Z" transform="translate(-337.022 -412.947)" fill="#c8effe"/>
        <path id="Trazado_996425" data-name="Trazado 996425" d="M430.631,451.378h-2.253a.909.909,0,0,1,.909.909v2.749a.909.909,0,0,1-.909.909h2.253a.909.909,0,0,0,.909-.909v-2.749A.909.909,0,0,0,430.631,451.378Z" transform="translate(-391.904 -412.947)" fill="#99e6fc"/>
        <path id="Trazado_996426" data-name="Trazado 996426" d="M293.945,27.62h8.446v-.539a2.274,2.274,0,0,0-2.274-2.274v-.313a2.077,2.077,0,0,0-3.895-1Z" transform="translate(-269.121 -21.162)" fill="#80d261"/>
        <path id="Trazado_996427" data-name="Trazado 996427" d="M391.409,27.62h8.446v-.539a2.274,2.274,0,0,0-2.274-2.274v-.313a2.076,2.076,0,0,0-3.895-1Z" transform="translate(-358.139 -21.162)" fill="#80d261"/>
        <path id="Trazado_996428" data-name="Trazado 996428" d="M331.422,24.808v-.313a2.075,2.075,0,0,0-3.2-1.743,2.074,2.074,0,0,1,.949,1.743v.313a2.274,2.274,0,0,1,2.274,2.274v.539H333.7v-.539A2.274,2.274,0,0,0,331.422,24.808Z" transform="translate(-300.425 -21.162)" fill="#68ca44"/>
        <path id="Trazado_996429" data-name="Trazado 996429" d="M428.886,24.808v-.313a2.075,2.075,0,0,0-3.2-1.743,2.074,2.074,0,0,1,.949,1.743v.313a2.274,2.274,0,0,1,2.274,2.274v.539h2.253v-.539A2.274,2.274,0,0,0,428.886,24.808Z" transform="translate(-389.442 -21.162)" fill="#68ca44"/>
      </g>
      <g id="Grupo_1177387" data-name="Grupo 1177387" transform="translate(0 0.412)">
        <path id="Trazado_996430" data-name="Trazado 996430" d="M158.129,209.771a3.878,3.878,0,0,0,1.938.483,4.724,4.724,0,0,0,1.964-.442.65.65,0,0,0-.537-1.184,2.981,2.981,0,0,1-2.68.038.65.65,0,0,0-.685,1.105Z" transform="translate(-144.147 -190.531)"/>
        <path id="Trazado_996431" data-name="Trazado 996431" d="M157.553,465.62h-4.171a.65.65,0,1,0,0,1.3h4.171a.65.65,0,0,0,0-1.3Z" transform="translate(-139.496 -425.304)"/>
        <path id="Trazado_996432" data-name="Trazado 996432" d="M42.141,25.074a.809.809,0,0,0-.564.9,1.732,1.732,0,0,1-1.724,1.546H37.324l.79-14.528H43L41.95,22.553a.65.65,0,1,0,1.292.141l1.125-10.286c0-.012,0-.016,0-.071V8.5a1.631,1.631,0,0,0-1.356-1.6A2.929,2.929,0,0,0,40.73,4.128a2.727,2.727,0,0,0-5.1-1.05l-1.4,2.537a2.934,2.934,0,0,0-1.946-1.486,2.726,2.726,0,0,0-4.512-1.781A5.261,5.261,0,0,0,23.738.413H10A2.654,2.654,0,0,0,7.42,2.48,2.576,2.576,0,0,0,5.432,4.985V8.553a9.484,9.484,0,0,0,1.416,4.986A2.91,2.91,0,0,0,4.237,16.43a2.947,2.947,0,0,0,3.118,2.906v1.372a4.558,4.558,0,0,0,4.553,4.553h.619v2.254H6.715A6.722,6.722,0,0,0,0,34.23v9.831a.65.65,0,0,0,1.3,0V34.23a5.423,5.423,0,0,1,4.765-5.376V44.061a.65.65,0,0,0,1.3,0V37.18H9.657v.878a2.085,2.085,0,0,0,4.171,0V37.18h4.289v.878a2.085,2.085,0,1,0,4.171,0V37.18h2.292v6.881a.65.65,0,1,0,1.3,0V39.472l2.259,4.863a.65.65,0,1,0,1.179-.548l-3.438-7.4V28.86a4.772,4.772,0,0,1,3.768,2.983l.012.029L32.5,38.287l-.08.611a1.56,1.56,0,0,0-1.153,1.5v2.749a1.561,1.561,0,0,0,1.559,1.559h6.552a1.561,1.561,0,0,0,1.559-1.559V40.4a1.561,1.561,0,0,0-1.366-1.546l.2-6.4,2.058-.9a3.219,3.219,0,0,0,1.829-2.091l.648-2.3a1.82,1.82,0,0,0-.176-1.337,1.7,1.7,0,0,0-1.989-.751Zm-6.119,2.441H31.975l-.79-14.528h5.626Zm-10.794,0H19.416V25.261h.62a4.56,4.56,0,0,0,4.321-3.121l.434,3.97a3.028,3.028,0,0,0,.526,1.406l-.089,0ZM15.972,13.793a.65.65,0,0,0-.65.65V15.8a8.774,8.774,0,0,0-4.438,1.244L8.8,14.169l2.952-4.191a7.068,7.068,0,0,0,6.45-.088,5.656,5.656,0,0,0,1.58.71,4.979,4.979,0,0,0,3.5-.324v2.063h0v1.625L21.06,17.04A8.774,8.774,0,0,0,16.622,15.8V14.443a.65.65,0,0,0-.65-.65ZM26.083,25.969,24.664,12.987h5.22l.79,14.528H27.807A1.732,1.732,0,0,1,26.083,25.969ZM43.071,11.687H24.589V8.5a.33.33,0,0,1,.33-.33H42.741a.33.33,0,0,1,.33.33Zm-6.3-7.981a1.427,1.427,0,0,1,2.676.689v.313a.65.65,0,0,0,.65.65,1.626,1.626,0,0,1,1.62,1.512H35.021Zm-7.2-.737A1.428,1.428,0,0,1,31,4.4v.313a.65.65,0,0,0,.65.65,1.626,1.626,0,0,1,1.62,1.512H26.575l1.746-3.165a1.427,1.427,0,0,1,1.249-.737ZM6.732,4.985A1.273,1.273,0,0,1,8,3.713a.65.65,0,0,0,.65-.65A1.351,1.351,0,0,1,10,1.713H23.738a3.9,3.9,0,0,1,3.235,1.746L25.09,6.871a1.706,1.706,0,0,0-1.8,1.914,3.89,3.89,0,0,1-4.613-.155.649.649,0,0,0-.748-.069,5.775,5.775,0,0,1-6,.027.65.65,0,0,0-.9.161L8.04,13A8.366,8.366,0,0,1,6.732,8.553Zm.411,13.051A1.608,1.608,0,0,1,5.537,16.43a1.663,1.663,0,0,1,1.818-1.606v3.212Zm1.511,2.672V16.18l1.57,2.167a.645.645,0,0,0,1,.066c1.933-1.858,7.895-1.643,9.5,0a.65.65,0,0,0,1-.065l1.57-2.167v4.529a3.257,3.257,0,0,1-3.253,3.253H11.908a3.257,3.257,0,0,1-3.253-3.253Zm9.461,4.553v2.254H13.827V25.261ZM11.742,38.843a.786.786,0,0,1-.785-.785V31.217a.65.65,0,1,0-1.3,0V35.88H7.365V28.815h5.163v9.243a.786.786,0,0,1-.785.785Zm2.085-2.963V28.815h4.289V35.88Zm7.159,2.178a.785.785,0,1,1-1.571,0V28.815h1.571v9.243Zm1.3-2.178V28.815h2.292V35.88Zm8.567-4.521a6.019,6.019,0,0,0-1.9-2.544h3.076a16.118,16.118,0,0,0,1.392,2.447l-.6,4.551Zm8.783,11.793a.259.259,0,0,1-.259.259H32.826a.259.259,0,0,1-.259-.259V40.4a.259.259,0,0,1,.259-.259h6.552a.259.259,0,0,1,.259.259Zm3.419-16.345-.648,2.3a1.925,1.925,0,0,1-1.1,1.251l-2.437,1.065a.65.65,0,0,0-.389.575l-.215,6.843H33.738L34.744,31.2a.65.65,0,0,0-.092-.428l-1.215-1.959h6.416a3.029,3.029,0,0,0,2.983-2.485C42.934,26.442,43.084,26.376,43.056,26.807Z" transform="translate(0 -0.412)"/>
        <circle id="Elipse_13663" data-name="Elipse 13663" cx="0.65" cy="0.65" r="0.65" transform="translate(26.714 13.879)"/>
        <circle id="Elipse_13664" data-name="Elipse 13664" cx="0.65" cy="0.65" r="0.65" transform="matrix(0.987, -0.16, 0.16, 0.987, 27.611, 24.497)"/>
        <path id="Trazado_996433" data-name="Trazado 996433" d="M449.158,281.751a.649.649,0,0,0-.139,1.269.619.619,0,0,0,.189.029.65.65,0,0,0,0-1.3Z" transform="translate(-409.685 -257.367)"/>
        <path id="Trazado_996434" data-name="Trazado 996434" d="M458.578,161.837a.649.649,0,0,0,.133-1.209.638.638,0,0,0-.293-.07.65.65,0,0,0,0,1.3A.611.611,0,0,0,458.578,161.837Z" transform="translate(-418.097 -146.679)"/>
      </g>
    </g>
  </g>
</svg>
