<svg xmlns="http://www.w3.org/2000/svg" xmlns:xlink="http://www.w3.org/1999/xlink" width="85.383" height="102.45" viewBox="0 0 85.383 102.45">
  <defs>
    <clipPath id="clip-path">
      <rect id="Rectángulo_455197" data-name="Rectángulo 455197" width="85.383" height="102.45" fill="none"/>
    </clipPath>
  </defs>
  <g id="Grupo_1177925" data-name="Grupo 1177925" transform="translate(-757.309 -7621.622)">
    <g id="Grupo_1177805" data-name="Grupo 1177805" transform="translate(757.309 7621.622)">
      <g id="Grupo_1177804" data-name="Grupo 1177804" transform="translate(0 0)" clip-path="url(#clip-path)">
        <path id="Trazado_999941" data-name="Trazado 999941" d="M0,35.949v27.78H85.376V35.949H73.8S56.545,26.7,43.521,27.815s-28.163,7.348-28.163,7.348Z" transform="translate(0 36.738)" fill="#ebb044"/>
        <path id="Trazado_999942" data-name="Trazado 999942" d="M83.406,70.734H77.012a19.709,19.709,0,0,1-11.231-3.279c-4.162-2.86-12.138-4.674-21.113-4.906v-9.6C52.922,52.062,66.13,47.3,67.409,33.9a1.95,1.95,0,0,0-1.325-2.046c-.163-.047-12.975-4.232-21.415,4.906V30.135c2.372-1.628,8.162-6.208,8.72-13.045.465-5.65-2.721-11.254-9.464-16.7-.047-.023-.093-.023-.116-.047A3,3,0,0,0,43.435.14c-.116-.047-.209-.07-.326-.116A2.527,2.527,0,0,0,42.691,0a1.535,1.535,0,0,0-.326.023,1.743,1.743,0,0,0-.372.116A2.347,2.347,0,0,0,41.645.3c-.047.023-.093.023-.14.07C34.134,5.883,30.647,11.556,31.158,17.23c.6,6.883,6.952,11.394,9.557,12.952v6.58c-8.441-9.138-21.276-4.953-21.415-4.906A1.95,1.95,0,0,0,17.974,33.9C19.253,47.3,32.46,52.062,40.715,52.946v9.6c-8.975.233-16.974,2.046-21.113,4.906A19.731,19.731,0,0,1,8.348,70.734H1.976a1.965,1.965,0,1,0,0,3.93H8.348A23.78,23.78,0,0,0,21.834,70.71c3.488-2.395,10.766-4,18.881-4.232v6.673a9.423,9.423,0,0,0-4.93-1.186,11.237,11.237,0,0,0-6.65,2.767c-3.139-1.628-7.511-.791-10.626,2.325-3.7,3.674-4.209,9.161-1.163,12.207a6.927,6.927,0,0,0,5.046,2A10.36,10.36,0,0,0,29.554,88.1c3.093-3.093,3.93-7.417,2.372-10.533A7.194,7.194,0,0,1,35.971,75.9a6.914,6.914,0,0,1,4.743,2.023v5.929c-3.348,1.07-5.836,4.743-5.836,9.115,0,5.232,3.511,9.487,7.813,9.487S50.5,98.195,50.5,92.963c0-4.371-2.488-8.045-5.836-9.115V77.919a6.8,6.8,0,0,1,4.72-2.023,7.2,7.2,0,0,1,4.069,1.674c-1.581,3.116-.721,7.441,2.348,10.533a10.412,10.412,0,0,0,7.185,3.162,6.964,6.964,0,0,0,5.046-2c3.046-3.046,2.511-8.534-1.163-12.207-3.116-3.116-7.511-3.953-10.626-2.325a11.3,11.3,0,0,0-6.65-2.767,9.476,9.476,0,0,0-4.93,1.186V66.479c8.115.233,15.37,1.837,18.881,4.232a23.7,23.7,0,0,0,13.463,3.953h6.394a1.965,1.965,0,1,0,0-3.93M26.763,85.313c-2.116,2.116-5.139,2.651-6.627,1.163s-.953-4.511,1.163-6.627a6.585,6.585,0,0,1,4.395-2.023,3.186,3.186,0,0,1,2.255.837c1.465,1.488.93,4.534-1.186,6.65m30.67-6.627a3.068,3.068,0,0,1,2.255-.86,6.488,6.488,0,0,1,4.371,2.023c2.116,2.116,2.651,5.139,1.186,6.627-1.488,1.488-4.511.953-6.627-1.163s-2.674-5.162-1.186-6.627m5.813-43.505C61.154,45.737,49.481,48.318,44.668,48.946V43.831c5-10.3,14.742-9.464,18.579-8.65m-41.11,0c3.837-.791,13.579-1.651,18.579,8.65v5.092c-4.79-.651-16.486-3.3-18.579-13.742M46.551,92.963c0,3-1.767,5.534-3.86,5.534s-3.86-2.535-3.86-5.534c0-2.976,1.767-5.511,3.86-5.511s3.86,2.535,3.86,5.511m-3.93-66.246c-2.116-1.3-7.092-4.883-7.534-9.836-.349-3.93,2.232-8.069,7.557-12.37,4.813,4.185,7.115,8.3,6.813,12.231-.4,4.976-4.883,8.627-6.836,9.975" transform="translate(0 0)"/>
        <path id="Trazado_999943" data-name="Trazado 999943" d="M28.1,24.028V29.12c-4.79-.651-16.486-3.3-18.579-13.742,3.837-.791,13.579-1.651,18.579,8.65" transform="translate(12.616 19.803)" fill="#3c9a54"/>
        <path id="Trazado_999944" data-name="Trazado 999944" d="M29.478,14.171c-.4,4.976-4.883,8.627-6.836,9.975-2.116-1.3-7.092-4.883-7.534-9.836-.349-3.93,2.232-8.069,7.557-12.37,4.813,4.185,7.115,8.3,6.813,12.231" transform="translate(19.98 2.571)" fill="#a3c0aa"/>
        <path id="Trazado_999945" data-name="Trazado 999945" d="M37.789,15.383C35.7,25.94,24.023,28.521,19.21,29.149V24.033c5-10.3,14.742-9.464,18.579-8.65" transform="translate(25.458 19.797)" fill="#3c9a54"/>
        <path id="Trazado_999946" data-name="Trazado 999946" d="M32.99,42.12c-1.488,1.488-4.511.953-6.627-1.163S23.689,35.8,25.177,34.33a3.068,3.068,0,0,1,2.255-.86A6.488,6.488,0,0,1,31.8,35.493c2.116,2.116,2.651,5.139,1.186,6.627" transform="translate(32.256 44.356)" fill="#f2dbb1"/>
        <path id="Trazado_999947" data-name="Trazado 999947" d="M24.42,43.121c0,3-1.767,5.534-3.86,5.534S16.7,46.12,16.7,43.121c0-2.976,1.767-5.511,3.86-5.511s3.86,2.535,3.86,5.511" transform="translate(22.131 49.842)" fill="#f2dbb1"/>
        <path id="Trazado_999948" data-name="Trazado 999948" d="M15.768,40.957c-2.116,2.116-5.139,2.651-6.627,1.163s-.953-4.511,1.163-6.627A6.585,6.585,0,0,1,14.7,33.47a3.186,3.186,0,0,1,2.255.837c1.465,1.488.93,4.534-1.186,6.65" transform="translate(10.995 44.356)" fill="#f2dbb1"/>
        <path id="Trazado_999949" data-name="Trazado 999949" d="M1.977,46.309H33.852a1.975,1.975,0,1,0,0-3.951H1.977a1.975,1.975,0,1,0,0,3.951" transform="translate(0.001 56.134)"/>
        <path id="Trazado_999950" data-name="Trazado 999950" d="M1.977,42.533H11.55a1.975,1.975,0,1,0,0-3.951H1.977a1.975,1.975,0,1,0,0,3.951" transform="translate(0.001 51.13)"/>
        <path id="Trazado_999951" data-name="Trazado 999951" d="M1.977,38.756H10.5a1.975,1.975,0,1,0,0-3.951H1.977a1.975,1.975,0,1,0,0,3.951" transform="translate(0.001 46.125)"/>
        <path id="Trazado_999952" data-name="Trazado 999952" d="M57.136,44.333a1.976,1.976,0,0,0-1.976-1.976H23.285a1.976,1.976,0,1,0,0,3.953H55.16a1.976,1.976,0,0,0,1.976-1.976" transform="translate(28.239 56.133)"/>
        <path id="Trazado_999953" data-name="Trazado 999953" d="M42.449,38.581H32.876a1.975,1.975,0,1,0,0,3.951h9.573a1.975,1.975,0,1,0,0-3.951" transform="translate(40.95 51.129)"/>
        <path id="Trazado_999954" data-name="Trazado 999954" d="M41.85,34.805H33.328a1.975,1.975,0,1,0,0,3.951H41.85a1.975,1.975,0,1,0,0-3.951" transform="translate(41.549 46.125)"/>
      </g>
    </g>
  </g>
</svg>
