<svg xmlns="http://www.w3.org/2000/svg" xmlns:xlink="http://www.w3.org/1999/xlink" width="114.779" height="91.496" viewBox="0 0 114.779 91.496">
  <defs>
    <clipPath id="clip-path">
      <rect id="Rectángulo_455200" data-name="Rectángulo 455200" width="60.1" height="89.496" fill="none"/>
    </clipPath>
    <clipPath id="clip-path-2">
      <rect id="Rectángulo_455201" data-name="Rectángulo 455201" width="49.849" height="88.433" fill="none"/>
    </clipPath>
  </defs>
  <g id="Grupo_1177927" data-name="Grupo 1177927" transform="translate(-1083.785 -7634.08)">
    <g id="Grupo_1177926" data-name="Grupo 1177926">
      <g id="Grupo_1177814" data-name="Grupo 1177814">
        <g id="Grupo_1177811" data-name="Grupo 1177811" transform="translate(1083.785 7634.08)">
          <g id="Grupo_1177810" data-name="Grupo 1177810" transform="translate(0 0)" clip-path="url(#clip-path)">
            <path id="Trazado_999976" data-name="Trazado 999976" d="M30.021,19.653A10.089,10.089,0,0,0,27.1,27.089a4.1,4.1,0,0,1-1.774,3.353,2.366,2.366,0,0,0-.583-.049H21.2V13.432a2.066,2.066,0,1,0-4.131,0V30.393H13.521a2.176,2.176,0,0,0-.559.049,4.065,4.065,0,0,1-1.8-3.353V27.04a10.036,10.036,0,0,0-2.892-7.363,3.924,3.924,0,0,1-1.118-3.694A4.046,4.046,0,0,1,9.9,13.067a6.036,6.036,0,0,0,4.107-6V6.822A5.145,5.145,0,0,1,24.164,5.68a5.586,5.586,0,0,1,.1,1.409,6.089,6.089,0,0,0,4.18,6,3.92,3.92,0,0,1,2.576,2.479,3.985,3.985,0,0,1-1,4.082" transform="translate(10.099 2.435)" fill="#a3c0aa"/>
            <path id="Trazado_999977" data-name="Trazado 999977" d="M41.541,21.235a4.915,4.915,0,0,0-3.912-1.92H35.32a5.405,5.405,0,0,1-4.058-1.847l-1.725-1.993a.74.74,0,0,0-.316-.219H29.2a.851.851,0,0,0-.243-.049H17.726a3.17,3.17,0,0,1-.316.073,1.079,1.079,0,0,0-.267.194l-1.725,1.993a5.354,5.354,0,0,1-4.034,1.847H9.051a4.918,4.918,0,0,0-4.763,6.2L12.065,54.94a11.661,11.661,0,0,0,22.551-.024l7.776-29.4a4.816,4.816,0,0,0-.851-4.277M13.085,27.626a2.064,2.064,0,0,1,2.066-2.066H20.91a2.066,2.066,0,1,1,0,4.131H15.151a2.064,2.064,0,0,1-2.066-2.066M23.777,49.74H18.018a2.066,2.066,0,0,1,0-4.131h5.759a2.066,2.066,0,0,1,0,4.131m8.651-10.619H26.669a2.066,2.066,0,0,1,0-4.131h5.759a2.066,2.066,0,1,1,0,4.131" transform="translate(5.893 21.75)" fill="#ff9e43"/>
            <path id="Trazado_999978" data-name="Trazado 999978" d="M17.7,21.535A2.064,2.064,0,0,1,15.635,23.6H9.876a2.066,2.066,0,0,1,0-4.131h5.759A2.064,2.064,0,0,1,17.7,21.535" transform="translate(11.169 27.842)"/>
            <path id="Trazado_999979" data-name="Trazado 999979" d="M22.44,25.415a2.064,2.064,0,0,1-2.066,2.066H14.616a2.066,2.066,0,0,1,0-4.131h5.759a2.064,2.064,0,0,1,2.066,2.066" transform="translate(17.947 33.391)"/>
            <path id="Trazado_999980" data-name="Trazado 999980" d="M18.88,29.785a2.064,2.064,0,0,1-2.066,2.066H11.056a2.066,2.066,0,0,1,0-4.131h5.759a2.064,2.064,0,0,1,2.066,2.066" transform="translate(12.856 39.64)"/>
            <path id="Trazado_999983" data-name="Trazado 999983" d="M54.464,45.706H52.537a8.923,8.923,0,0,0-1.823-5.249,9.024,9.024,0,0,0-7.193-3.524H41.213a1.18,1.18,0,0,1-.923-.413l-1.215-1.409a8.226,8.226,0,0,0,2.26-5.662,6.116,6.116,0,0,1,1.652-4.4,8.091,8.091,0,0,0,2.066-8.262,7.946,7.946,0,0,0-5.225-5.176,1.944,1.944,0,0,1-1.337-1.9A9.222,9.222,0,0,0,31.2.191a9.414,9.414,0,0,0-7.8,1.871,9.22,9.22,0,0,0-3.426,7.193v.462a1.881,1.881,0,0,1-1.288,1.871,8.07,8.07,0,0,0-3.208,13.487,5.825,5.825,0,0,1,1.652,4.374v.073a8.138,8.138,0,0,0,2.26,5.589L18.177,36.52a1.167,1.167,0,0,1-.9.413H14.945a8.933,8.933,0,0,0-9.015,8.772H2.066a2.066,2.066,0,0,0,0,4.131h4.52l7.387,27.9a15.8,15.8,0,0,0,30.546,0l7.363-27.9h2.583ZM18.371,22.11a3.924,3.924,0,0,1-1.118-3.694A4.046,4.046,0,0,1,20,15.5a6.036,6.036,0,0,0,4.107-6V9.255A5.145,5.145,0,0,1,34.263,8.113a5.586,5.586,0,0,1,.1,1.409,6.089,6.089,0,0,0,4.18,6A3.92,3.92,0,0,1,41.116,18a3.985,3.985,0,0,1-1,4.082A10.089,10.089,0,0,0,37.2,29.522a4.1,4.1,0,0,1-1.774,3.353,2.366,2.366,0,0,0-.583-.049H31.3V15.865a2.066,2.066,0,1,0-4.131,0V32.827H23.62a2.176,2.176,0,0,0-.559.049,4.065,4.065,0,0,1-1.8-3.353v-.049a10.036,10.036,0,0,0-2.892-7.363M48.285,47.261l-7.776,29.4a11.661,11.661,0,0,1-22.551.024L10.182,47.261a4.918,4.918,0,0,1,4.763-6.2h2.333a5.354,5.354,0,0,0,4.034-1.847l1.725-1.993a1.079,1.079,0,0,1,.267-.194,3.17,3.17,0,0,0,.316-.073H34.847a.851.851,0,0,1,.243.049h.024a.74.74,0,0,1,.316.219l1.725,1.993a5.405,5.405,0,0,0,4.058,1.847h2.309a4.915,4.915,0,0,1,3.912,1.92,4.816,4.816,0,0,1,.851,4.277" transform="translate(0 0.002)"/>
            <path id="Trazado_999984" data-name="Trazado 999984" d="M26.221,22.923H23.29a2.056,2.056,0,1,1,0-4.112h2.931a2.056,2.056,0,0,1,0,4.112" transform="translate(30.362 26.901)"/>
          </g>
        </g>
        <g id="Grupo_1177812" data-name="Grupo 1177812" transform="translate(1148.715 7637.143)">
          <g id="Grupo_1177813" data-name="Grupo 1177813" transform="translate(0 0)" clip-path="url(#clip-path-2)">
            <path id="Trazado_999985" data-name="Trazado 999985" d="M46.86,12.871V50.029s-4.194,20.94-18.549,20.94S7.4,65.733,7.4,65.733,2.414,57.69,1.593,54.579.8,13.281.8,13.281l39.186.47Z" transform="translate(0.918 14.727)" fill="#3c9a54"/>
            <path id="Trazado_999986" data-name="Trazado 999986" d="M3.086,27.8S20.535,39.866,21.871,56.6c0,0-2.669-17.346,17.552-28.125,0,0-1.745-26.995-18.169-27.61S3.086,21.6,3.086,21.6Z" transform="translate(3.531 0.972)" fill="#ffd98a"/>
            <path id="Trazado_999987" data-name="Trazado 999987" d="M37.091,29.45a1.823,1.823,0,1,0-3.645,0v1.711a12.96,12.96,0,0,1-25.921,0V29.45a1.823,1.823,0,1,0-3.645,0v1.711a16.605,16.605,0,0,0,33.211,0Z" transform="translate(4.439 31.61)"/>
            <path id="Trazado_999988" data-name="Trazado 999988" d="M49.847,63.516V28.165a1.822,1.822,0,0,0-2.129-1.8c-.866.148-1.677.377-2.5.592v-1.8a28.783,28.783,0,0,0-8.4-20.245,16.834,16.834,0,0,0-23.783,0,28.4,28.4,0,0,0-8.4,20.245v1.784c-.821-.214-1.638-.431-2.5-.579A1.822,1.822,0,0,0,0,28.165v35.35a24.923,24.923,0,0,0,49.847,0m-46.2,0v-33.1c7.138,1.846,12.417,6.6,15.712,14.143A1.821,1.821,0,1,0,22.7,43.1C19.514,35.809,14.668,30.82,8.276,28.155V25.164A24.78,24.78,0,0,1,15.605,7.5a13.195,13.195,0,0,1,18.637,0,25.112,25.112,0,0,1,7.331,17.663v3.019C34.538,31.131,29.413,36.888,26.381,45.4c-.094.212-2.3,5.356-3.008,16.276a1.823,1.823,0,1,0,3.639.234c.656-10.187,2.689-15,2.755-15.166,3.148-8.83,8.673-14.312,16.435-16.328v33.1a21.278,21.278,0,0,1-42.557,0" transform="translate(0 0.001)"/>
            <path id="Trazado_999989" data-name="Trazado 999989" d="M11.44,8.813H16.4a1.823,1.823,0,1,0,0-3.645H11.44a1.823,1.823,0,1,0,0,3.645" transform="translate(11.003 5.914)"/>
            <path id="Trazado_999990" data-name="Trazado 999990" d="M14.689,10.135a1.824,1.824,0,0,0-1.823-1.823H7.9a1.823,1.823,0,0,0,0,3.645h4.964a1.824,1.824,0,0,0,1.823-1.823" transform="translate(6.956 9.511)"/>
            <path id="Trazado_999991" data-name="Trazado 999991" d="M13.154,10.135a1.824,1.824,0,0,0,1.823,1.823h4.962a1.823,1.823,0,0,0,0-3.645H14.977a1.824,1.824,0,0,0-1.823,1.823" transform="translate(15.05 9.511)"/>
            <path id="Trazado_999992" data-name="Trazado 999992" d="M18.226,13.541A1.824,1.824,0,0,0,16.4,11.718H11.44a1.823,1.823,0,1,0,0,3.645H16.4a1.824,1.824,0,0,0,1.823-1.823" transform="translate(11.003 13.408)"/>
          </g>
        </g>
      </g>
    </g>
  </g>
</svg>
