<svg xmlns="http://www.w3.org/2000/svg" xmlns:xlink="http://www.w3.org/1999/xlink" width="327" height="401" viewBox="0 0 327 401">
  <defs>
    <clipPath id="clip-path">
      <rect id="Rectángulo_454884" data-name="Rectángulo 454884" width="327" height="401" rx="20" transform="translate(289.746 7856.342)" fill="#ff9e43"/>
    </clipPath>
    <clipPath id="clip-path-2">
      <rect id="Rectángulo_454880" data-name="Rectángulo 454880" width="618.254" height="463.676" fill="#f9d2ad"/>
    </clipPath>
  </defs>
  <g id="Grupo_1177835" data-name="Grupo 1177835" transform="translate(-309.711 -7112.75)">
    <g id="Grupo_1177459" data-name="Grupo 1177459" transform="translate(19.965 -743.592)">
      <rect id="Rectángulo_378459" data-name="Rectángulo 378459" width="327" height="401" rx="20" transform="translate(289.746 7856.342)" fill="#ff9e43"/>
      <g id="Enmascarar_grupo_1119144" data-name="Enmascarar grupo 1119144" opacity="0.5" clip-path="url(#clip-path)">
        <g id="Grupo_1177320" data-name="Grupo 1177320" transform="translate(112.746 7806.732)" style="isolation: isolate">
          <g id="Grupo_1177305" data-name="Grupo 1177305" transform="translate(0 0.003)" clip-path="url(#clip-path-2)">
            <path id="Trazado_996173" data-name="Trazado 996173" d="M0,288.524c21.895-25.9,51.424-43.963,85.479-52.1,40.9-9.767,71.146-5.743,94.016,9.977,22.852,15.709,38.348,43.122,49.708,80.233,7.2,23.534,14.378,52.123,33.218,69.393,6.813,6.245,15.75,9.616,26.131,11.357,15.688,2.633,34.66,1.545,54.632.914,46.6-1.472,98.6-.451,127.358,55.375H469.5c-28.6-54.988-80.132-55.906-126.281-54.448-20.039.633-39.074,1.715-54.815-.926-10.572-1.774-19.665-5.228-26.6-11.588-18.959-17.379-26.228-46.124-33.478-69.805-11.287-36.872-26.642-64.133-49.347-79.741-22.687-15.6-52.7-19.528-93.275-9.839C51.469,245.5,21.839,263.767,0,289.968ZM552.412,463.678c-6.458-27.977-20.866-58.988-55.726-84.9-12.08-8.979-33.145-12.12-57.262-12.991-36.352-1.312-79.621,2.58-109.733-.209-34.144-3.162-52.443-32.367-48.364-61,2.715-19.059,15.349-37.874,39.862-48.549,23.416-10.2,56.646-22.307,81.375-41.529,16.413-12.758,29.078-28.653,32.568-49.23,4.812-28.373-1.442-54.521-10.662-77.421-9.246-22.966-21.476-42.673-28.576-58.093-3.069-6.665-5.182-12.539-5.707-17.534-.52-4.938.5-9.035,3.618-12.225h1.34q-.187.17-.36.335c-3.174,3.036-4.18,7-3.676,11.793.517,4.914,2.608,10.687,5.627,17.243,7.106,15.431,19.341,35.152,28.594,58.134,9.279,23.048,15.559,49.367,10.716,77.923-3.53,20.811-16.313,36.9-32.913,49.807-24.791,19.271-58.1,31.425-81.573,41.647-24.16,10.521-36.638,29.044-39.314,47.829-4.008,28.136,13.977,56.836,47.532,59.943,30.1,2.787,73.346-1.105,109.681.206,24.341.878,45.588,4.111,57.781,13.173,35.173,26.142,49.652,57.444,56.122,85.642ZM331.06,0c-6.721,14.974-7.526,30.618-5.3,46.514,2.889,20.593,10.866,41.608,17.734,62.145,13.823,41.332,23.13,80.724-21.738,110.961-29.393,19.808-59.746,15.9-87.8,4.411-27.931-11.441-53.576-30.41-73.686-40.817-42.534-22.01-90.512-10.59-124.266,6.4-15.788,7.947-28.468,17.106-36,24.639v-1.277c7.682-7.483,20.156-16.423,35.588-24.191,33.982-17.105,82.287-28.555,125.109-6.4,20.091,10.4,45.708,29.353,73.612,40.783,27.778,11.378,57.832,15.289,86.933-4.322,44.427-29.939,35.065-68.973,21.377-109.9-6.887-20.591-14.876-41.663-17.773-62.31C322.61,30.71,323.4,15.026,330.044,0ZM243.938,0c.326,12.266,3.261,24.257,9.366,34.432,6.688,11.147,17.275,20.155,21.624,32.691,4.921,14.186,3.443,34.85-3.883,51.6-4.9,11.206-12.413,20.659-22.344,25.293-9.653,4.5-21.132,3.441-31.336,1.929-26.24-3.887-39.225-11.592-53.022-20.086-9.147-5.631-18.652-11.611-32.664-17.044C94.2,94.29,51.283,97.006,14.661,113.282A62.29,62.29,0,0,0,0,123.149v-1.235a62.821,62.821,0,0,1,14.284-9.479c36.844-16.375,80.021-19.1,117.73-4.475,14.075,5.458,23.626,11.462,32.814,17.119,13.706,8.438,26.6,16.1,52.672,19.958,10.031,1.486,21.318,2.576,30.808-1.852,9.738-4.545,17.082-13.836,21.886-24.824,7.23-16.537,8.714-36.929,3.857-50.929-4.328-12.476-14.887-21.424-21.543-32.518C246.32,24.6,243.346,12.438,243.02,0Zm-66.1,0a81.75,81.75,0,0,1,1.717,21.728c-2.34,32.18-37.309,40.553-63.319,31.05-9.931-3.628-18.961-9.215-28.205-14.223-9.174-4.97-18.559-9.369-29.27-10.661C35.372,25.074,19.074,32.714,0,42.26V41.224C19.069,31.7,35.447,24.149,58.87,26.976c10.83,1.307,20.325,5.742,29.6,10.767,9.2,4.987,18.194,10.555,28.082,14.168,25.468,9.306,59.784,1.263,62.076-30.246A81.1,81.1,0,0,0,176.9,0ZM618.254,396.589a135.262,135.262,0,0,1-5.7-13.639c-5.99-15.754-13.5-34.212-41.273-46.392-8.246-3.617-19.739-4.632-32.794-4.582-19.7.075-42.938,2.588-64.014,2.409-11.752-.1-22.834-1.038-32.265-3.69-9.5-2.672-17.334-7.087-22.518-14.11-14.1-19.1-17.354-33.4-13.991-45.128s13.357-20.9,25.908-29.761c12.449-8.788,27.409-17.275,40.785-27.7,13.315-10.375,25.062-22.669,31.15-39.121,20.2-54.575,5.846-85.752-12.625-118.924-9.466-17-20.009-34.522-27.581-55.949h.983c7.544,21.235,18.012,38.623,27.408,55.5,18.591,33.387,33.012,64.769,12.685,119.7-6.15,16.618-18,29.051-31.45,39.531-13.388,10.432-28.361,18.929-40.821,27.724-12.357,8.723-22.244,17.723-25.552,29.259s-.011,25.551,13.846,44.321c5.068,6.865,12.736,11.156,22.023,13.768,9.359,2.632,20.359,3.556,32.022,3.655,21.072.18,44.308-2.334,64-2.409,13.207-.05,24.829,1,33.171,4.661,28.09,12.32,35.709,30.975,41.768,46.911,1.6,4.219,3.093,8.247,4.832,11.907Zm0-87.967c-11.948-3.963-24.768-6.258-37.077-8.607-12.069-2.3-23.651-4.651-33.462-8.634-9.886-4.014-17.978-9.687-22.994-18.606-7.862-13.978-5.247-28.45,1.971-44.237,10.72-23.446,31.619-49.823,42.822-81.894,9.126-26.125,18.6-66.473,14.538-101.588-1.965-16.983-7.1-32.743-17-45.053h1.184c9.7,12.356,14.777,28.047,16.732,44.946,4.08,35.257-5.421,75.77-14.584,102-11.214,32.1-32.124,58.506-42.854,81.974-7.082,15.488-9.719,29.683-2.006,43.4,4.912,8.735,12.853,14.271,22.535,18.2,9.758,3.962,21.281,6.292,33.287,8.582,12.25,2.337,25,4.637,36.9,8.555ZM0,384.833c12.819-28.91,37.295-64.82,83.669-68.738,22.2-1.876,39.8,6.942,54.3,21.393,14.441,14.389,25.81,34.374,35.607,54.906,11.723,24.568,21.2,49.916,31.028,67.328q1.16,2.054,2.326,3.956H205.85q-1.028-1.69-2.049-3.5c-9.839-17.427-19.323-42.8-31.057-67.385-9.75-20.432-21.053-40.328-35.425-54.648-14.31-14.258-31.665-22.976-53.572-21.125-47,3.971-71.281,41.124-83.747,70.118Zm266.554,78.845c25.187-13.77,57.273-28.887,89.094-19.073a132.671,132.671,0,0,1,38.537,19.073h-1.556a132.446,132.446,0,0,0-37.254-18.187c-30.944-9.544-62.125,4.745-86.883,18.187Zm-256.184,0c6.625-33.358,34.485-55.914,68.268-63.906,10.537-2.493,23.422-4.413,33.176,1.6,21.66,13.357,30.3,32.223,34.624,53.083.628,3.035,1.165,6.113,1.637,9.221h-.938c-.465-3.045-.992-6.059-1.608-9.033-4.269-20.618-12.793-39.279-34.2-52.482-9.547-5.888-22.162-3.929-32.476-1.489-33.358,7.891-60.911,30.109-67.534,63Z" transform="translate(0 -0.003)" fill="#f9d2ad" fill-rule="evenodd"/>
          </g>
        </g>
      </g>
    </g>
  </g>
</svg>
