<svg xmlns="http://www.w3.org/2000/svg" xmlns:xlink="http://www.w3.org/1999/xlink" width="84" height="84" viewBox="0 0 84 84">
  <defs>
    <clipPath id="clip-path">
      <rect id="Rectángulo_455195" data-name="Rectángulo 455195" width="51.683" height="56.53" fill="none"/>
    </clipPath>
  </defs>
  <g id="Grupo_1177864" data-name="Grupo 1177864" transform="translate(-705.629 -1392)">
    <g id="Grupo_1177825" data-name="Grupo 1177825">
      <path id="Rectángulo_402006" data-name="Rectángulo 402006" d="M5,0H59A25,25,0,0,1,84,25V79a5,5,0,0,1-5,5H5a5,5,0,0,1-5-5V5A5,5,0,0,1,5,0Z" transform="translate(705.629 1392)" fill="#f9d2ad"/>
      <g id="Grupo_1177801" data-name="Grupo 1177801" transform="translate(719.711 1408.226)">
        <g id="Grupo_1177800" data-name="Grupo 1177800" transform="translate(0 0)" clip-path="url(#clip-path)">
          <path id="Trazado_999919" data-name="Trazado 999919" d="M0,47.17V42.943H4.526s1.232-5.564,5.961-5.564,5.666,5.5,5.666,5.5h4.015s.538-5.306,5.675-5.306,5.723,5.111,5.723,5.111h4.058s.117-5.306,5.306-5.306,5.619,5.267,5.619,5.267l5.134.3,0,4.227Z" transform="translate(0 8.321)" fill="#ebb044"/>
          <path id="Trazado_999920" data-name="Trazado 999920" d="M50.644,44.971H47.611a6.521,6.521,0,0,0-2.421-4.084c1.308-2.482,4.132-9.818-3.264-16.994a1.033,1.033,0,0,0-1.443,0c-7.409,7.2-4.6,14.5-3.3,16.958a6.5,6.5,0,0,0-2.494,4.12H32.3a6.593,6.593,0,0,0-2.457-4.108c1.308-2.506,4.084-9.818-3.289-16.97a1.033,1.033,0,0,0-1.443,0c-7.372,7.152-4.585,14.463-3.277,16.97a6.54,6.54,0,0,0-2.457,4.108h-2.4a6.537,6.537,0,0,0-2.482-4.12c1.284-2.445,4.12-9.744-3.3-16.958a1.048,1.048,0,0,0-1.455,0C2.363,31.07,5.175,38.406,6.483,40.888a6.575,6.575,0,0,0-2.421,4.084H1.042a1.039,1.039,0,1,0,0,2.078H5.016A1.038,1.038,0,0,0,6.055,46.01a4.469,4.469,0,0,1,8.937,0,1.038,1.038,0,0,0,1.039,1.039h4.3a1.038,1.038,0,0,0,1.039-1.039,4.463,4.463,0,1,1,8.925,0,1.049,1.049,0,0,0,1.051,1.039h4.3a1.038,1.038,0,0,0,1.039-1.039,4.463,4.463,0,1,1,8.925,0,1.038,1.038,0,0,0,1.039,1.039h3.986a1.039,1.039,0,1,0,0-2.078M12.681,39.849a7.007,7.007,0,0,0-1.161-.281V33.662a1.039,1.039,0,1,0-2.078,0v5.905a7.739,7.739,0,0,0-1.161.306c-1.051-1.956-3.362-7.727,2.2-13.742,5.612,6.076,3.24,11.847,2.2,13.718m15.356.012a5.986,5.986,0,0,0-1.161-.293V33.662a1.039,1.039,0,1,0-2.078,0v5.905a6.094,6.094,0,0,0-1.149.293c-1.064-1.968-3.35-7.727,2.188-13.73,5.551,6,3.264,11.762,2.2,13.73m15.356.012a7.036,7.036,0,0,0-1.161-.306V33.662a1.039,1.039,0,1,0-2.078,0v5.905a7.316,7.316,0,0,0-1.161.281c-1.039-1.9-3.387-7.654,2.213-13.718,5.563,6.015,3.252,11.786,2.188,13.742" transform="translate(0.001 5.254)"/>
          <path id="Trazado_999921" data-name="Trazado 999921" d="M36.546,39.412a7.036,7.036,0,0,0-1.161-.306V33.2a1.039,1.039,0,0,0-2.078,0v5.905a7.317,7.317,0,0,0-1.161.281c-1.039-1.9-3.387-7.654,2.213-13.718,5.563,6.015,3.252,11.786,2.188,13.742" transform="translate(6.848 5.715)" fill="#a5dd82"/>
          <path id="Trazado_999922" data-name="Trazado 999922" d="M23.984,39.4a5.986,5.986,0,0,0-1.161-.293V33.2a1.039,1.039,0,0,0-2.078,0v5.905a6.1,6.1,0,0,0-1.149.293c-1.064-1.968-3.35-7.727,2.188-13.73,5.551,6,3.264,11.762,2.2,13.73" transform="translate(4.054 5.715)" fill="#a5dd82"/>
          <path id="Trazado_999923" data-name="Trazado 999923" d="M11.426,39.388a7.007,7.007,0,0,0-1.161-.281V33.2a1.039,1.039,0,0,0-2.078,0v5.905a7.738,7.738,0,0,0-1.161.306c-1.051-1.956-3.362-7.727,2.2-13.742,5.612,6.076,3.24,11.847,2.2,13.718" transform="translate(1.256 5.715)" fill="#a5dd82"/>
          <path id="Trazado_999924" data-name="Trazado 999924" d="M47.1,45.576a1.04,1.04,0,0,0-1.039-1.039H21.6a1.039,1.039,0,1,0,0,2.078H46.064A1.04,1.04,0,0,0,47.1,45.576" transform="translate(4.578 9.915)"/>
          <path id="Trazado_999925" data-name="Trazado 999925" d="M1.039,46.615h18.09a1.039,1.039,0,1,0,0-2.078H1.039a1.039,1.039,0,1,0,0,2.078" transform="translate(0 9.915)"/>
          <path id="Trazado_999926" data-name="Trazado 999926" d="M33.389,0h-20A2.379,2.379,0,0,0,11,2.384V16.566a6.434,6.434,0,0,0,3.387,5.673l7.446,4.022a3.324,3.324,0,0,0,1.553.391,3.373,3.373,0,0,0,1.565-.391L32.4,22.239a6.434,6.434,0,0,0,3.387-5.673V2.384A2.39,2.39,0,0,0,33.389,0m.318,16.566a4.34,4.34,0,0,1-2.3,3.839l-7.446,4.022a1.2,1.2,0,0,1-1.149,0l-7.446-4.022a4.352,4.352,0,0,1-2.286-3.839V2.384a.3.3,0,0,1,.306-.306h20a.313.313,0,0,1,.318.306Z" transform="translate(2.449 0)"/>
          <path id="Trazado_999927" data-name="Trazado 999927" d="M33.011,1.7h-20a.3.3,0,0,0-.306.306V16.188a4.352,4.352,0,0,0,2.286,3.839l7.446,4.022a1.2,1.2,0,0,0,1.149,0l7.446-4.022a4.34,4.34,0,0,0,2.3-3.839V2.006a.313.313,0,0,0-.318-.306M18.559,9.733a1.042,1.042,0,0,1,1.467.086L22.2,12.239l3.741-4.927a1.038,1.038,0,1,1,1.651,1.259L23.1,14.5a1.058,1.058,0,0,1-.795.4c-.012,0-.024.012-.037.012a1.04,1.04,0,0,1-.77-.355L18.486,11.2a1.03,1.03,0,0,1,.073-1.467M31.36,16.8a1.041,1.041,0,0,1-.55.917l-7.3,3.961a1.062,1.062,0,0,1-.5.134.98.98,0,0,1-.489-.134l-7.311-3.961a1.054,1.054,0,0,1-.538-.917V4.915a1.039,1.039,0,0,1,2.078,0V16.188l6.26,3.4,6.272-3.4V4.915a1.039,1.039,0,1,1,2.078,0Z" transform="translate(2.828 0.379)" fill="#e7efe9"/>
          <path id="Trazado_999928" data-name="Trazado 999928" d="M31,4.519V16.4a1.041,1.041,0,0,1-.55.917l-7.3,3.961a1.062,1.062,0,0,1-.5.134.98.98,0,0,1-.489-.134L14.851,17.32a1.054,1.054,0,0,1-.538-.917V4.519a1.039,1.039,0,0,1,2.078,0V15.792l6.26,3.4,6.272-3.4V4.519a1.039,1.039,0,1,1,2.078,0" transform="translate(3.186 0.775)"/>
          <path id="Trazado_999929" data-name="Trazado 999929" d="M26.591,7.625l-4.5,5.93a1.058,1.058,0,0,1-.795.4c-.012,0-.024.012-.037.012a1.04,1.04,0,0,1-.77-.355l-3.008-3.362a1.03,1.03,0,0,1,.073-1.467,1.042,1.042,0,0,1,1.467.086L21.2,11.293,24.94,6.365a1.038,1.038,0,1,1,1.651,1.259" transform="translate(3.831 1.325)"/>
        </g>
      </g>
    </g>
  </g>
</svg>
