<svg xmlns="http://www.w3.org/2000/svg" xmlns:xlink="http://www.w3.org/1999/xlink" width="258.265" height="574.244" viewBox="0 0 258.265 574.244">
  <defs>
    <clipPath id="clip-path">
      <rect id="Rectángulo_455193" data-name="Rectángulo 455193" width="258.265" height="574.244" fill="none"/>
    </clipPath>
    <clipPath id="clip-path-3">
      <rect id="Rectángulo_455186" data-name="Rectángulo 455186" width="21.194" height="11.385" fill="none"/>
    </clipPath>
    <clipPath id="clip-path-4">
      <rect id="Rectángulo_455187" data-name="Rectángulo 455187" width="7.062" height="2.717" fill="none"/>
    </clipPath>
    <clipPath id="clip-path-5">
      <rect id="Rectángulo_455188" data-name="Rectángulo 455188" width="76.826" height="53.82" fill="none"/>
    </clipPath>
  </defs>
  <g id="Grupo_1177917" data-name="Grupo 1177917" transform="translate(-1089.414 -6593.32)">
    <g id="Grupo_1177797" data-name="Grupo 1177797" transform="translate(1089.414 6593.32)">
      <g id="Grupo_1177796" data-name="Grupo 1177796" clip-path="url(#clip-path)">
        <g id="Grupo_1177795" data-name="Grupo 1177795">
          <g id="Grupo_1177794" data-name="Grupo 1177794" clip-path="url(#clip-path)">
            <path id="Trazado_999834" data-name="Trazado 999834" d="M184.605,35.7l1.331-5.089a15.321,15.321,0,0,0-7.349-17.28C164.881,5.737,146.5,1.976,133.614.162a16.493,16.493,0,0,0-18.485,13.05l-.019.092a117.876,117.876,0,0,1,27.885,3.225C159.461,20.408,173.833,27.3,184.605,35.7" transform="translate(39.945 0)" fill="#f7cc63"/>
            <path id="Trazado_999835" data-name="Trazado 999835" d="M218.417,72.366c-1.917,8.143-7.585,14.844-15.809,19.71-5.233-2.161-9.855-4.729-10.209-12.75-5.193-22.565-27.322-30.68-27.322-30.68C118.63,31.9,108.789,66.6,108.463,67.84c.272,5.437.694,12.546,1.332,20.131C85.763,75.479,71.38,56.2,75.527,38.669,79.7,20.957,101.6,10.082,129.1,9.879A117.778,117.778,0,0,1,156.977,13.1c16.461,3.874,30.843,10.765,41.608,19.18,15.049,11.731,23.054,26.438,19.832,40.086" transform="translate(25.963 3.427)" fill="#dbab23"/>
            <path id="Trazado_999836" data-name="Trazado 999836" d="M99.8,59.5s1.922,32.056,4.758,44.736-3.351,41.226,34.406,44.283c25.364,2.056,48.918-8.176,61.646-15.115a13.036,13.036,0,0,0,5.969-16.113L188.625,70.5s-13.775-32.626-57.539-36.4C100.592,31.465,99.8,59.5,99.8,59.5" transform="translate(34.631 11.771)" fill="#84462a"/>
            <path id="Trazado_999837" data-name="Trazado 999837" d="M105.746,58.706s10.387,63.284,18.915,67.828,65.025-5.876,65.025-5.876S167.17,87.807,164.452,68.665Z" transform="translate(36.696 20.372)" fill="#632e19"/>
            <path id="Trazado_999838" data-name="Trazado 999838" d="M135.186,106.253,95.174,192.985,45.979,146.507l-10.264,7.476,45.956,56.85a15.865,15.865,0,0,0,26.264-2.373l29.218-53.528Z" transform="translate(12.394 36.872)" fill="#99c"/>
            <path id="Trazado_999839" data-name="Trazado 999839" d="M153.113,104.9l1.657,19.371-9.708,1.064c-3.994-.085-7.739-.295-11.16-.57,1.657-6.11-1.076-13.21-1.987-15.308-30.464-10.7-26.26-57.219-26.26-57.219.839-31.616,55.744-6.832,55.744-6.832,7.7,35.414-.106,51.879-8.286,59.492" transform="translate(36.596 12.55)" fill="#66361d"/>
            <path id="Trazado_999840" data-name="Trazado 999840" d="M139.668,97.089c-.263,7.859-2.264,13.676-5.265,17.82a30.887,30.887,0,0,0-2.487-10.2c-26.334-9.25-26.764-45.263-26.393-54.859,12.428,10.065,34.7,30.5,34.146,47.24" transform="translate(36.596 17.299)" fill="#562a17"/>
            <path id="Trazado_999841" data-name="Trazado 999841" d="M149.4,107.375,138.318,108l-11.83,1.3a12.91,12.91,0,0,0,.671-1.867c1.657-6.11-1.076-13.21-1.988-15.308-.171-.4-.275-.612-.275-.612l21.349-5.392.124,1.445Z" transform="translate(43.341 29.885)" fill="#f9b5a5"/>
            <g id="Grupo_1177787" data-name="Grupo 1177787" transform="translate(168.511 117.449)" opacity="0.2">
              <g id="Grupo_1177786" data-name="Grupo 1177786">
                <g id="Grupo_1177785" data-name="Grupo 1177785" clip-path="url(#clip-path-3)">
                  <path id="Trazado_999842" data-name="Trazado 999842" d="M146.293,87.192s-3.064,15.235-19.318,10.457c0,0-.97-3.376-1.876-5.874Z" transform="translate(-125.099 -87.192)" fill="#223243"/>
                </g>
              </g>
            </g>
            <path id="Trazado_999843" data-name="Trazado 999843" d="M153.084,105.559c-6.226,5.8-12.632,5.806-12.632,5.806a37.92,37.92,0,0,1-8.536-1.909c-30.464-10.7-26.259-57.219-26.259-57.219.838-31.615,55.742-6.832,55.742-6.832,9.158,35.656-.136,52.54-8.315,60.154" transform="translate(36.597 12.55)" fill="#f9b5a5"/>
            <path id="Trazado_999844" data-name="Trazado 999844" d="M134.847,58c.314,3.817,2.061,6.79,3.9,6.638s3.078-3.369,2.763-7.186-2.061-6.789-3.9-6.637-3.077,3.368-2.763,7.185" transform="translate(46.777 17.631)" fill="#223243"/>
            <path id="Trazado_999845" data-name="Trazado 999845" d="M112.945,59c.314,3.817,2.061,6.79,3.9,6.638s3.078-3.369,2.763-7.188-2.061-6.788-3.9-6.637-3.078,3.369-2.763,7.186" transform="translate(39.177 17.979)" fill="#223243"/>
            <g id="Grupo_1177790" data-name="Grupo 1177790" transform="translate(164.126 89.718)" opacity="0.63">
              <g id="Grupo_1177789" data-name="Grupo 1177789">
                <g id="Grupo_1177788" data-name="Grupo 1177788" clip-path="url(#clip-path-4)">
                  <path id="Trazado_999846" data-name="Trazado 999846" d="M128.906,69.167s-6.381-4.35-7.023-1.715,7.023,1.715,7.023,1.715" transform="translate(-121.844 -66.605)" fill="#223243"/>
                </g>
              </g>
            </g>
            <path id="Trazado_999847" data-name="Trazado 999847" d="M120.152,69.425a4.573,4.573,0,1,1-4.933-4.183,4.573,4.573,0,0,1,4.933,4.183" transform="translate(38.527 22.635)" fill="#f49889"/>
            <path id="Trazado_999848" data-name="Trazado 999848" d="M144.593,67.407a4.573,4.573,0,1,1-4.933-4.182,4.573,4.573,0,0,1,4.933,4.182" transform="translate(47.008 21.935)" fill="#f49889"/>
            <path id="Trazado_999849" data-name="Trazado 999849" d="M122.259,51.083a.573.573,0,0,1-.418-.18c-3.349-3.582-9.991-1.29-10.057-1.268a.571.571,0,1,1-.383-1.076c.3-.106,7.411-2.567,11.275,1.565a.569.569,0,0,1-.418.959" transform="translate(38.527 16.565)" fill="#223243"/>
            <path id="Trazado_999850" data-name="Trazado 999850" d="M144.165,46.753a.556.556,0,0,1-.453.039c-4.655-1.546-9.4,3.636-9.444,3.687a.572.572,0,0,1-.851-.764c.213-.237,5.284-5.794,10.654-4.006a.57.57,0,0,1,.094,1.044" transform="translate(46.247 15.739)" fill="#223243"/>
            <path id="Trazado_999851" data-name="Trazado 999851" d="M172.762,211.961l1.688,10.776-59.056,2.169-12.956-.335c3.679-15.639,4.886-27.288,5.119-35.313l-.749-13.683c-.011-.034-.022-.034-.022-.034S86.1,162.394,96.066,141.792a2.662,2.662,0,0,1,.145-.291,304.135,304.135,0,0,1,20.76-36.487,3.556,3.556,0,0,1,2.829-1.564l3.844-.145,8.5-.312,27.623-1.017.268-.624,8.686-.691h.044l4.114.613,7.388,59.62-6.428,10.287-.6,1.03c-.625,10.865-2.146,13.342-2.146,13.342Z" transform="translate(32.394 34.931)" fill="#99c"/>
            <path id="Trazado_999852" data-name="Trazado 999852" d="M151.8,101.829s21.454-4.573,25.358,6.44l22.387,83.1s5.222,13.16-6.561,17.22c-15.942,5.492-28.5-73.384-28.5-73.384l-4.5,25.72Z" transform="translate(52.677 35.01)" fill="#99c"/>
            <path id="Trazado_999853" data-name="Trazado 999853" d="M118.416,75.361l26.294-1.5-26.294,1.5a28.091,28.091,0,0,0,4.534,7.348l2.386-.731s5.839,3.78,13.364-.694l2.679-.151c2.456-2.179,3.331-7.267,3.331-7.267-15.431,10.989-26.294,1.5-26.294,1.5" transform="translate(41.093 25.632)" fill="#e2675a"/>
            <path id="Trazado_999854" data-name="Trazado 999854" d="M121.876,80.535a11.771,11.771,0,0,0,3.1,2.457,12.721,12.721,0,0,1-3.1-2.457" transform="translate(42.293 27.947)" fill="#e2675a"/>
            <path id="Trazado_999855" data-name="Trazado 999855" d="M124.692,82.614c-.129-.061-.259-.121-.388-.189.128.065.259.132.388.189" transform="translate(43.136 28.603)" fill="#e2675a"/>
            <path id="Trazado_999856" data-name="Trazado 999856" d="M144.711,73.863h0l-26.294,1.5s10.86,9.492,26.294-1.5" transform="translate(41.093 25.632)" fill="#fff"/>
            <path id="Trazado_999857" data-name="Trazado 999857" d="M124.171,80.1l-2.386.731-.011,0c.044.049.092.09.137.139a12.7,12.7,0,0,0,3.1,2.457c.058.034.116.059.175.089.129.067.259.128.387.189,7.456,3.509,14.645-4.455,14.645-4.455l-2.679.152c-7.527,4.472-13.364.694-13.364.694" transform="translate(42.258 27.504)" fill="#fff"/>
            <path id="Trazado_999858" data-name="Trazado 999858" d="M177.968,348.325s19-66.5,12.11-90.53A160.752,160.752,0,0,0,179.3,230.362l-5.81-18.388-1.677-26.357c-12.308-7.3-8.186-44.674-8.186-44.674l6.877-40.284h-9.43l-9.913,40.486-32.349,1.3L132.863,102.9l-8.373.011-.123-.343-20.553,37.509H96.936c-.055,0-.1.9-.145,1-9.972,20.6,10.721,34.1,10.721,34.1a2.029,2.029,0,0,0,.022.211l.473,13.772c-.234,8.027-3.4,25.575-7.475,41.213v-.009c-2.718,11.415-13.915,13.418-7.089,68.194l1.653,50.112v29.065L101.711,488.6l33.658-.558-6.56-113.085.9-15.471,11.6-66.7V401.4l8.362,87.007,33.8-.368-15.05-86.631Z" transform="translate(31.672 34.931)" fill="#12223f"/>
            <path id="Trazado_999859" data-name="Trazado 999859" d="M150.36,440.732l-81.4,10.854s-.749-11.816.749-14.152c4.281-6.719,19.26-12.018,29.858-15.035a13.282,13.282,0,0,0,9.546-14.533l-7.232-53.9,17.382-.894,26.08-1.342Z" transform="translate(23.865 122.056)" fill="#785f44"/>
            <path id="Trazado_999860" data-name="Trazado 999860" d="M68.879,423.665s50.7-1.134,61.882-5.232c2.734-1,19.555-1.218,19.555-1.218l.283,8.572H131.521l-.372-2.559a46.107,46.107,0,0,0-14.639,3.75l-47.631,1.887Z" transform="translate(23.902 144.782)" fill="#49331d"/>
            <path id="Trazado_999861" data-name="Trazado 999861" d="M109.33,427.677c-15.74,1.677-39.864,9.412-39.864,9.412,4.282-6.719,19.261-12.017,29.859-15.035a13.281,13.281,0,0,0,9.546-14.532l-7.233-53.9,17.383-.894s6.036,73.278-9.692,74.954" transform="translate(24.106 122.402)" fill="#b57d4b"/>
            <path id="Trazado_999862" data-name="Trazado 999862" d="M184.386,440.732l-81.4,10.854s-.749-11.816.749-14.152c4.281-6.719,19.26-12.018,29.858-15.035a13.282,13.282,0,0,0,9.546-14.533l-7.232-53.9,17.382-.894,26.08-1.342Z" transform="translate(35.673 122.056)" fill="#785f44"/>
            <path id="Trazado_999863" data-name="Trazado 999863" d="M102.18,423.665s51.185-1.134,62.371-5.232c2.733-1,19.8-1.218,19.8-1.218l.528,8.572H165.8l-.372-2.559a47.5,47.5,0,0,0-15.128,3.75l-48.117,1.887v-5.2Z" transform="translate(35.458 144.782)" fill="#49331d"/>
            <path id="Trazado_999864" data-name="Trazado 999864" d="M143.354,427.677c-15.74,1.677-39.864,9.412-39.864,9.412,4.282-6.719,19.261-12.017,29.859-15.035a13.281,13.281,0,0,0,9.546-14.532l-7.233-53.9,17.383-.894s6.037,73.278-9.692,74.954" transform="translate(35.913 122.402)" fill="#b57d4b"/>
            <g id="Grupo_1177793" data-name="Grupo 1177793" transform="translate(139.185 172.56)" opacity="0.2">
              <g id="Grupo_1177792" data-name="Grupo 1177792">
                <g id="Grupo_1177791" data-name="Grupo 1177791" clip-path="url(#clip-path-5)">
                  <path id="Trazado_999865" data-name="Trazado 999865" d="M103.328,165.967s54.212,16.778,67.6-20.286l9.228-17.576S168.389,174.89,158.3,179.626s-52.138,3.06-54.97-13.659" transform="translate(-103.328 -128.105)" fill="#5a7791"/>
                </g>
              </g>
            </g>
            <path id="Trazado_999866" data-name="Trazado 999866" d="M210.593,262.12v79.345c0,3.979-16.632,7.712-37.781,7.712s-38.34-3.734-38.34-7.712V262.12Z" transform="translate(46.664 90.961)" fill="#32bfce"/>
            <path id="Trazado_999867" data-name="Trazado 999867" d="M211.6,265.99c0,3.98-17.267,7.207-38.568,7.207s-38.567-3.226-38.567-7.207,17.267-7.207,38.567-7.207,38.568,3.225,38.568,7.207" transform="translate(46.663 89.803)" fill="#268b9b"/>
            <path id="Trazado_999868" data-name="Trazado 999868" d="M208.948,278.972a2.237,2.237,0,0,1-2.236-2.236V265.287a33.042,33.042,0,0,0-33.006-33h-1.181a33.042,33.042,0,0,0-33.006,33v11.448a2.236,2.236,0,1,1-4.472,0V265.287a37.517,37.517,0,0,1,37.477-37.475H173.7a37.518,37.518,0,0,1,37.477,37.475v11.448a2.232,2.232,0,0,1-2.233,2.236" transform="translate(46.864 79.055)" fill="#147484"/>
            <path id="Trazado_999869" data-name="Trazado 999869" d="M188.162,265.175c0,2.329-10.3,4.215-22.994,4.215s-22.995-1.886-22.995-4.215,10.3-4.215,22.995-4.215,22.994,1.886,22.994,4.215" transform="translate(49.337 90.558)" fill="#1a7584"/>
            <path id="Trazado_999870" data-name="Trazado 999870" d="M210.593,332.573v7.355c0,3.98-16.632,7.713-37.781,7.713s-38.34-3.734-38.34-7.713V266.541c4.077,12.888,21.749,53.893,76.121,66.032" transform="translate(46.664 92.495)" fill="#32acb2"/>
            <path id="Trazado_999871" data-name="Trazado 999871" d="M156.988,320.845h0a4.225,4.225,0,0,1-5.841,1.172l-51.816-34.5A4.212,4.212,0,1,1,104,280.5L155.816,315a4.225,4.225,0,0,1,1.172,5.841" transform="translate(33.82 97.097)" fill="#279cb7"/>
            <path id="Trazado_999872" data-name="Trazado 999872" d="M102.744,266A17.008,17.008,0,1,1,83.891,294.31c-.242-.162-.488-.321-.726-.48l0,0c-.238-.159-.473-.314-.706-.47l0,0c-1.509-2.811.313-9.51,5.2-16.854s10.782-12.231,13.54-11.3l.005,0,.7.47,0,0c.24.158.594.152.837.315" transform="translate(28.433 91.991)" fill="#1d8b9e"/>
            <path id="Trazado_999873" data-name="Trazado 999873" d="M101.7,265.473c.079.053.128.152.2.2l0,0c2.456,1.634.1,9.424-4.956,17.013s-10.915,12.147-13.785,11.138l0,0c-.075-.05-.186-.055-.265-.108-.159-.106-.287-.259-.442-.362l0,0c-1.509-2.811.313-9.51,5.2-16.854s10.782-12.23,13.54-11.3l.005,0c.154.1.343.16.5.267" transform="translate(28.433 91.991)" fill="#14727c"/>
            <path id="Trazado_999874" data-name="Trazado 999874" d="M85.8,279.037c.172.115.022.644-.337,1.181s-.789.881-.96.766-.022-.644.338-1.181.787-.881.959-.766" transform="translate(29.301 96.823)" fill="#115154"/>
            <path id="Trazado_999875" data-name="Trazado 999875" d="M84.418,282.624c.172.114.022.643-.337,1.181s-.789.881-.96.766-.022-.643.338-1.181.787-.882.959-.766" transform="translate(28.82 98.068)" fill="#115154"/>
            <path id="Trazado_999876" data-name="Trazado 999876" d="M87.54,281.7c.172.114.022.642-.337,1.181s-.789.881-.96.766-.022-.644.338-1.181.787-.881.959-.766" transform="translate(29.903 97.746)" fill="#115154"/>
            <path id="Trazado_999877" data-name="Trazado 999877" d="M88.116,278.573c.172.115.022.644-.337,1.181s-.789.881-.96.766-.022-.643.338-1.181.787-.881.959-.766" transform="translate(30.103 96.662)" fill="#115154"/>
            <path id="Trazado_999878" data-name="Trazado 999878" d="M87.536,275.683c.172.114.022.642-.337,1.181s-.789.881-.96.766-.022-.644.338-1.181.788-.882.959-.766" transform="translate(29.902 95.659)" fill="#115154"/>
            <path id="Trazado_999879" data-name="Trazado 999879" d="M89.617,274.063c.172.115.022.644-.337,1.181s-.789.881-.96.766-.022-.644.338-1.181.787-.881.959-.766" transform="translate(30.624 95.097)" fill="#115154"/>
            <path id="Trazado_999880" data-name="Trazado 999880" d="M92.972,275.795c.172.115.022.644-.337,1.181s-.789.881-.96.766-.022-.644.338-1.181.787-.881.959-.766" transform="translate(31.788 95.698)" fill="#115154"/>
            <path id="Trazado_999881" data-name="Trazado 999881" d="M90.543,275.681c.172.115.022.643-.337,1.181s-.789.881-.96.766-.022-.644.338-1.181.787-.882.959-.766" transform="translate(30.945 95.659)" fill="#115154"/>
            <path id="Trazado_999882" data-name="Trazado 999882" d="M91.124,278.572c.172.114.022.643-.337,1.181s-.789.881-.96.766-.022-.643.338-1.181.787-.882.959-.766" transform="translate(31.147 96.662)" fill="#115154"/>
            <path id="Trazado_999883" data-name="Trazado 999883" d="M92.248,270.109c.172.115.6-.229.959-.766s.509-1.067.338-1.181-.6.228-.96.766-.509,1.065-.337,1.181" transform="translate(31.987 93.05)" fill="#115154"/>
            <path id="Trazado_999884" data-name="Trazado 999884" d="M95.022,267.448c.172.115.6-.229.959-.766s.509-1.067.338-1.181-.6.228-.96.766-.509,1.067-.337,1.181" transform="translate(32.95 92.126)" fill="#115154"/>
            <path id="Trazado_999885" data-name="Trazado 999885" d="M95.371,270.686c.172.114.6-.229.959-.766s.509-1.067.338-1.181-.6.228-.96.766-.509,1.067-.337,1.181" transform="translate(33.071 93.249)" fill="#115154"/>
            <path id="Trazado_999886" data-name="Trazado 999886" d="M92.712,272.422c.172.115.6-.229.96-.766s.509-1.067.338-1.181-.6.228-.962.766-.509,1.066-.337,1.181" transform="translate(32.148 93.852)" fill="#115154"/>
            <path id="Trazado_999887" data-name="Trazado 999887" d="M89.821,273c.172.115.6-.229.959-.766s.509-1.067.338-1.181-.6.228-.96.766-.509,1.067-.337,1.181" transform="translate(31.145 94.053)" fill="#115154"/>
            <path id="Trazado_999888" data-name="Trazado 999888" d="M87.393,274.391c.172.115.6-.229.959-.766s.509-1.067.338-1.181-.6.228-.96.766-.509,1.067-.337,1.181" transform="translate(30.302 94.535)" fill="#115154"/>
            <path id="Trazado_999889" data-name="Trazado 999889" d="M91.442,275.083c.172.114.6-.229.959-.766s.511-1.067.338-1.181-.6.228-.96.766-.509,1.067-.337,1.181" transform="translate(31.707 94.775)" fill="#115154"/>
            <path id="Trazado_999890" data-name="Trazado 999890" d="M93.872,275.2c.171.114.6-.229.958-.766s.509-1.067.338-1.181-.6.228-.959.766-.511,1.067-.337,1.181" transform="translate(32.55 94.815)" fill="#115154"/>
            <path id="Trazado_999891" data-name="Trazado 999891" d="M146.026,284.34l-30.472,11.155a2.51,2.51,0,0,1-1.726-4.715L144.3,279.625a2.51,2.51,0,0,1,1.727,4.715" transform="translate(38.929 96.982)" fill="#1f899b"/>
            <path id="Trazado_999892" data-name="Trazado 999892" d="M173.907,174.116l-3.288,71.5,13.26,3.912s14.825-59.16,10.447-75.411-20.033-8.4-20.419,0" transform="translate(59.208 57.136)" fill="#99c"/>
            <path id="Trazado_999893" data-name="Trazado 999893" d="M173.156,224.757l-9.847,13.414L166.586,246l8.339,1.6a8.365,8.365,0,0,0,9.863-7.076l1.629-11.85Z" transform="translate(56.671 77.995)" fill="#f9b5a5"/>
            <rect id="Rectángulo_455189" data-name="Rectángulo 455189" width="10.416" height="273.689" transform="translate(32.52 238.529)" fill="#4f2a09"/>
            <path id="Trazado_999894" data-name="Trazado 999894" d="M41.228,450.444h-7A34.226,34.226,0,0,1,0,416.219V356.752H75.453v59.467a34.224,34.224,0,0,1-34.225,34.225" transform="translate(0 123.8)" fill="#f9c73a"/>
            <rect id="Rectángulo_455190" data-name="Rectángulo 455190" width="26.028" height="12.558" transform="translate(24.714 232.25)" fill="#a86935"/>
            <path id="Trazado_999895" data-name="Trazado 999895" d="M68.543,188.2H6.029a4.757,4.757,0,0,1-4.756-4.758V148.783a4.757,4.757,0,0,1,4.756-4.758H68.543a4.757,4.757,0,0,1,4.758,4.758v34.661a4.757,4.757,0,0,1-4.758,4.758m-57.756-9.514h53V153.54h-53Z" transform="translate(0.442 49.979)" fill="#d6a221"/>
            <path id="Trazado_999896" data-name="Trazado 999896" d="M20.667,355.968,30.555,412.4l10.162-56.428Z" transform="translate(7.172 123.528)" fill="#b58e1f"/>
            <path id="Trazado_999897" data-name="Trazado 999897" d="M50.685,136.344S30.024,138,24.934,142.99c-2.36,2.311-3.17,6.463-3.358,10.251a7.938,7.938,0,0,0,7.954,8.294H36.8a7.957,7.957,0,0,0,6.218-2.992l7.671-9.6V136.344Z" transform="translate(7.484 47.314)" fill="#f9b5a5"/>
            <rect id="Rectángulo_455191" data-name="Rectángulo 455191" width="15.632" height="26.846" transform="translate(29.878 453.559)" fill="#f9c73a"/>
            <path id="Trazado_999898" data-name="Trazado 999898" d="M105.46,46.316s17.98,5.829,29.133,0c0,0-7.981-4.576-7.021-9.313l31.205,10.61s-3.2,15.862,9.1,25.915l-2.691-27.115s-44.068-27.85-59.728-.1" transform="translate(36.597 11.801)" fill="#84462a"/>
            <path id="Trazado_999899" data-name="Trazado 999899" d="M149.321,63.025s4.716-9.634,7.887-4.649.053,15.243-7.876,16.591Z" transform="translate(51.817 19.761)" fill="#f9b5a5"/>
          </g>
        </g>
      </g>
    </g>
  </g>
</svg>
