<svg xmlns="http://www.w3.org/2000/svg" xmlns:xlink="http://www.w3.org/1999/xlink" width="84" height="84" viewBox="0 0 84 84">
  <defs>
    <clipPath id="clip-path">
      <rect id="Rectángulo_455196" data-name="Rectángulo 455196" width="49.878" height="49.646" fill="none"/>
    </clipPath>
  </defs>
  <g id="Grupo_1177864" data-name="Grupo 1177864" transform="translate(-704.629 -326)">
    <g id="Grupo_1177824" data-name="Grupo 1177824">
      <g id="Grupo_1177401" data-name="Grupo 1177401" transform="translate(-40 -1332)">
        <path id="Rectángulo_402006" data-name="Rectángulo 402006" d="M5,0H59A25,25,0,0,1,84,25V79a5,5,0,0,1-5,5H5a5,5,0,0,1-5-5V5A5,5,0,0,1,5,0Z" transform="translate(744.629 1658)" fill="#ff9e43"/>
      </g>
      <g id="Grupo_1177803" data-name="Grupo 1177803" transform="translate(721.099 342.195)">
        <g id="Grupo_1177802" data-name="Grupo 1177802" transform="translate(0 0)" clip-path="url(#clip-path)">
          <path id="Trazado_999930" data-name="Trazado 999930" d="M49.878,22.449A3.407,3.407,0,0,0,46.984,19.1a7.611,7.611,0,0,0,.816-3.423,7.8,7.8,0,0,0-3.519-6.518,6.056,6.056,0,0,0,2.311-4.282.937.937,0,0,0-.509-.806,14.8,14.8,0,0,0-6.094-1.06c-.657,0-1.24.032-1.791.085C36.937.9,35.029-.243,33.015.043A3.166,3.166,0,0,0,30.2,2.237a2.119,2.119,0,0,1-.784,1.2,3.747,3.747,0,0,0-2.544-.816c-.191,0-.339.042-.509.053A3.683,3.683,0,0,0,24.324.446a4.24,4.24,0,0,0-3.667.159c-.127.085-.233.17-.35.244-.509.392-.848.636-2.8.085a2.639,2.639,0,0,0-2.575.392,2.88,2.88,0,0,0-.9,1.834,21.038,21.038,0,0,0-2.47-.148,14.8,14.8,0,0,0-6.094,1.06.937.937,0,0,0-.509.806A6.056,6.056,0,0,0,7.271,9.158a7.748,7.748,0,0,0-2.734,9.889H3.392A3.4,3.4,0,0,0,0,22.449v4.6a3.424,3.424,0,0,0,1.092,2.5A3.383,3.383,0,0,0,0,32.041v4.61a3.383,3.383,0,0,0,1.092,2.491A3.424,3.424,0,0,0,0,41.644v4.6a3.4,3.4,0,0,0,3.392,3.4H46.475a3.406,3.406,0,0,0,3.4-3.4v-4.6a3.394,3.394,0,0,0-1.1-2.5,3.353,3.353,0,0,0,1.1-2.491v-4.61a3.353,3.353,0,0,0-1.1-2.491,3.394,3.394,0,0,0,1.1-2.5ZM46,15.677a5.942,5.942,0,0,1-1.039,3.37H35.018a5.863,5.863,0,0,1-1.039-3.37,6.009,6.009,0,0,1,12.019,0M39.989,4.813a15.581,15.581,0,0,1,4.727.657A5.877,5.877,0,0,1,42.5,8.279a7.9,7.9,0,0,0-2.512-.413,7.574,7.574,0,0,0-2.512.424A5.9,5.9,0,0,1,35.262,5.47a15.581,15.581,0,0,1,4.727-.657m-8.352,4.7a2.118,2.118,0,0,0-1.24-.89,5.686,5.686,0,0,0,.17-3.317c-.032-.138-.085-.254-.127-.382a3.993,3.993,0,0,0,1.526-2.364A1.661,1.661,0,0,1,33.3,1.824a3.2,3.2,0,0,1,2.936,1.537,11.376,11.376,0,0,0-2.342.71.916.916,0,0,0-.509.806A6.056,6.056,0,0,0,35.7,9.158a7.8,7.8,0,0,0-3.519,6.518,7.643,7.643,0,0,0,.784,3.37H28.871l2.957-7.6a2.135,2.135,0,0,0-.191-1.94m-1.781.827a.338.338,0,0,1,.265.159.342.342,0,0,1,.032.307l-.827,2.109-2.66-.265a.9.9,0,1,0-.18,1.791l2.162.212-1.706,4.4H22.713l-.382-8.7a.3.3,0,0,1,.1-.254.286.286,0,0,1,.254-.1ZM24.918,5.226a2.266,2.266,0,0,1,1.993-.806A1.689,1.689,0,0,1,28.776,5.6,3.892,3.892,0,0,1,28.5,8.469L24.949,8.3a4.062,4.062,0,0,1-.032-3.074M16.1,2.693c.223-.18.668-.1.922-.021,2.607.742,3.455.307,4.377-.382.085-.064.17-.127.265-.191a2.533,2.533,0,0,1,1.94,0,1.838,1.838,0,0,1,1.007,1.06,3.21,3.21,0,0,0-1.219,1.1,5.188,5.188,0,0,0-.35,3.943l-.276-.011a2.129,2.129,0,0,0-1.611.615,2.179,2.179,0,0,0-.625,1.611l.382,8.627H18.59a7.748,7.748,0,0,0-2.734-9.889,6.056,6.056,0,0,0,2.311-4.282.937.937,0,0,0-.509-.806,10.235,10.235,0,0,0-1.844-.594,1.213,1.213,0,0,1,.286-.784M6.836,5.47a15.581,15.581,0,0,1,4.727-.657,15.581,15.581,0,0,1,4.727.657,5.9,5.9,0,0,1-2.215,2.819,7.62,7.62,0,0,0-2.512-.424,7.9,7.9,0,0,0-2.512.413A5.877,5.877,0,0,1,6.836,5.47m4.727,4.2a6.011,6.011,0,0,1,6.009,6.009,5.942,5.942,0,0,1-1.039,3.37H6.592a5.942,5.942,0,0,1-1.039-3.37,6.011,6.011,0,0,1,6.009-6.009M48.076,27.049a1.606,1.606,0,0,1-1.6,1.6H18.707a.9.9,0,1,0,0,1.8H46.475a1.6,1.6,0,0,1,1.6,1.59v4.61a1.6,1.6,0,0,1-1.6,1.59H33.8a.9.9,0,0,0,0,1.8H46.475a1.606,1.606,0,0,1,1.6,1.6v4.6a1.606,1.606,0,0,1-1.6,1.6H3.392a1.6,1.6,0,0,1-1.59-1.6v-4.6a1.6,1.6,0,0,1,1.59-1.6h25a.9.9,0,1,0,0-1.8h-25a1.588,1.588,0,0,1-1.59-1.59v-4.61a1.588,1.588,0,0,1,1.59-1.59H14.1a.9.9,0,0,0,0-1.8H3.392a1.6,1.6,0,0,1-1.59-1.6v-4.6a1.6,1.6,0,0,1,1.59-1.6H46.475a1.606,1.606,0,0,1,1.6,1.6Z" transform="translate(0 0)"/>
          <path id="Trazado_999931" data-name="Trazado 999931" d="M28.86,9.929A.338.338,0,0,0,28.6,9.77L21.42,9.431a.286.286,0,0,0-.254.1.3.3,0,0,0-.1.254l.382,8.7h4.229l1.706-4.4-2.162-.212a.9.9,0,0,1,.18-1.791l2.66.265.827-2.109a.342.342,0,0,0-.032-.307m-4.2,5.024a.9.9,0,0,1-.17,1.791.928.928,0,0,1-.17-.021l-1.272-.244a.9.9,0,0,1-.71-1.06.893.893,0,0,1,1.049-.71Z" transform="translate(1.261 0.565)" fill="#ebb044"/>
          <path id="Trazado_999932" data-name="Trazado 999932" d="M34.066,9.056a7.8,7.8,0,0,0-3.519,6.518,7.643,7.643,0,0,0,.784,3.37H27.24l2.957-7.6a2.11,2.11,0,0,0-1.431-2.83,5.686,5.686,0,0,0,.17-3.317c-.032-.138-.085-.254-.127-.382a3.993,3.993,0,0,0,1.526-2.364,1.661,1.661,0,0,1,1.335-.731,3.2,3.2,0,0,1,2.936,1.537,11.376,11.376,0,0,0-2.342.71.916.916,0,0,0-.509.806,6.056,6.056,0,0,0,2.311,4.282" transform="translate(1.631 0.102)" fill="#3bbd39"/>
          <path id="Trazado_999933" data-name="Trazado 999933" d="M23.717,3.052a3.21,3.21,0,0,0-1.219,1.1,5.188,5.188,0,0,0-.35,3.943l-.276-.011a2.129,2.129,0,0,0-1.611.615,2.179,2.179,0,0,0-.625,1.611l.382,8.627H17.7a7.748,7.748,0,0,0-2.734-9.889,6.056,6.056,0,0,0,2.311-4.282.937.937,0,0,0-.509-.806A10.235,10.235,0,0,0,14.92,3.37a1.213,1.213,0,0,1,.286-.784c.223-.18.668-.1.922-.021,2.607.742,3.455.307,4.377-.382.085-.064.17-.127.265-.191a2.533,2.533,0,0,1,1.94,0,1.838,1.838,0,0,1,1.007,1.06" transform="translate(0.893 0.108)" fill="#3bbd39"/>
          <path id="Trazado_999934" data-name="Trazado 999934" d="M27.109,8.22l-3.551-.17a4.062,4.062,0,0,1-.032-3.074,2.266,2.266,0,0,1,1.993-.806,1.689,1.689,0,0,1,1.865,1.176,3.892,3.892,0,0,1-.276,2.872" transform="translate(1.391 0.25)" fill="#b9ff61"/>
          <path id="Trazado_999935" data-name="Trazado 999935" d="M42.724,5.2a5.877,5.877,0,0,1-2.215,2.809A7.9,7.9,0,0,0,38,7.593a7.574,7.574,0,0,0-2.512.424A5.9,5.9,0,0,1,33.27,5.2,15.581,15.581,0,0,1,38,4.541a15.581,15.581,0,0,1,4.727.657" transform="translate(1.992 0.272)" fill="#b9ff61"/>
          <path id="Trazado_999936" data-name="Trazado 999936" d="M15.9,5.2a5.9,5.9,0,0,1-2.215,2.819,7.62,7.62,0,0,0-2.512-.424,7.9,7.9,0,0,0-2.512.413A5.877,5.877,0,0,1,6.45,5.2a15.581,15.581,0,0,1,4.727-.657A15.581,15.581,0,0,1,15.9,5.2" transform="translate(0.386 0.272)" fill="#b9ff61"/>
          <path id="Trazado_999937" data-name="Trazado 999937" d="M44.079,15.13A5.942,5.942,0,0,1,43.04,18.5H33.1a5.863,5.863,0,0,1-1.039-3.37,6.009,6.009,0,0,1,12.019,0" transform="translate(1.92 0.546)" fill="#f29898"/>
          <path id="Trazado_999938" data-name="Trazado 999938" d="M17.259,15.13A5.942,5.942,0,0,1,16.22,18.5H6.279A5.942,5.942,0,0,1,5.24,15.13a6.009,6.009,0,1,1,12.019,0" transform="translate(0.314 0.546)" fill="#f29898"/>
          <path id="Trazado_999939" data-name="Trazado 999939" d="M17.7,28.373a.9.9,0,0,0,.9.9H46.374a1.6,1.6,0,0,1,1.6,1.59v4.61a1.6,1.6,0,0,1-1.6,1.59H33.7a.9.9,0,0,0,0,1.8H46.374a1.606,1.606,0,0,1,1.6,1.6v4.6a1.606,1.606,0,0,1-1.6,1.6H3.29a1.6,1.6,0,0,1-1.59-1.6v-4.6a1.6,1.6,0,0,1,1.59-1.6h25a.9.9,0,1,0,0-1.8h-25a1.588,1.588,0,0,1-1.59-1.59v-4.61a1.588,1.588,0,0,1,1.59-1.59h10.7a.9.9,0,0,0,0-1.8H3.29a1.6,1.6,0,0,1-1.59-1.6v-4.6a1.6,1.6,0,0,1,1.59-1.6H46.374a1.606,1.606,0,0,1,1.6,1.6v4.6a1.606,1.606,0,0,1-1.6,1.6H18.6a.9.9,0,0,0-.9.9" transform="translate(0.102 1.178)" fill="#f2dbb1"/>
          <path id="Trazado_999940" data-name="Trazado 999940" d="M25.313,15.716a.917.917,0,0,1-.89.731.928.928,0,0,1-.17-.021l-1.272-.244a.9.9,0,0,1-.71-1.06.893.893,0,0,1,1.049-.71l1.272.244a.911.911,0,0,1,.721,1.06" transform="translate(1.332 0.862)"/>
        </g>
      </g>
    </g>
  </g>
</svg>
